{
DisplayStrings = (
"/alefMadda-ar.isol",
"/ain-ar",
"/alefMadda-ar",
"/hah-ar.fina",

glyphs = (
{
glyphname = "dotlessbeh-ar";
lastChange = "2016-02-11 17:42:53 +0000";
layers = (
{
anchors = (
{
name = bottom;
position = "{928, -236}";
},
{
name = top;
position = "{872, 899}";
}
);
layerId = "93A312F7-B931-4485-B08E-C367313EB5E7";
name = Regular;
paths = (
{
closed = 1;
nodes = (
"833 -59 OFFCURVE",
"1009 -40 OFFCURVE",
"1190 -7 CURVE SMOOTH",
"1506 43 OFFCURVE",
"1759 132 OFFCURVE",
"1759 430 CURVE SMOOTH",
"1759 526 OFFCURVE",
"1686 822 OFFCURVE",
"1643 1006 CURVE",
"1639 1019 OFFCURVE",
"1628 1020 OFFCURVE",
"1619 1010 CURVE SMOOTH",
"1511 901 LINE",
"1505 894 OFFCURVE",
"1502 887 OFFCURVE",
"1505 877 CURVE SMOOTH",
"1638 305 LINE SMOOTH",
"1640 294 OFFCURVE",
"1638 287 OFFCURVE",
"1627 282 CURVE SMOOTH",
"1480 217 OFFCURVE",
"1115 132 OFFCURVE",
"782 138 CURVE SMOOTH",
"500 143 OFFCURVE",
"268 221 OFFCURVE",
"292 462 CURVE SMOOTH",
"306 612 LINE SMOOTH",
"307 623 OFFCURVE",
"301 630 OFFCURVE",
"290 631 CURVE SMOOTH",
"224 637 LINE SMOOTH",
"214 638 OFFCURVE",
"205 631 OFFCURVE",
"204 620 CURVE SMOOTH",
"186 462 LINE SMOOTH",
"144 98 OFFCURVE",
"314 -44 OFFCURVE",
"695 -55 CURVE SMOOTH"
);
}
);
width = 1903;
}
);
unicode = 066E;
userData = {
com.typemytype.robofont.guides = (
{
angle = 0;
isGlobal = 0;
x = 383;
y = 1092;
}
);
};
},
{
glyphname = "hamza-ar";
lastChange = "2016-02-11 17:42:54 +0000";
layers = (
{
anchors = (
{
name = bottom;
position = "{544, -208}";
},
{
name = top;
position = "{544, 965}";
}
);
layerId = "93A312F7-B931-4485-B08E-C367313EB5E7";
name = Regular;
paths = (
{
closed = 1;
nodes = (
"455 84 OFFCURVE",
"659 204 OFFCURVE",
"894 329 CURVE SMOOTH",
"904 334 OFFCURVE",
"908 341 OFFCURVE",
"907 350 CURVE",
"899 486 LINE SMOOTH",
"898 499 OFFCURVE",
"889 505 OFFCURVE",
"877 498 CURVE SMOOTH",
"516 283 LINE SMOOTH",
"508 278 OFFCURVE",
"498 278 OFFCURVE",
"491 286 CURVE",
"283 476 LINE",
"275 485 OFFCURVE",
"274 493 OFFCURVE",
"281 502 CURVE SMOOTH",
"386 625 OFFCURVE",
"529 646 OFFCURVE",
"680 641 CURVE",
"692 640 OFFCURVE",
"700 647 OFFCURVE",
"698 658 CURVE SMOOTH",
"686 750 LINE SMOOTH",
"685 760 OFFCURVE",
"682 767 OFFCURVE",
"671 770 CURVE",
"439 836 OFFCURVE",
"180 696 OFFCURVE",
"180 467 CURVE SMOOTH",
"180 366 OFFCURVE",
"287 259 OFFCURVE",
"361 204 CURVE SMOOTH",
"372 196 OFFCURVE",
"371 186 OFFCURVE",
"360 179 CURVE",
"234 102 LINE SMOOTH",
"226 97 OFFCURVE",
"222 91 OFFCURVE",
"222 80 CURVE SMOOTH",
"221 -28 LINE SMOOTH",
"221 -42 OFFCURVE",
"230 -48 OFFCURVE",
"242 -41 CURVE SMOOTH"
);
}
);
width = 1051;
}
);
unicode = 0621;
},
{
glyphname = "alef-ar";
lastChange = "2016-02-11 17:42:53 +0000";
layers = (
{
anchors = (
{
name = bottom;
position = "{306, -216}";
},
{
name = top;
position = "{270, 1781}";
}
);
layerId = "93A312F7-B931-4485-B08E-C367313EB5E7";
name = Regular;
paths = (
{
closed = 1;
nodes = (
"359 -4 LINE",
"365 -1 OFFCURVE",
"370 4 OFFCURVE",
"370 12 CURVE",
"361 1585 LINE",
"361 1604 OFFCURVE",
"344 1613 OFFCURVE",
"329 1604 CURVE SMOOTH",
"188 1529 LINE SMOOTH",
"184 1526 OFFCURVE",
"180 1522 OFFCURVE",
"180 1514 CURVE",
"242 -16 LINE",
"242 -30 OFFCURVE",
"257 -40 OFFCURVE",
"270 -35 CURVE SMOOTH"
);
}
);
width = 514;
}
);
unicode = 0627;
},
{
glyphname = "alef-ar.fina";
lastChange = "2016-02-11 17:42:53 +0000";
layers = (
{
anchors = (
{
name = bottom;
position = "{508, -180}";
},
{
name = top;
position = "{264, 1776}";
}
);
layerId = "93A312F7-B931-4485-B08E-C367313EB5E7";
name = Regular;
paths = (
{
closed = 1;
nodes = (
"695 0 LINE",
"745 62 OFFCURVE",
"745 125 OFFCURVE",
"695 187 CURVE",
"625 187 LINE SMOOTH",
"569 187 OFFCURVE",
"455 209 OFFCURVE",
"382 253 CURVE SMOOTH",
"373 258 OFFCURVE",
"370 264 OFFCURVE",
"370 275 CURVE",
"349 1586 LINE",
"349 1601 OFFCURVE",
"341 1607 OFFCURVE",
"328 1598 CURVE SMOOTH",
"191 1512 LINE",
"182 1506 OFFCURVE",
"180 1501 OFFCURVE",
"180 1490 CURVE",
"235 410 LINE SMOOTH",
"250 128 OFFCURVE",
"320 0 OFFCURVE",
"575 0 CURVE SMOOTH"
);
}
);
width = 695;
}
);
unicode = FE8E;
},
{
glyphname = "alef-ar.short";
lastChange = "2016-02-11 17:42:54 +0000";
layers = (
{
anchors = (
{
name = bottom;
position = "{306, -215}";
},
{
name = top;
position = "{270, 1600}";
}
);
layerId = "93A312F7-B931-4485-B08E-C367313EB5E7";
name = Regular;
paths = (
{
closed = 1;
nodes = (
"359 -4 LINE",
"365 -1 OFFCURVE",
"370 4 OFFCURVE",
"370 12 CURVE",
"361 1405 LINE",
"361 1424 OFFCURVE",
"344 1433 OFFCURVE",
"329 1424 CURVE SMOOTH",
"188 1349 LINE SMOOTH",
"184 1346 OFFCURVE",
"180 1342 OFFCURVE",
"180 1334 CURVE",
"242 -16 LINE",
"244 -30 OFFCURVE",
"257 -40 OFFCURVE",
"270 -35 CURVE SMOOTH"
);
}
);
width = 514;
}
);
userData = {
com.typemytype.robofont.guides = (
{
angle = 0;
isGlobal = 0;
x = 293;
y = 1187;
}
);
};
},
{
glyphname = "alef-ar.fina.short";
lastChange = "2016-02-11 17:42:53 +0000";
layers = (
{
anchors = (
{
name = bottom;
position = "{490, -180}";
},
{
name = top;
position = "{354, 1589}";
}
);
layerId = "93A312F7-B931-4485-B08E-C367313EB5E7";
name = Regular;
paths = (
{
closed = 1;
nodes = (
"695 0 LINE",
"745 62 OFFCURVE",
"745 125 OFFCURVE",
"695 187 CURVE",
"625 187 LINE SMOOTH",
"569 187 OFFCURVE",
"455 209 OFFCURVE",
"382 253 CURVE SMOOTH",
"373 258 OFFCURVE",
"370 264 OFFCURVE",
"370 275 CURVE",
"349 1394 LINE",
"349 1409 OFFCURVE",
"341 1415 OFFCURVE",
"328 1406 CURVE SMOOTH",
"191 1320 LINE",
"182 1314 OFFCURVE",
"179 1309 OFFCURVE",
"180 1298 CURVE",
"235 410 LINE SMOOTH",
"253 128 OFFCURVE",
"320 0 OFFCURVE",
"575 0 CURVE SMOOTH"
);
}
);
width = 695;
}
);
rightMetricsKey = z;
userData = {
com.schriftgestaltung.Glyphs.rightMetricsKey = z;
com.typemytype.robofont.guides = (
{
angle = 0;
isGlobal = 0;
x = 285;
y = 1176;
}
);
};
},
{
glyphname = "dotlessbeh-ar.fina";
lastChange = "2016-02-11 17:42:53 +0000";
layers = (
{
anchors = (
{
name = bottom;
position = "{928, -236}";
},
{
name = top;
position = "{872, 899}";
}
);
layerId = "93A312F7-B931-4485-B08E-C367313EB5E7";
name = Regular;
paths = (
{
closed = 1;
nodes = (
"1012 -62 OFFCURVE",
"1567 17 OFFCURVE",
"1694 168 CURVE SMOOTH",
"1704 179 OFFCURVE",
"1712 178 OFFCURVE",
"1718 166 CURVE",
"1780 54 OFFCURVE",
"1908 0 OFFCURVE",
"2033 0 CURVE SMOOTH",
"2081 0 LINE",
"2131 62 OFFCURVE",
"2131 125 OFFCURVE",
"2081 187 CURVE",
"2033 187 LINE SMOOTH",
"1870 187 OFFCURVE",
"1763 250 OFFCURVE",
"1739 432 CURVE SMOOTH",
"1696 752 LINE",
"1694 766 OFFCURVE",
"1681 772 OFFCURVE",
"1672 761 CURVE",
"1576 661 LINE",
"1570 654 OFFCURVE",
"1567 647 OFFCURVE",
"1568 637 CURVE SMOOTH",
"1626 278 LINE",
"1627 268 OFFCURVE",
"1625 260 OFFCURVE",
"1614 257 CURVE SMOOTH",
"1447 197 OFFCURVE",
"1074 133 OFFCURVE",
"782 139 CURVE SMOOTH",
"500 145 OFFCURVE",
"268 222 OFFCURVE",
"292 463 CURVE SMOOTH",
"306 613 LINE SMOOTH",
"307 624 OFFCURVE",
"301 631 OFFCURVE",
"290 632 CURVE SMOOTH",
"224 638 LINE SMOOTH",
"214 640 OFFCURVE",
"205 632 OFFCURVE",
"204 622 CURVE SMOOTH",
"186 463 LINE SMOOTH",
"144 100 OFFCURVE",
"314 -47 OFFCURVE",
"695 -55 CURVE SMOOTH"
);
}
);
width = 2081;
}
);
},
{
glyphname = "dotlessbeh-ar.medi";
lastChange = "2016-02-11 17:42:53 +0000";
layers = (
{
anchors = (
{
name = bottom;
position = "{386, -186}";
},
{
name = top;
position = "{552, 824}";
}
);
layerId = "93A312F7-B931-4485-B08E-C367313EB5E7";
name = Regular;
paths = (
{
closed = 1;
nodes = (
"46 0 LINE SMOOTH",
"175 0 OFFCURVE",
"338 16 OFFCURVE",
"460 125 CURVE SMOOTH",
"468 132 OFFCURVE",
"476 132 OFFCURVE",
"485 124 CURVE SMOOTH",
"574 30 OFFCURVE",
"740 0 OFFCURVE",
"922 0 CURVE SMOOTH",
"953 0 LINE",
"1003 62 OFFCURVE",
"1003 125 OFFCURVE",
"953 187 CURVE",
"905 187 LINE SMOOTH",
"822 187 OFFCURVE",
"674 205 OFFCURVE",
"592 234 CURVE SMOOTH",
"582 238 OFFCURVE",
"578 245 OFFCURVE",
"580 256 CURVE",
"605 617 LINE",
"606 628 OFFCURVE",
"601 636 OFFCURVE",
"590 637 CURVE",
"526 641 LINE",
"515 642 OFFCURVE",
"505 636 OFFCURVE",
"504 625 CURVE SMOOTH",
"474 372 LINE SMOOTH",
"452 185 OFFCURVE",
"190 187 OFFCURVE",
"53 187 CURVE SMOOTH",
"0 187 LINE SMOOTH",
"-124 187 OFFCURVE",
"-124 0 OFFCURVE",
"0 0 CURVE SMOOTH"
);
}
);
width = 953;
}
);
},
{
glyphname = "dotlessbeh-ar.init";
lastChange = "2016-02-11 17:42:53 +0000";
layers = (
{
anchors = (
{
name = bottom;
position = "{305, -187}";
},
{
name = top;
position = "{433, 1177}";
}
);
layerId = "93A312F7-B931-4485-B08E-C367313EB5E7";
name = Regular;
paths = (
{
closed = 1;
nodes = (
"410 1 OFFCURVE",
"635 109 OFFCURVE",
"635 406 CURVE SMOOTH",
"635 502 OFFCURVE",
"562 798 OFFCURVE",
"518 982 CURVE",
"515 995 OFFCURVE",
"504 996 OFFCURVE",
"494 986 CURVE SMOOTH",
"386 877 LINE",
"380 870 OFFCURVE",
"378 863 OFFCURVE",
"380 853 CURVE SMOOTH",
"514 293 LINE SMOOTH",
"516 282 OFFCURVE",
"514 275 OFFCURVE",
"503 270 CURVE SMOOTH",
"379 215 OFFCURVE",
"251 187 OFFCURVE",
"0 187 CURVE SMOOTH",
"-124 187 OFFCURVE",
"-124 0 OFFCURVE",
"0 0 CURVE SMOOTH"
);
}
);
width = 779;
}
);
},
{
glyphname = "peh-ar.init";
lastChange = "2016-02-11 17:42:53 +0000";
layers = (
{
anchors = (
{
name = top;
position = "{568, 1210}";
}
);
components = (
{
name = "threedotsdownbelow-ar";
transform = "{1, 0, 0, 1, 26, -25}";
}
);
layerId = "93A312F7-B931-4485-B08E-C367313EB5E7";
name = Regular;
paths = (
{
closed = 1;
nodes = (
"96 0 LINE SMOOTH",
"312 0 OFFCURVE",
"625 95 OFFCURVE",
"655 218 CURVE",
"679 290 OFFCURVE",
"694 377 OFFCURVE",
"694 442 CURVE SMOOTH",
"694 538 OFFCURVE",
"620 834 OFFCURVE",
"577 1018 CURVE",
"574 1031 OFFCURVE",
"563 1032 OFFCURVE",
"553 1022 CURVE SMOOTH",
"445 913 LINE",
"439 906 OFFCURVE",
"437 899 OFFCURVE",
"439 889 CURVE SMOOTH",
"593 332 LINE SMOOTH",
"601 302 OFFCURVE",
"587 294 OFFCURVE",
"568 283 CURVE",
"481 246 OFFCURVE",
"324 187 OFFCURVE",
"96 187 CURVE SMOOTH",
"0 187 LINE SMOOTH",
"-124 187 OFFCURVE",
"-124 0 OFFCURVE",
"0 0 CURVE SMOOTH"
);
}
);
width = 838;
}
);
unicode = FB58;
},
{
glyphname = "hah-ar";
lastChange = "2016-02-11 17:42:53 +0000";
layers = (
{
anchors = (
{
name = bottom;
position = "{840, -1010}";
},
{
name = center;
position = "{852, -97}";
},
{
name = top;
position = "{467, 1087}";
}
);
layerId = "93A312F7-B931-4485-B08E-C367313EB5E7";
name = Regular;
paths = (
{
closed = 1;
nodes = (
"1309 -774 OFFCURVE",
"1368 -737 OFFCURVE",
"1426 -592 CURVE SMOOTH",
"1432 -576 OFFCURVE",
"1416 -564 OFFCURVE",
"1397 -568 CURVE SMOOTH",
"1051 -635 OFFCURVE",
"499 -696 OFFCURVE",
"334 -398 CURVE SMOOTH",
"300 -335 OFFCURVE",
"289 -248 OFFCURVE",
"316 -142 CURVE SMOOTH",
"418 269 OFFCURVE",
"847 518 OFFCURVE",
"1282 524 CURVE SMOOTH",
"1289 524 OFFCURVE",
"1295 529 OFFCURVE",
"1297 535 CURVE",
"1355 710 LINE SMOOTH",
"1360 725 OFFCURVE",
"1349 739 OFFCURVE",
"1332 738 CURVE SMOOTH",
"988 720 OFFCURVE",
"818 814 OFFCURVE",
"641 869 CURVE SMOOTH",
"438 931 OFFCURVE",
"359 911 OFFCURVE",
"202 740 CURVE",
"197 736 OFFCURVE",
"196 730 OFFCURVE",
"197 725 CURVE",
"234 626 LINE SMOOTH",
"240 610 OFFCURVE",
"258 606 OFFCURVE",
"271 619 CURVE SMOOTH",
"392 739 OFFCURVE",
"440 733 OFFCURVE",
"564 695 CURVE SMOOTH",
"829 612 LINE",
"488 497 OFFCURVE",
"185 125 OFFCURVE",
"180 -264 CURVE SMOOTH",
"173 -848 OFFCURVE",
"662 -870 OFFCURVE",
"1103 -805 CURVE SMOOTH"
);
}
);
width = 1500;
}
);
unicode = 062D;
},
{
glyphname = "hah-ar.fina";
lastChange = "2016-02-11 17:42:53 +0000";
layers = (
{
anchors = (
{
name = bottom;
position = "{828, -986}";
},
{
name = center;
position = "{708, -125}";
},
{
name = top;
position = "{472, 1109}";
}
);
layerId = "93A312F7-B931-4485-B08E-C367313EB5E7";
name = Regular;
paths = (
{
closed = 1;
nodes = (
"1309 -750 OFFCURVE",
"1368 -713 OFFCURVE",
"1426 -568 CURVE SMOOTH",
"1432 -552 OFFCURVE",
"1416 -540 OFFCURVE",
"1397 -544 CURVE SMOOTH",
"1051 -611 OFFCURVE",
"499 -672 OFFCURVE",
"334 -374 CURVE SMOOTH",
"300 -311 OFFCURVE",
"289 -224 OFFCURVE",
"316 -118 CURVE SMOOTH",
"374 120 OFFCURVE",
"542 304 OFFCURVE",
"758 416 CURVE",
"846 151 OFFCURVE",
"1020 0 OFFCURVE",
"1272 0 CURVE SMOOTH",
"1337 0 LINE",
"1387 62 OFFCURVE",
"1387 125 OFFCURVE",
"1337 187 CURVE",
"1289 187 LINE SMOOTH",
"1152 187 OFFCURVE",
"947 242 OFFCURVE",
"870 468 CURVE",
"1000 518 OFFCURVE",
"1140 546 OFFCURVE",
"1282 548 CURVE SMOOTH",
"1289 548 OFFCURVE",
"1295 553 OFFCURVE",
"1297 559 CURVE",
"1355 734 LINE SMOOTH",
"1360 749 OFFCURVE",
"1349 763 OFFCURVE",
"1332 762 CURVE SMOOTH",
"988 744 OFFCURVE",
"818 838 OFFCURVE",
"641 893 CURVE SMOOTH",
"438 955 OFFCURVE",
"359 935 OFFCURVE",
"202 764 CURVE",
"197 760 OFFCURVE",
"196 754 OFFCURVE",
"197 749 CURVE",
"234 650 LINE SMOOTH",
"240 634 OFFCURVE",
"258 630 OFFCURVE",
"271 643 CURVE SMOOTH",
"392 763 OFFCURVE",
"440 757 OFFCURVE",
"564 719 CURVE SMOOTH",
"829 636 LINE",
"488 521 OFFCURVE",
"185 149 OFFCURVE",
"180 -240 CURVE SMOOTH",
"173 -824 OFFCURVE",
"662 -846 OFFCURVE",
"1103 -781 CURVE SMOOTH"
);
}
);
width = 1337;
}
);
unicode = FEA2;
},
{
glyphname = "hah-ar.medi";
lastChange = "2016-02-11 17:42:53 +0000";
layers = (
{
anchors = (
{
name = bottom;
position = "{804, -138}";
},
{
name = top;
position = "{539, 1010}";
}
);
layerId = "93A312F7-B931-4485-B08E-C367313EB5E7";
name = Regular;
paths = (
{
closed = 1;
nodes = (
"367 0 OFFCURVE",
"708 152 OFFCURVE",
"1006 264 CURVE SMOOTH",
"1056 283 OFFCURVE",
"1102 299 OFFCURVE",
"1142 311 CURVE",
"1244 148 OFFCURVE",
"1360 0 OFFCURVE",
"1628 0 CURVE SMOOTH",
"1676 0 LINE",
"1727 62 OFFCURVE",
"1727 125 OFFCURVE",
"1676 187 CURVE",
"1628 187 LINE SMOOTH",
"1463 187 OFFCURVE",
"1363 246 OFFCURVE",
"1300 342 CURVE",
"1369 349 OFFCURVE",
"1433 346 OFFCURVE",
"1508 337 CURVE",
"1519 337 OFFCURVE",
"1525 342 OFFCURVE",
"1529 352 CURVE",
"1588 530 LINE",
"1591 544 OFFCURVE",
"1586 551 OFFCURVE",
"1572 551 CURVE",
"1319 539 OFFCURVE",
"1115 629 OFFCURVE",
"889 720 CURVE SMOOTH",
"586 842 OFFCURVE",
"474 905 OFFCURVE",
"280 671 CURVE",
"272 664 OFFCURVE",
"272 656 OFFCURVE",
"275 647 CURVE",
"311 530 LINE SMOOTH",
"314 517 OFFCURVE",
"325 515 OFFCURVE",
"335 526 CURVE SMOOTH",
"416 612 OFFCURVE",
"461 644 OFFCURVE",
"524 644 CURVE SMOOTH",
"650 644 OFFCURVE",
"925 497 OFFCURVE",
"1121 454 CURVE",
"869 384 OFFCURVE",
"458 187 OFFCURVE",
"0 187 CURVE SMOOTH",
"-124 187 OFFCURVE",
"-124 0 OFFCURVE",
"0 0 CURVE SMOOTH"
);
}
);
width = 1676;
}
);
unicode = FEA4;
},
{
glyphname = "hah-ar.init";
lastChange = "2016-02-11 17:42:53 +0000";
layers = (
{
anchors = (
{
name = bottom;
position = "{750, -157}";
},
{
name = top;
position = "{530, 1015}";
}
);
layerId = "93A312F7-B931-4485-B08E-C367313EB5E7";
name = Regular;
paths = (
{
closed = 1;
nodes = (
"355 0 OFFCURVE",
"708 152 OFFCURVE",
"1006 264 CURVE SMOOTH",
"1240 353 OFFCURVE",
"1348 355 OFFCURVE",
"1508 337 CURVE",
"1519 337 OFFCURVE",
"1525 342 OFFCURVE",
"1529 352 CURVE",
"1588 530 LINE",
"1591 544 OFFCURVE",
"1586 551 OFFCURVE",
"1572 551 CURVE",
"1319 539 OFFCURVE",
"1115 629 OFFCURVE",
"889 720 CURVE SMOOTH",
"586 842 OFFCURVE",
"474 905 OFFCURVE",
"280 671 CURVE",
"272 664 OFFCURVE",
"272 656 OFFCURVE",
"275 647 CURVE",
"311 530 LINE SMOOTH",
"314 517 OFFCURVE",
"325 515 OFFCURVE",
"335 526 CURVE SMOOTH",
"416 612 OFFCURVE",
"461 644 OFFCURVE",
"524 644 CURVE SMOOTH",
"650 644 OFFCURVE",
"925 497 OFFCURVE",
"1121 454 CURVE",
"869 384 OFFCURVE",
"458 187 OFFCURVE",
"0 187 CURVE SMOOTH",
"-124 187 OFFCURVE",
"-124 0 OFFCURVE",
"0 0 CURVE SMOOTH"
);
}
);
width = 1733;
}
);
unicode = FEA3;
},
{
glyphname = "dal-ar";
lastChange = "2016-02-11 17:42:53 +0000";
layers = (
{
anchors = (
{
name = bottom;
position = "{536, -240}";
},
{
name = top;
position = "{649, 1208}";
}
);
layerId = "93A312F7-B931-4485-B08E-C367313EB5E7";
name = Regular;
paths = (
{
closed = 1;
nodes = (
"611 -59 OFFCURVE",
"892 -10 OFFCURVE",
"982 55 CURVE SMOOTH",
"1037 95 OFFCURVE",
"1060 161 OFFCURVE",
"1060 239 CURVE SMOOTH",
"1062 449 OFFCURVE",
"983 577 OFFCURVE",
"697 1018 CURVE SMOOTH",
"691 1027 OFFCURVE",
"679 1027 OFFCURVE",
"676 1022 CURVE",
"676 1021 OFFCURVE",
"674 1021 OFFCURVE",
"674 1020 CURVE",
"578 872 LINE",
"574 864 OFFCURVE",
"574 856 OFFCURVE",
"580 846 CURVE",
"886 421 OFFCURVE",
"923 304 OFFCURVE",
"937 224 CURVE",
"782 170 OFFCURVE",
"581 130 OFFCURVE",
"398 151 CURVE SMOOTH",
"318 161 OFFCURVE",
"310 191 OFFCURVE",
"304 322 CURVE",
"302 334 OFFCURVE",
"295 340 OFFCURVE",
"284 340 CURVE SMOOTH",
"204 340 LINE SMOOTH",
"193 340 OFFCURVE",
"187 334 OFFCURVE",
"186 323 CURVE SMOOTH",
"169 125 OFFCURVE",
"163 -59 OFFCURVE",
"467 -59 CURVE SMOOTH"
);
}
);
width = 1204;
}
);
unicode = 062F;
},
{
glyphname = "dal-ar.fina";
lastChange = "2016-02-11 17:42:53 +0000";
layers = (
{
anchors = (
{
name = bottom;
position = "{536, -240}";
},
{
name = top;
position = "{918, 1250}";
}
);
layerId = "93A312F7-B931-4485-B08E-C367313EB5E7";
name = Regular;
paths = (
{
closed = 1;
nodes = (
"611 -59 OFFCURVE",
"865 -10 OFFCURVE",
"955 55 CURVE SMOOTH",
"992 82 OFFCURVE",
"1013 120 OFFCURVE",
"1022 166 CURVE SMOOTH",
"1025 179 OFFCURVE",
"1030 179 OFFCURVE",
"1036 167 CURVE",
"1088 49 OFFCURVE",
"1192 0 OFFCURVE",
"1321 0 CURVE SMOOTH",
"1369 0 LINE",
"1420 62 OFFCURVE",
"1420 125 OFFCURVE",
"1369 187 CURVE",
"1336 187 LINE SMOOTH",
"1124 187 OFFCURVE",
"1073 259 OFFCURVE",
"1026 548 CURVE SMOOTH",
"943 1056 LINE SMOOTH",
"941 1069 OFFCURVE",
"931 1074 OFFCURVE",
"920 1066 CURVE SMOOTH",
"796 971 LINE",
"788 965 OFFCURVE",
"784 959 OFFCURVE",
"786 948 CURVE SMOOTH",
"925 232 LINE SMOOTH",
"928 220 OFFCURVE",
"923 214 OFFCURVE",
"913 210 CURVE",
"760 163 OFFCURVE",
"551 130 OFFCURVE",
"398 151 CURVE SMOOTH",
"319 163 OFFCURVE",
"311 191 OFFCURVE",
"304 322 CURVE",
"302 334 OFFCURVE",
"295 340 OFFCURVE",
"284 340 CURVE SMOOTH",
"204 340 LINE SMOOTH",
"193 340 OFFCURVE",
"187 334 OFFCURVE",
"186 323 CURVE SMOOTH",
"169 125 OFFCURVE",
"163 -59 OFFCURVE",
"467 -59 CURVE SMOOTH"
);
}
);
width = 1369;
}
);
unicode = FEAA;
userData = {
com.typemytype.robofont.guides = (
{
angle = 0;
isGlobal = 0;
x = 2480;
y = "-225";
}
);
};
},
{
glyphname = "reh-ar";
lastChange = "2016-02-11 17:42:54 +0000";
layers = (
{
anchors = (
{
name = bottom;
position = "{312, -678}";
},
{
name = top;
position = "{582, 1008}";
}
);
layerId = "93A312F7-B931-4485-B08E-C367313EB5E7";
name = Regular;
paths = (
{
closed = 1;
nodes = (
"640 -416 OFFCURVE",
"784 -175 OFFCURVE",
"806 48 CURVE SMOOTH",
"821 193 OFFCURVE",
"746 472 OFFCURVE",
"692 701 CURVE SMOOTH",
"689 714 OFFCURVE",
"678 715 OFFCURVE",
"668 706 CURVE SMOOTH",
"560 596 LINE",
"554 589 OFFCURVE",
"552 582 OFFCURVE",
"554 572 CURVE SMOOTH",
"703 49 LINE SMOOTH",
"706 40 OFFCURVE",
"706 34 OFFCURVE",
"702 25 CURVE SMOOTH",
"557 -304 OFFCURVE",
"362 -456 OFFCURVE",
"-42 -367 CURVE SMOOTH",
"-53 -365 OFFCURVE",
"-60 -372 OFFCURVE",
"-64 -383 CURVE SMOOTH",
"-88 -452 LINE",
"-90 -462 OFFCURVE",
"-85 -469 OFFCURVE",
"-74 -473 CURVE SMOOTH",
"173 -556 OFFCURVE",
"346 -581 OFFCURVE",
"492 -499 CURVE SMOOTH"
);
}
);
width = 953;
}
);
unicode = 0631;
userData = {
com.typemytype.robofont.guides = (
{
angle = 0;
isGlobal = 0;
x = "-844";
y = "-463";
}
);
};
},
{
glyphname = "reh-ar.fina";
lastChange = "2016-02-11 17:42:53 +0000";
layers = (
{
anchors = (
{
name = bottom;
position = "{348, -678}";
},
{
name = top;
position = "{672, 894}";
}
);
layerId = "93A312F7-B931-4485-B08E-C367313EB5E7";
name = Regular;
paths = (
{
closed = 1;
nodes = (
"647 -419 OFFCURVE",
"824 -151 OFFCURVE",
"852 108 CURVE",
"916 30 OFFCURVE",
"994 0 OFFCURVE",
"1099 0 CURVE SMOOTH",
"1211 0 LINE",
"1261 62 OFFCURVE",
"1261 125 OFFCURVE",
"1211 187 CURVE",
"1099 187 LINE SMOOTH",
"904 187 OFFCURVE",
"863 270 OFFCURVE",
"799 545 CURVE SMOOTH",
"762 704 LINE SMOOTH",
"758 721 OFFCURVE",
"742 728 OFFCURVE",
"728 716 CURVE SMOOTH",
"624 622 LINE",
"618 617 OFFCURVE",
"617 612 OFFCURVE",
"618 605 CURVE",
"739 103 LINE",
"742 95 OFFCURVE",
"739 88 OFFCURVE",
"737 80 CURVE SMOOTH",
"593 -313 OFFCURVE",
"350 -454 OFFCURVE",
"-42 -367 CURVE SMOOTH",
"-53 -365 OFFCURVE",
"-60 -372 OFFCURVE",
"-64 -383 CURVE SMOOTH",
"-88 -452 LINE",
"-90 -462 OFFCURVE",
"-85 -469 OFFCURVE",
"-74 -473 CURVE SMOOTH",
"173 -556 OFFCURVE",
"343 -577 OFFCURVE",
"492 -499 CURVE SMOOTH"
);
}
);
width = 1211;
}
);
unicode = FEAE;
userData = {
com.typemytype.robofont.guides = (
{
angle = 0;
isGlobal = 0;
x = 618;
y = 606;
}
);
};
},
{
glyphname = "seen-ar";
lastChange = "2016-02-11 17:42:53 +0000";
layers = (
{
anchors = (
{
name = bottom;
position = "{737, -734}";
},
{
name = top;
position = "{774, 744}";
}
);
layerId = "93A312F7-B931-4485-B08E-C367313EB5E7";
name = Regular;
paths = (
{
closed = 1;
nodes = (
"851 -554 OFFCURVE",
"1225 -456 OFFCURVE",
"1350 -283 CURVE SMOOTH",
"1404 -209 OFFCURVE",
"1397 -114 OFFCURVE",
"1385 23 CURVE",
"1499 -28 OFFCURVE",
"1850 -18 OFFCURVE",
"1943 100 CURVE",
"2032 44 OFFCURVE",
"2155 -4 OFFCURVE",
"2264 -6 CURVE SMOOTH",
"2519 -14 OFFCURVE",
"2627 48 OFFCURVE",
"2620 322 CURVE SMOOTH",
"2615 427 OFFCURVE",
"2581 700 OFFCURVE",
"2539 876 CURVE SMOOTH",
"2536 889 OFFCURVE",
"2525 890 OFFCURVE",
"2515 881 CURVE SMOOTH",
"2407 772 LINE",
"2401 764 OFFCURVE",
"2399 757 OFFCURVE",
"2401 748 CURVE SMOOTH",
"2518 222 LINE SMOOTH",
"2521 208 OFFCURVE",
"2510 197 OFFCURVE",
"2497 193 CURVE",
"2332 160 OFFCURVE",
"2189 172 OFFCURVE",
"2044 235 CURVE SMOOTH",
"2038 238 OFFCURVE",
"2033 244 OFFCURVE",
"2034 252 CURVE SMOOTH",
"2075 607 LINE SMOOTH",
"2076 619 OFFCURVE",
"2069 626 OFFCURVE",
"2058 628 CURVE SMOOTH",
"1986 634 LINE",
"1976 635 OFFCURVE",
"1968 629 OFFCURVE",
"1967 618 CURVE SMOOTH",
"1932 362 LINE SMOOTH",
"1912 210 OFFCURVE",
"1778 179 OFFCURVE",
"1613 181 CURVE SMOOTH",
"1464 184 OFFCURVE",
"1367 200 OFFCURVE",
"1350 316 CURVE SMOOTH",
"1310 594 LINE SMOOTH",
"1308 613 OFFCURVE",
"1290 619 OFFCURVE",
"1276 608 CURVE SMOOTH",
"1160 523 LINE SMOOTH",
"1156 520 OFFCURVE",
"1153 514 OFFCURVE",
"1154 508 CURVE",
"1266 -185 LINE SMOOTH",
"1267 -192 OFFCURVE",
"1264 -200 OFFCURVE",
"1256 -203 CURVE",
"1194 -232 OFFCURVE",
"919 -344 OFFCURVE",
"643 -344 CURVE SMOOTH",
"408 -344 OFFCURVE",
"263 -227 OFFCURVE",
"316 64 CURVE SMOOTH",
"352 262 LINE SMOOTH",
"354 274 OFFCURVE",
"346 282 OFFCURVE",
"335 283 CURVE SMOOTH",
"258 294 LINE SMOOTH",
"248 295 OFFCURVE",
"240 290 OFFCURVE",
"238 280 CURVE",
"194 40 LINE SMOOTH",
"139 -266 OFFCURVE",
"230 -554 OFFCURVE",
"614 -554 CURVE SMOOTH"
);
}
);
width = 2764;
}
);
unicode = 0633;
},
{
glyphname = "seen-ar.fina";
lastChange = "2016-02-11 17:42:53 +0000";
layers = (
{
anchors = (
{
name = bottom;
position = "{737, -734}";
},
{
name = top;
position = "{774, 744}";
}
);
layerId = "93A312F7-B931-4485-B08E-C367313EB5E7";
name = Regular;
paths = (
{
closed = 1;
nodes = (
"852 -554 OFFCURVE",
"1226 -456 OFFCURVE",
"1351 -283 CURVE SMOOTH",
"1405 -209 OFFCURVE",
"1398 -115 OFFCURVE",
"1386 22 CURVE",
"1465 0 OFFCURVE",
"1555 -10 OFFCURVE",
"1628 -10 CURVE SMOOTH",
"1763 -8 OFFCURVE",
"1896 29 OFFCURVE",
"1945 91 CURVE",
"2034 36 OFFCURVE",
"2158 -1 OFFCURVE",
"2267 -4 CURVE SMOOTH",
"2438 -10 OFFCURVE",
"2563 17 OFFCURVE",
"2615 120 CURVE SMOOTH",
"2623 136 OFFCURVE",
"2638 138 OFFCURVE",
"2650 124 CURVE SMOOTH",
"2713 43 OFFCURVE",
"2804 0 OFFCURVE",
"2911 0 CURVE SMOOTH",
"2995 0 LINE",
"3046 62 OFFCURVE",
"3046 125 OFFCURVE",
"2995 187 CURVE",
"2911 187 LINE SMOOTH",
"2726 187 OFFCURVE",
"2690 271 OFFCURVE",
"2647 545 CURVE SMOOTH",
"2622 704 LINE SMOOTH",
"2620 721 OFFCURVE",
"2602 727 OFFCURVE",
"2588 716 CURVE SMOOTH",
"2484 634 LINE SMOOTH",
"2478 629 OFFCURVE",
"2477 624 OFFCURVE",
"2478 617 CURVE SMOOTH",
"2544 217 LINE",
"2545 206 OFFCURVE",
"2540 197 OFFCURVE",
"2530 194 CURVE SMOOTH",
"2359 161 OFFCURVE",
"2192 169 OFFCURVE",
"2046 238 CURVE SMOOTH",
"2039 241 OFFCURVE",
"2035 247 OFFCURVE",
"2036 254 CURVE",
"2077 607 LINE SMOOTH",
"2078 619 OFFCURVE",
"2071 626 OFFCURVE",
"2060 628 CURVE SMOOTH",
"1988 634 LINE",
"1979 635 OFFCURVE",
"1970 629 OFFCURVE",
"1969 618 CURVE SMOOTH",
"1934 358 LINE SMOOTH",
"1914 208 OFFCURVE",
"1793 180 OFFCURVE",
"1638 180 CURVE SMOOTH",
"1568 180 OFFCURVE",
"1495 182 OFFCURVE",
"1441 202 CURVE SMOOTH",
"1394 218 OFFCURVE",
"1361 250 OFFCURVE",
"1351 314 CURVE SMOOTH",
"1312 594 LINE SMOOTH",
"1309 613 OFFCURVE",
"1291 619 OFFCURVE",
"1277 608 CURVE SMOOTH",
"1162 523 LINE SMOOTH",
"1157 520 OFFCURVE",
"1154 514 OFFCURVE",
"1156 508 CURVE",
"1267 -185 LINE SMOOTH",
"1268 -192 OFFCURVE",
"1265 -200 OFFCURVE",
"1258 -203 CURVE",
"1195 -232 OFFCURVE",
"920 -344 OFFCURVE",
"644 -344 CURVE SMOOTH",
"409 -344 OFFCURVE",
"260 -226 OFFCURVE",
"317 64 CURVE SMOOTH",
"353 250 LINE SMOOTH",
"355 262 OFFCURVE",
"347 270 OFFCURVE",
"336 271 CURVE SMOOTH",
"259 282 LINE SMOOTH",
"250 283 OFFCURVE",
"241 278 OFFCURVE",
"239 268 CURVE SMOOTH",
"196 40 LINE SMOOTH",
"138 -266 OFFCURVE",
"232 -554 OFFCURVE",
"616 -554 CURVE SMOOTH"
);
}
);
width = 2995;
}
);
unicode = FEB2;
},
{
glyphname = "seen-ar.medi";
lastChange = "2016-02-11 17:42:53 +0000";
layers = (
{
anchors = (
{
name = bottom;
position = "{1188, -204}";
},
{
name = top;
position = "{1046, 912}";
}
);
layerId = "93A312F7-B931-4485-B08E-C367313EB5E7";
name = Regular;
paths = (
{
closed = 1;
nodes = (
"904 -6 OFFCURVE",
"1037 23 OFFCURVE",
"1086 85 CURVE",
"1175 30 OFFCURVE",
"1298 -4 OFFCURVE",
"1408 -6 CURVE SMOOTH",
"1579 -12 OFFCURVE",
"1704 17 OFFCURVE",
"1756 120 CURVE SMOOTH",
"1764 136 OFFCURVE",
"1778 138 OFFCURVE",
"1790 124 CURVE SMOOTH",
"1854 43 OFFCURVE",
"1945 0 OFFCURVE",
"2052 0 CURVE SMOOTH",
"2124 0 LINE",
"2174 62 OFFCURVE",
"2174 125 OFFCURVE",
"2124 187 CURVE",
"2052 187 LINE SMOOTH",
"1854 187 OFFCURVE",
"1811 264 OFFCURVE",
"1788 545 CURVE SMOOTH",
"1775 704 LINE SMOOTH",
"1774 721 OFFCURVE",
"1754 727 OFFCURVE",
"1741 716 CURVE SMOOTH",
"1637 634 LINE SMOOTH",
"1631 629 OFFCURVE",
"1630 624 OFFCURVE",
"1631 617 CURVE SMOOTH",
"1685 217 LINE SMOOTH",
"1686 206 OFFCURVE",
"1681 197 OFFCURVE",
"1670 194 CURVE SMOOTH",
"1500 161 OFFCURVE",
"1333 169 OFFCURVE",
"1187 226 CURVE",
"1180 228 OFFCURVE",
"1176 235 OFFCURVE",
"1177 242 CURVE",
"1218 607 LINE SMOOTH",
"1219 619 OFFCURVE",
"1212 626 OFFCURVE",
"1201 628 CURVE SMOOTH",
"1129 634 LINE",
"1120 635 OFFCURVE",
"1111 629 OFFCURVE",
"1110 618 CURVE SMOOTH",
"1075 346 LINE SMOOTH",
"1056 196 OFFCURVE",
"934 176 OFFCURVE",
"779 176 CURVE SMOOTH",
"694 176 OFFCURVE",
"587 187 OFFCURVE",
"505 211 CURVE",
"498 214 OFFCURVE",
"496 221 OFFCURVE",
"496 228 CURVE",
"526 607 LINE SMOOTH",
"527 619 OFFCURVE",
"520 626 OFFCURVE",
"508 628 CURVE",
"436 631 LINE",
"426 631 OFFCURVE",
"418 626 OFFCURVE",
"416 616 CURVE SMOOTH",
"395 440 LINE SMOOTH",
"368 227 OFFCURVE",
"338 192 OFFCURVE",
"134 188 CURVE SMOOTH",
"0 188 LINE SMOOTH",
"-124 188 OFFCURVE",
"-124 0 OFFCURVE",
"0 0 CURVE SMOOTH",
"118 0 LINE SMOOTH",
"226 0 OFFCURVE",
"329 41 OFFCURVE",
"368 91 CURVE",
"449 1 OFFCURVE",
"636 -7 OFFCURVE",
"769 -7 CURVE SMOOTH"
);
}
);
width = 2124;
}
);
unicode = FEB4;
},
{
glyphname = "seen-ar.init";
lastChange = "2016-02-11 17:42:53 +0000";
layers = (
{
anchors = (
{
name = bottom;
position = "{1194, -204}";
},
{
name = top;
position = "{1052, 912}";
}
);
layerId = "93A312F7-B931-4485-B08E-C367313EB5E7";
name = Regular;
paths = (
{
closed = 1;
nodes = (
"916 -5 OFFCURVE",
"1049 30 OFFCURVE",
"1098 92 CURVE",
"1187 37 OFFCURVE",
"1310 -1 OFFCURVE",
"1420 -4 CURVE SMOOTH",
"1674 -12 OFFCURVE",
"1782 50 OFFCURVE",
"1775 324 CURVE SMOOTH",
"1770 430 OFFCURVE",
"1724 700 OFFCURVE",
"1682 876 CURVE SMOOTH",
"1679 889 OFFCURVE",
"1668 890 OFFCURVE",
"1658 881 CURVE SMOOTH",
"1550 772 LINE",
"1544 764 OFFCURVE",
"1542 757 OFFCURVE",
"1544 748 CURVE SMOOTH",
"1673 224 LINE SMOOTH",
"1676 210 OFFCURVE",
"1666 199 OFFCURVE",
"1652 196 CURVE",
"1487 162 OFFCURVE",
"1344 174 OFFCURVE",
"1199 238 CURVE SMOOTH",
"1193 240 OFFCURVE",
"1188 246 OFFCURVE",
"1189 254 CURVE SMOOTH",
"1230 607 LINE SMOOTH",
"1231 619 OFFCURVE",
"1224 626 OFFCURVE",
"1213 628 CURVE SMOOTH",
"1141 634 LINE",
"1132 635 OFFCURVE",
"1123 629 OFFCURVE",
"1122 618 CURVE SMOOTH",
"1087 359 LINE SMOOTH",
"1068 209 OFFCURVE",
"946 178 OFFCURVE",
"791 178 CURVE SMOOTH",
"706 178 OFFCURVE",
"599 188 OFFCURVE",
"517 224 CURVE",
"510 227 OFFCURVE",
"508 234 OFFCURVE",
"508 241 CURVE",
"538 607 LINE SMOOTH",
"539 619 OFFCURVE",
"532 626 OFFCURVE",
"520 628 CURVE",
"448 631 LINE",
"438 631 OFFCURVE",
"430 626 OFFCURVE",
"428 616 CURVE SMOOTH",
"407 454 LINE SMOOTH",
"378 238 OFFCURVE",
"338 204 OFFCURVE",
"126 191 CURVE",
"0 188 LINE SMOOTH",
"-124 186 OFFCURVE",
"-124 0 OFFCURVE",
"0 0 CURVE SMOOTH",
"130 0 LINE SMOOTH",
"238 0 OFFCURVE",
"341 54 OFFCURVE",
"380 104 CURVE",
"461 14 OFFCURVE",
"648 -6 OFFCURVE",
"781 -6 CURVE SMOOTH"
);
}
);
width = 1919;
}
);
unicode = FEB3;
},
{
glyphname = "sad-ar";
lastChange = "2016-02-11 17:42:54 +0000";
layers = (
{
anchors = (
{
name = bottom;
position = "{738, -734}";
},
{
name = top;
position = "{774, 744}";
}
);
layerId = "93A312F7-B931-4485-B08E-C367313EB5E7";
name = Regular;
paths = (
{
closed = 1;
nodes = (
"853 -554 OFFCURVE",
"1228 -445 OFFCURVE",
"1352 -283 CURVE SMOOTH",
"1403 -217 OFFCURVE",
"1404 -154 OFFCURVE",
"1381 88 CURVE",
"1646 -76 OFFCURVE",
"2381 -37 OFFCURVE",
"2606 181 CURVE",
"2844 450 OFFCURVE",
"2479 812 OFFCURVE",
"2216 815 CURVE SMOOTH",
"2032 816 OFFCURVE",
"1802 743 OFFCURVE",
"1414 265 CURVE",
"1343 325 OFFCURVE",
"1349 437 OFFCURVE",
"1327 602 CURVE SMOOTH",
"1325 622 OFFCURVE",
"1307 628 OFFCURVE",
"1292 617 CURVE SMOOTH",
"1177 532 LINE SMOOTH",
"1172 528 OFFCURVE",
"1170 522 OFFCURVE",
"1171 516 CURVE",
"1268 -185 LINE SMOOTH",
"1270 -192 OFFCURVE",
"1266 -200 OFFCURVE",
"1259 -203 CURVE",
"1172 -244 OFFCURVE",
"970 -344 OFFCURVE",
"646 -344 CURVE SMOOTH",
"398 -344 OFFCURVE",
"265 -227 OFFCURVE",
"318 64 CURVE SMOOTH",
"354 262 LINE SMOOTH",
"356 274 OFFCURVE",
"348 282 OFFCURVE",
"337 283 CURVE SMOOTH",
"260 294 LINE SMOOTH",
"251 295 OFFCURVE",
"242 290 OFFCURVE",
"240 280 CURVE",
"197 40 LINE SMOOTH",
"142 -266 OFFCURVE",
"209 -554 OFFCURVE",
"617 -554 CURVE SMOOTH"
);
},
{
closed = 1;
nodes = (
"1796 564 OFFCURVE",
"1962 632 OFFCURVE",
"2132 632 CURVE SMOOTH",
"2352 632 OFFCURVE",
"2519 424 OFFCURVE",
"2564 334 CURVE",
"2569 323 OFFCURVE",
"2567 316 OFFCURVE",
"2557 310 CURVE SMOOTH",
"2273 139 OFFCURVE",
"1823 139 OFFCURVE",
"1514 224 CURVE"
);
}
);
width = 2827;
}
);
unicode = 0635;
},
{
glyphname = "sad-ar.fina";
lastChange = "2016-02-11 17:42:53 +0000";
layers = (
{
anchors = (
{
name = bottom;
position = "{738, -734}";
},
{
name = top;
position = "{774, 744}";
}
);
layerId = "93A312F7-B931-4485-B08E-C367313EB5E7";
name = Regular;
paths = (
{
closed = 1;
nodes = (
"851 -554 OFFCURVE",
"1214 -456 OFFCURVE",
"1339 -283 CURVE SMOOTH",
"1388 -215 OFFCURVE",
"1400 -157 OFFCURVE",
"1379 64 CURVE",
"1511 14 OFFCURVE",
"1685 -8 OFFCURVE",
"1861 -6 CURVE SMOOTH",
"2086 -5 OFFCURVE",
"2359 35 OFFCURVE",
"2510 96 CURVE SMOOTH",
"2520 100 OFFCURVE",
"2527 98 OFFCURVE",
"2534 90 CURVE",
"2606 12 OFFCURVE",
"2724 0 OFFCURVE",
"2904 0 CURVE SMOOTH",
"2952 0 LINE",
"3002 62 OFFCURVE",
"3002 125 OFFCURVE",
"2952 187 CURVE",
"2904 187 LINE SMOOTH",
"2840 187 OFFCURVE",
"2714 191 OFFCURVE",
"2628 208 CURVE SMOOTH",
"2616 210 OFFCURVE",
"2611 217 OFFCURVE",
"2615 229 CURVE SMOOTH",
"2701 493 OFFCURVE",
"2472 824 OFFCURVE",
"2197 827 CURVE SMOOTH",
"2021 828 OFFCURVE",
"1783 688 OFFCURVE",
"1420 256 CURVE",
"1412 246 OFFCURVE",
"1404 245 OFFCURVE",
"1396 250 CURVE SMOOTH",
"1355 272 OFFCURVE",
"1350 301 OFFCURVE",
"1309 604 CURVE SMOOTH",
"1307 620 OFFCURVE",
"1297 625 OFFCURVE",
"1286 617 CURVE SMOOTH",
"1165 526 LINE",
"1158 520 OFFCURVE",
"1154 514 OFFCURVE",
"1156 503 CURVE",
"1268 -198 LINE",
"1246 -209 OFFCURVE",
"946 -344 OFFCURVE",
"643 -344 CURVE SMOOTH",
"408 -344 OFFCURVE",
"263 -226 OFFCURVE",
"316 64 CURVE SMOOTH",
"352 263 LINE",
"354 274 OFFCURVE",
"348 282 OFFCURVE",
"337 283 CURVE SMOOTH",
"258 294 LINE SMOOTH",
"247 295 OFFCURVE",
"240 292 OFFCURVE",
"238 280 CURVE SMOOTH",
"194 40 LINE SMOOTH",
"139 -266 OFFCURVE",
"230 -554 OFFCURVE",
"614 -554 CURVE SMOOTH"
);
},
{
closed = 1;
nodes = (
"1792 540 OFFCURVE",
"1987 642 OFFCURVE",
"2156 642 CURVE SMOOTH",
"2371 642 OFFCURVE",
"2503 372 OFFCURVE",
"2525 298 CURVE",
"2528 288 OFFCURVE",
"2524 280 OFFCURVE",
"2513 276 CURVE",
"2168 143 OFFCURVE",
"1807 160 OFFCURVE",
"1518 210 CURVE"
);
}
);
width = 2952;
}
);
unicode = FEBA;
},
{
glyphname = "sad-ar.medi";
lastChange = "2016-02-11 17:42:54 +0000";
layers = (
{
anchors = (
{
name = bottom;
position = "{1016, -200}";
},
{
name = top;
position = "{1198, 1007}";
}
);
layerId = "93A312F7-B931-4485-B08E-C367313EB5E7";
name = Regular;
paths = (
{
closed = 1;
nodes = (
"1130 -1 OFFCURVE",
"1406 41 OFFCURVE",
"1556 115 CURVE SMOOTH",
"1564 119 OFFCURVE",
"1571 116 OFFCURVE",
"1578 108 CURVE SMOOTH",
"1650 29 OFFCURVE",
"1766 0 OFFCURVE",
"1946 0 CURVE SMOOTH",
"1994 0 LINE",
"2045 62 OFFCURVE",
"2045 125 OFFCURVE",
"1994 187 CURVE",
"1946 187 LINE SMOOTH",
"1883 187 OFFCURVE",
"1757 191 OFFCURVE",
"1670 208 CURVE SMOOTH",
"1658 210 OFFCURVE",
"1654 217 OFFCURVE",
"1657 229 CURVE SMOOTH",
"1744 493 OFFCURVE",
"1514 824 OFFCURVE",
"1240 827 CURVE SMOOTH",
"1063 828 OFFCURVE",
"826 691 OFFCURVE",
"461 258 CURVE",
"455 250 OFFCURVE",
"446 247 OFFCURVE",
"437 251 CURVE SMOOTH",
"398 266 OFFCURVE",
"401 284 OFFCURVE",
"409 385 CURVE SMOOTH",
"428 608 LINE SMOOTH",
"430 619 OFFCURVE",
"422 628 OFFCURVE",
"412 628 CURVE SMOOTH",
"338 630 LINE SMOOTH",
"328 630 OFFCURVE",
"320 626 OFFCURVE",
"319 614 CURVE SMOOTH",
"288 376 LINE SMOOTH",
"269 247 OFFCURVE",
"240 187 OFFCURVE",
"48 187 CURVE SMOOTH",
"0 187 LINE SMOOTH",
"-124 187 OFFCURVE",
"-124 0 OFFCURVE",
"0 0 CURVE SMOOTH",
"48 0 LINE SMOOTH",
"162 0 OFFCURVE",
"258 32 OFFCURVE",
"323 107 CURVE",
"457 32 OFFCURVE",
"679 -5 OFFCURVE",
"904 -2 CURVE SMOOTH"
);
},
{
closed = 1;
nodes = (
"834 544 OFFCURVE",
"1030 642 OFFCURVE",
"1199 642 CURVE SMOOTH",
"1414 642 OFFCURVE",
"1546 379 OFFCURVE",
"1567 306 CURVE",
"1571 296 OFFCURVE",
"1566 288 OFFCURVE",
"1555 284 CURVE",
"1181 136 OFFCURVE",
"886 156 OFFCURVE",
"560 214 CURVE"
);
}
);
width = 1994;
}
);
unicode = FEBC;
},
{
glyphname = "sad-ar.init";
lastChange = "2016-02-11 17:42:53 +0000";
layers = (
{
anchors = (
{
name = bottom;
position = "{1016, -200}";
},
{
name = top;
position = "{1198, 1007}";
}
);
layerId = "93A312F7-B931-4485-B08E-C367313EB5E7";
name = Regular;
paths = (
{
closed = 1;
nodes = (
"1154 -2 OFFCURVE",
"1468 54 OFFCURVE",
"1642 205 CURVE SMOOTH",
"1865 403 OFFCURVE",
"1606 824 OFFCURVE",
"1264 827 CURVE SMOOTH",
"1086 828 OFFCURVE",
"847 685 OFFCURVE",
"480 247 CURVE",
"474 239 OFFCURVE",
"466 236 OFFCURVE",
"456 240 CURVE",
"398 258 OFFCURVE",
"400 265 OFFCURVE",
"409 380 CURVE SMOOTH",
"428 608 LINE SMOOTH",
"430 619 OFFCURVE",
"422 628 OFFCURVE",
"412 628 CURVE SMOOTH",
"338 630 LINE SMOOTH",
"328 630 OFFCURVE",
"320 626 OFFCURVE",
"319 614 CURVE",
"288 386 LINE SMOOTH",
"270 258 OFFCURVE",
"240 187 OFFCURVE",
"48 187 CURVE SMOOTH",
"0 187 LINE SMOOTH",
"-124 187 OFFCURVE",
"-124 0 OFFCURVE",
"0 0 CURVE SMOOTH",
"48 0 LINE SMOOTH",
"158 0 OFFCURVE",
"252 44 OFFCURVE",
"317 114 CURVE",
"451 29 OFFCURVE",
"652 -8 OFFCURVE",
"860 -6 CURVE SMOOTH"
);
},
{
closed = 1;
nodes = (
"858 539 OFFCURVE",
"1022 629 OFFCURVE",
"1192 629 CURVE SMOOTH",
"1422 629 OFFCURVE",
"1571 434 OFFCURVE",
"1612 358 CURVE",
"1616 347 OFFCURVE",
"1614 340 OFFCURVE",
"1603 334 CURVE SMOOTH",
"1298 167 OFFCURVE",
"853 157 OFFCURVE",
"584 209 CURVE"
);
}
);
width = 1868;
}
);
unicode = FEBB;
},
{
glyphname = "tah-ar";
lastChange = "2016-02-11 17:42:53 +0000";
layers = (
{
anchors = (
{
name = bottom;
position = "{830, -204}";
},
{
name = top;
position = "{1278, 1062}";
}
);
layerId = "93A312F7-B931-4485-B08E-C367313EB5E7";
name = Regular;
paths = (
{
closed = 1;
nodes = (
"754 -32 OFFCURVE",
"1362 -35 OFFCURVE",
"1656 251 CURVE SMOOTH",
"1877 468 OFFCURVE",
"1616 880 OFFCURVE",
"1302 881 CURVE SMOOTH",
"1106 882 OFFCURVE",
"889 728 OFFCURVE",
"688 505 CURVE",
"719 606 OFFCURVE",
"724 720 OFFCURVE",
"719 881 CURVE SMOOTH",
"698 1577 LINE",
"698 1597 OFFCURVE",
"678 1608 OFFCURVE",
"661 1595 CURVE SMOOTH",
"524 1493 LINE",
"521 1490 OFFCURVE",
"517 1486 OFFCURVE",
"517 1480 CURVE",
"580 458 OFFCURVE",
"631 434 OFFCURVE",
"413 204 CURVE SMOOTH",
"409 200 OFFCURVE",
"406 199 OFFCURVE",
"401 199 CURVE",
"203 220 LINE SMOOTH",
"188 221 OFFCURVE",
"176 209 OFFCURVE",
"181 193 CURVE",
"218 37 OFFCURVE",
"257 -5 OFFCURVE",
"394 -12 CURVE SMOOTH"
);
},
{
closed = 1;
nodes = (
"908 578 OFFCURVE",
"1032 676 OFFCURVE",
"1212 676 CURVE SMOOTH",
"1453 676 OFFCURVE",
"1579 473 OFFCURVE",
"1609 385 CURVE SMOOTH",
"1612 378 OFFCURVE",
"1608 370 OFFCURVE",
"1600 366 CURVE",
"1294 212 OFFCURVE",
"901 174 OFFCURVE",
"534 191 CURVE"
);
}
);
width = 1882;
}
);
unicode = 0637;
},
{
glyphname = "tah-ar.fina";
lastChange = "2016-02-11 17:42:53 +0000";
layers = (
{
anchors = (
{
name = bottom;
position = "{830, -204}";
},
{
name = top;
position = "{1278, 1062}";
}
);
layerId = "93A312F7-B931-4485-B08E-C367313EB5E7";
name = Regular;
paths = (
{
closed = 1;
nodes = (
"673 -16 OFFCURVE",
"1103 -20 OFFCURVE",
"1418 101 CURVE",
"1427 103 OFFCURVE",
"1434 102 OFFCURVE",
"1439 97 CURVE SMOOTH",
"1516 18 OFFCURVE",
"1696 0 OFFCURVE",
"1874 0 CURVE SMOOTH",
"1915 0 LINE SMOOTH",
"1920 0 OFFCURVE",
"1924 2 OFFCURVE",
"1927 6 CURVE",
"1972 64 OFFCURVE",
"1972 124 OFFCURVE",
"1927 181 CURVE",
"1924 185 OFFCURVE",
"1920 187 OFFCURVE",
"1915 187 CURVE SMOOTH",
"1874 187 LINE SMOOTH",
"1812 187 OFFCURVE",
"1690 193 OFFCURVE",
"1604 206 CURVE",
"1622 221 OFFCURVE",
"1640 235 OFFCURVE",
"1656 251 CURVE SMOOTH",
"1877 468 OFFCURVE",
"1616 859 OFFCURVE",
"1302 881 CURVE SMOOTH",
"1106 894 OFFCURVE",
"889 740 OFFCURVE",
"688 517 CURVE",
"719 618 OFFCURVE",
"725 732 OFFCURVE",
"719 893 CURVE SMOOTH",
"694 1585 LINE SMOOTH",
"692 1604 OFFCURVE",
"673 1614 OFFCURVE",
"658 1603 CURVE SMOOTH",
"521 1507 LINE",
"516 1505 OFFCURVE",
"514 1499 OFFCURVE",
"514 1494 CURVE",
"577 455 OFFCURVE",
"624 438 OFFCURVE",
"413 216 CURVE SMOOTH",
"409 212 OFFCURVE",
"406 211 OFFCURVE",
"401 211 CURVE",
"203 232 LINE SMOOTH",
"188 233 OFFCURVE",
"176 221 OFFCURVE",
"181 205 CURVE",
"218 49 OFFCURVE",
"257 7 OFFCURVE",
"394 0 CURVE SMOOTH"
);
},
{
closed = 1;
nodes = (
"908 590 OFFCURVE",
"1032 688 OFFCURVE",
"1212 676 CURVE SMOOTH",
"1453 660 OFFCURVE",
"1579 470 OFFCURVE",
"1609 385 CURVE SMOOTH",
"1612 378 OFFCURVE",
"1608 370 OFFCURVE",
"1600 366 CURVE",
"1294 212 OFFCURVE",
"901 186 OFFCURVE",
"534 203 CURVE"
);
}
);
width = 1922;
}
);
unicode = FEC2;
},
{
glyphname = "tah-ar.medi";
lastChange = "2016-02-11 17:42:53 +0000";
layers = (
{
anchors = (
{
name = bottom;
position = "{720, -180}";
},
{
name = top;
position = "{1145, 1061}";
}
);
layerId = "93A312F7-B931-4485-B08E-C367313EB5E7";
name = Regular;
paths = (
{
closed = 1;
nodes = (
"667 -5 OFFCURVE",
"1009 1 OFFCURVE",
"1271 100 CURVE",
"1278 102 OFFCURVE",
"1284 100 OFFCURVE",
"1289 95 CURVE SMOOTH",
"1367 17 OFFCURVE",
"1544 0 OFFCURVE",
"1723 0 CURVE SMOOTH",
"1771 0 LINE",
"1822 62 OFFCURVE",
"1822 125 OFFCURVE",
"1771 187 CURVE",
"1723 187 LINE SMOOTH",
"1664 187 OFFCURVE",
"1552 193 OFFCURVE",
"1468 205 CURVE",
"1487 220 OFFCURVE",
"1505 234 OFFCURVE",
"1522 251 CURVE SMOOTH",
"1742 468 OFFCURVE",
"1482 880 OFFCURVE",
"1168 881 CURVE SMOOTH",
"972 882 OFFCURVE",
"755 728 OFFCURVE",
"553 505 CURVE",
"584 606 OFFCURVE",
"589 720 OFFCURVE",
"584 881 CURVE SMOOTH",
"564 1580 LINE",
"564 1600 OFFCURVE",
"545 1610 OFFCURVE",
"528 1598 CURVE SMOOTH",
"400 1502 LINE SMOOTH",
"395 1499 OFFCURVE",
"392 1494 OFFCURVE",
"392 1489 CURVE",
"432 479 OFFCURVE",
"490 442 OFFCURVE",
"252 192 CURVE SMOOTH",
"248 188 OFFCURVE",
"245 187 OFFCURVE",
"241 187 CURVE SMOOTH",
"0 187 LINE SMOOTH",
"-124 187 OFFCURVE",
"-124 0 OFFCURVE",
"0 0 CURVE SMOOTH",
"384 -1 LINE SMOOTH"
);
},
{
closed = 1;
nodes = (
"774 578 OFFCURVE",
"898 676 OFFCURVE",
"1078 676 CURVE SMOOTH",
"1319 676 OFFCURVE",
"1445 473 OFFCURVE",
"1475 385 CURVE SMOOTH",
"1477 378 OFFCURVE",
"1474 370 OFFCURVE",
"1465 366 CURVE",
"1128 199 OFFCURVE",
"767 198 OFFCURVE",
"400 191 CURVE"
);
}
);
width = 1771;
}
);
unicode = FEC4;
},
{
glyphname = "tah-ar.init";
lastChange = "2016-02-11 17:42:53 +0000";
layers = (
{
anchors = (
{
name = bottom;
position = "{720, -180}";
},
{
name = top;
position = "{1145, 1061}";
}
);
layerId = "93A312F7-B931-4485-B08E-C367313EB5E7";
name = Regular;
paths = (
{
closed = 1;
nodes = (
"384 0 LINE SMOOTH",
"772 0 OFFCURVE",
"1270 6 OFFCURVE",
"1522 251 CURVE SMOOTH",
"1742 468 OFFCURVE",
"1482 880 OFFCURVE",
"1168 881 CURVE SMOOTH",
"972 882 OFFCURVE",
"755 728 OFFCURVE",
"553 505 CURVE",
"584 606 OFFCURVE",
"589 720 OFFCURVE",
"584 881 CURVE SMOOTH",
"564 1580 LINE",
"564 1600 OFFCURVE",
"545 1610 OFFCURVE",
"528 1598 CURVE SMOOTH",
"403 1508 LINE SMOOTH",
"398 1505 OFFCURVE",
"396 1500 OFFCURVE",
"396 1495 CURVE SMOOTH",
"430 472 OFFCURVE",
"474 427 OFFCURVE",
"252 192 CURVE SMOOTH",
"248 188 OFFCURVE",
"245 187 OFFCURVE",
"241 187 CURVE SMOOTH",
"0 187 LINE SMOOTH",
"-124 187 OFFCURVE",
"-124 0 OFFCURVE",
"0 0 CURVE SMOOTH"
);
},
{
closed = 1;
nodes = (
"774 578 OFFCURVE",
"898 676 OFFCURVE",
"1078 676 CURVE SMOOTH",
"1319 676 OFFCURVE",
"1445 473 OFFCURVE",
"1475 385 CURVE SMOOTH",
"1477 378 OFFCURVE",
"1474 370 OFFCURVE",
"1465 366 CURVE",
"1128 199 OFFCURVE",
"767 198 OFFCURVE",
"400 191 CURVE"
);
}
);
width = 1747;
}
);
unicode = FEC3;
},
{
glyphname = "ain-ar";
lastChange = "2016-02-11 17:42:53 +0000";
layers = (
{
anchors = (
{
name = bottom;
position = "{890, -1036}";
},
{
name = top;
position = "{618, 1416}";
}
);
layerId = "93A312F7-B931-4485-B08E-C367313EB5E7";
name = Regular;
paths = (
{
closed = 1;
nodes = (
"1064 -853 OFFCURVE",
"1272 -824 OFFCURVE",
"1430 -788 CURVE",
"1447 -784 OFFCURVE",
"1452 -772 OFFCURVE",
"1459 -745 CURVE SMOOTH",
"1493 -614 LINE SMOOTH",
"1496 -601 OFFCURVE",
"1490 -594 OFFCURVE",
"1476 -596 CURVE SMOOTH",
"1308 -620 OFFCURVE",
"1081 -646 OFFCURVE",
"877 -628 CURVE SMOOTH",
"637 -606 OFFCURVE",
"427 -526 OFFCURVE",
"374 -313 CURVE",
"305 118 OFFCURVE",
"768 415 OFFCURVE",
"1171 510 CURVE",
"1181 514 OFFCURVE",
"1184 521 OFFCURVE",
"1186 530 CURVE",
"1200 694 LINE SMOOTH",
"1201 708 OFFCURVE",
"1192 713 OFFCURVE",
"1180 709 CURVE SMOOTH",
"983 649 OFFCURVE",
"844 586 OFFCURVE",
"667 502 CURVE SMOOTH",
"630 484 OFFCURVE",
"598 480 OFFCURVE",
"566 510 CURVE",
"436 617 OFFCURVE",
"334 749 OFFCURVE",
"316 895 CURVE",
"316 905 OFFCURVE",
"317 910 OFFCURVE",
"324 918 CURVE",
"467 1055 OFFCURVE",
"654 1086 OFFCURVE",
"913 1002 CURVE SMOOTH",
"925 998 OFFCURVE",
"937 1006 OFFCURVE",
"934 1018 CURVE",
"900 1150 LINE SMOOTH",
"898 1160 OFFCURVE",
"898 1165 OFFCURVE",
"887 1170 CURVE",
"565 1328 OFFCURVE",
"167 1169 OFFCURVE",
"180 830 CURVE",
"193 655 OFFCURVE",
"295 509 OFFCURVE",
"469 353 CURVE",
"341 204 OFFCURVE",
"272 16 OFFCURVE",
"253 -186 CURVE SMOOTH",
"204 -706 OFFCURVE",
"548 -862 OFFCURVE",
"926 -856 CURVE SMOOTH"
);
}
);
width = 1345;
}
);
unicode = 0639;
},
{
glyphname = "ain-ar.fina";
lastChange = "2016-02-11 17:42:53 +0000";
layers = (
{
anchors = (
{
name = bottom;
position = "{833, -942}";
},
{
name = top;
position = "{750, 1345}";
}
);
layerId = "93A312F7-B931-4485-B08E-C367313EB5E7";
name = Regular;
paths = (
{
closed = 1;
nodes = (
"995 -757 OFFCURVE",
"1202 -728 OFFCURVE",
"1361 -692 CURVE",
"1378 -688 OFFCURVE",
"1382 -676 OFFCURVE",
"1390 -649 CURVE SMOOTH",
"1423 -518 LINE SMOOTH",
"1427 -505 OFFCURVE",
"1421 -498 OFFCURVE",
"1406 -500 CURVE SMOOTH",
"961 -560 OFFCURVE",
"403 -611 OFFCURVE",
"305 -217 CURVE",
"296 -172 OFFCURVE",
"295 -152 OFFCURVE",
"300 -115 CURVE SMOOTH",
"325 64 OFFCURVE",
"478 235 OFFCURVE",
"653 344 CURVE",
"662 352 OFFCURVE",
"670 349 OFFCURVE",
"678 340 CURVE SMOOTH",
"964 11 OFFCURVE",
"1152 0 OFFCURVE",
"1331 0 CURVE SMOOTH",
"1358 0 LINE",
"1409 62 OFFCURVE",
"1409 125 OFFCURVE",
"1358 187 CURVE",
"1325 187 LINE SMOOTH",
"1064 187 OFFCURVE",
"937 304 OFFCURVE",
"809 438 CURVE SMOOTH",
"799 448 OFFCURVE",
"802 456 OFFCURVE",
"811 463 CURVE",
"970 569 OFFCURVE",
"1218 680 OFFCURVE",
"1229 847 CURVE SMOOTH",
"1244 1057 OFFCURVE",
"973 1162 OFFCURVE",
"748 1160 CURVE SMOOTH",
"593 1159 OFFCURVE",
"396 1097 OFFCURVE",
"284 1048 CURVE SMOOTH",
"276 1044 OFFCURVE",
"272 1038 OFFCURVE",
"269 1030 CURVE SMOOTH",
"182 815 LINE",
"178 804 OFFCURVE",
"182 798 OFFCURVE",
"192 792 CURVE",
"326 698 OFFCURVE",
"438 610 OFFCURVE",
"550 506 CURVE",
"559 497 OFFCURVE",
"558 488 OFFCURVE",
"548 481 CURVE SMOOTH",
"408 373 OFFCURVE",
"192 148 OFFCURVE",
"184 -162 CURVE SMOOTH",
"170 -634 OFFCURVE",
"479 -766 OFFCURVE",
"857 -760 CURVE SMOOTH"
);
},
{
closed = 1;
nodes = (
"700 589 OFFCURVE",
"691 590 OFFCURVE",
"684 599 CURVE",
"515 770 OFFCURVE",
"367 884 OFFCURVE",
"353 894 CURVE",
"353 894 OFFCURVE",
"362 899 OFFCURVE",
"377 904 CURVE",
"589 985 OFFCURVE",
"935 1036 OFFCURVE",
"1104 840 CURVE",
"1111 830 OFFCURVE",
"1110 821 OFFCURVE",
"1099 815 CURVE SMOOTH",
"709 594 LINE"
);
}
);
width = 1358;
}
);
unicode = FECA;
},
{
glyphname = "ain-ar.medi";
lastChange = "2016-02-11 17:42:53 +0000";
layers = (
{
anchors = (
{
name = bottom;
position = "{636, -180}";
},
{
name = top;
position = "{686, 1076}";
}
);
layerId = "93A312F7-B931-4485-B08E-C367313EB5E7";
name = Regular;
paths = (
{
closed = 1;
nodes = (
"48 0 LINE SMOOTH",
"228 0 OFFCURVE",
"463 19 OFFCURVE",
"629 125 CURVE SMOOTH",
"638 131 OFFCURVE",
"646 130 OFFCURVE",
"654 124 CURVE",
"805 25 OFFCURVE",
"1024 0 OFFCURVE",
"1224 0 CURVE SMOOTH",
"1272 0 LINE",
"1322 62 OFFCURVE",
"1322 125 OFFCURVE",
"1272 187 CURVE",
"1224 187 LINE SMOOTH",
"1103 187 OFFCURVE",
"905 198 OFFCURVE",
"828 218 CURVE SMOOTH",
"811 223 OFFCURVE",
"809 233 OFFCURVE",
"821 241 CURVE SMOOTH",
"949 331 OFFCURVE",
"1141 466 OFFCURVE",
"1140 581 CURVE SMOOTH",
"1139 794 OFFCURVE",
"877 895 OFFCURVE",
"686 894 CURVE SMOOTH",
"532 893 OFFCURVE",
"335 826 OFFCURVE",
"223 776 CURVE SMOOTH",
"215 773 OFFCURVE",
"210 767 OFFCURVE",
"208 758 CURVE",
"133 536 LINE SMOOTH",
"130 526 OFFCURVE",
"133 517 OFFCURVE",
"143 512 CURVE SMOOTH",
"260 450 OFFCURVE",
"391 362 OFFCURVE",
"514 256 CURVE SMOOTH",
"524 246 OFFCURVE",
"522 235 OFFCURVE",
"509 232 CURVE SMOOTH",
"380 200 OFFCURVE",
"206 187 OFFCURVE",
"48 187 CURVE SMOOTH",
"0 187 LINE SMOOTH",
"-124 187 OFFCURVE",
"-124 0 OFFCURVE",
"0 0 CURVE SMOOTH"
);
},
{
closed = 1;
nodes = (
"660 302 OFFCURVE",
"653 305 OFFCURVE",
"644 314 CURVE",
"494 474 OFFCURVE",
"298 598 OFFCURVE",
"280 610 CURVE",
"280 611 OFFCURVE",
"289 616 OFFCURVE",
"302 620 CURVE SMOOTH",
"402 660 OFFCURVE",
"550 709 OFFCURVE",
"667 708 CURVE SMOOTH",
"768 707 OFFCURVE",
"937 666 OFFCURVE",
"1013 580 CURVE",
"1020 570 OFFCURVE",
"1018 562 OFFCURVE",
"1008 554 CURVE SMOOTH",
"670 310 LINE SMOOTH"
);
}
);
width = 1272;
}
);
unicode = FECC;
},
{
glyphname = "ain-ar.init";
lastChange = "2016-02-11 17:42:53 +0000";
layers = (
{
anchors = (
{
name = bottom;
position = "{629, -168}";
},
{
name = top;
position = "{617, 1207}";
}
);
layerId = "93A312F7-B931-4485-B08E-C367313EB5E7";
name = Regular;
paths = (
{
closed = 1;
nodes = (
"48 0 LINE SMOOTH",
"474 0 OFFCURVE",
"722 67 OFFCURVE",
"1150 220 CURVE SMOOTH",
"1159 223 OFFCURVE",
"1164 229 OFFCURVE",
"1166 239 CURVE SMOOTH",
"1201 400 LINE SMOOTH",
"1204 413 OFFCURVE",
"1183 422 OFFCURVE",
"1170 416 CURVE SMOOTH",
"988 338 OFFCURVE",
"806 278 OFFCURVE",
"619 240 CURVE SMOOTH",
"599 235 OFFCURVE",
"583 239 OFFCURVE",
"571 254 CURVE SMOOTH",
"442 420 OFFCURVE",
"376 559 OFFCURVE",
"340 713 CURVE SMOOTH",
"337 724 OFFCURVE",
"337 732 OFFCURVE",
"347 738 CURVE SMOOTH",
"522 856 OFFCURVE",
"728 854 OFFCURVE",
"947 764 CURVE SMOOTH",
"959 760 OFFCURVE",
"970 766 OFFCURVE",
"968 778 CURVE",
"949 910 LINE SMOOTH",
"948 920 OFFCURVE",
"948 926 OFFCURVE",
"938 931 CURVE",
"634 1110 OFFCURVE",
"222 1006 OFFCURVE",
"199 667 CURVE",
"197 542 OFFCURVE",
"258 392 OFFCURVE",
"390 203 CURVE",
"269 186 OFFCURVE",
"139 187 OFFCURVE",
"48 187 CURVE SMOOTH",
"0 187 LINE SMOOTH",
"-124 187 OFFCURVE",
"-124 0 OFFCURVE",
"0 0 CURVE SMOOTH"
);
}
);
width = 1345;
}
);
unicode = FECB;
},
{
glyphname = "dotlessfeh-ar";
lastChange = "2016-02-11 17:42:53 +0000";
layers = (
{
anchors = (
{
name = bottom;
position = "{884, -226}";
},
{
name = top;
position = "{1409, 1349}";
}
);
layerId = "93A312F7-B931-4485-B08E-C367313EB5E7";
name = Regular;
paths = (
{
closed = 1;
nodes = (
"941 -49 OFFCURVE",
"1228 1 OFFCURVE",
"1441 56 CURVE SMOOTH",
"1762 140 OFFCURVE",
"1782 353 OFFCURVE",
"1782 528 CURVE",
"1764 835 OFFCURVE",
"1612 1164 OFFCURVE",
"1414 1164 CURVE SMOOTH",
"1172 1164 OFFCURVE",
"1055 868 OFFCURVE",
"1055 620 CURVE SMOOTH",
"1055 301 OFFCURVE",
"1442 336 OFFCURVE",
"1631 427 CURVE SMOOTH",
"1648 436 OFFCURVE",
"1663 426 OFFCURVE",
"1664 407 CURVE SMOOTH",
"1668 308 LINE",
"1538 246 OFFCURVE",
"1128 144 OFFCURVE",
"782 150 CURVE SMOOTH",
"500 155 OFFCURVE",
"269 233 OFFCURVE",
"292 474 CURVE SMOOTH",
"306 622 LINE SMOOTH",
"307 632 OFFCURVE",
"300 640 OFFCURVE",
"289 641 CURVE SMOOTH",
"223 647 LINE SMOOTH",
"212 648 OFFCURVE",
"204 641 OFFCURVE",
"203 630 CURVE SMOOTH",
"186 474 LINE SMOOTH",
"145 110 OFFCURVE",
"314 -32 OFFCURVE",
"695 -43 CURVE SMOOTH"
);
},
{
closed = 1;
nodes = (
"1178 583 OFFCURVE",
"1160 599 OFFCURVE",
"1160 605 CURVE SMOOTH",
"1163 806 OFFCURVE",
"1238 965 OFFCURVE",
"1372 965 CURVE SMOOTH",
"1490 965 OFFCURVE",
"1610 775 OFFCURVE",
"1646 582 CURVE",
"1649 574 OFFCURVE",
"1390 509 OFFCURVE",
"1213 571 CURVE SMOOTH"
);
}
);
width = 1926;
}
);
unicode = 06A1;
},
{
glyphname = "dotlessfeh-ar.fina";
lastChange = "2016-02-11 17:42:54 +0000";
layers = (
{
anchors = (
{
name = bottom;
position = "{884, -240}";
},
{
name = top;
position = "{1704, 1225}";
}
);
layerId = "93A312F7-B931-4485-B08E-C367313EB5E7";
name = Regular;
paths = (
{
closed = 1;
nodes = (
"991 -60 OFFCURVE",
"1346 2 OFFCURVE",
"1582 90 CURVE SMOOTH",
"1589 92 OFFCURVE",
"1595 92 OFFCURVE",
"1603 89 CURVE",
"1740 37 OFFCURVE",
"1924 0 OFFCURVE",
"2119 0 CURVE SMOOTH",
"2167 0 LINE",
"2218 62 OFFCURVE",
"2218 125 OFFCURVE",
"2167 187 CURVE",
"2119 187 LINE SMOOTH",
"1996 187 OFFCURVE",
"1848 198 OFFCURVE",
"1848 198 CURVE SMOOTH",
"1848 198 OFFCURVE",
"1999 438 OFFCURVE",
"1999 550 CURVE SMOOTH",
"2000 846 OFFCURVE",
"1820 1043 OFFCURVE",
"1704 1045 CURVE SMOOTH",
"1501 1050 OFFCURVE",
"1307 730 OFFCURVE",
"1309 445 CURVE SMOOTH",
"1310 359 OFFCURVE",
"1325 287 OFFCURVE",
"1363 205 CURVE",
"1195 172 OFFCURVE",
"964 137 OFFCURVE",
"782 140 CURVE SMOOTH",
"500 145 OFFCURVE",
"269 223 OFFCURVE",
"292 464 CURVE SMOOTH",
"306 660 LINE",
"307 671 OFFCURVE",
"300 678 OFFCURVE",
"289 679 CURVE SMOOTH",
"223 685 LINE SMOOTH",
"212 686 OFFCURVE",
"205 679 OFFCURVE",
"204 668 CURVE SMOOTH",
"186 464 LINE SMOOTH",
"145 101 OFFCURVE",
"314 -43 OFFCURVE",
"695 -53 CURVE SMOOTH"
);
},
{
closed = 1;
nodes = (
"1510 295 OFFCURVE",
"1400 385 OFFCURVE",
"1412 529 CURVE SMOOTH",
"1422 642 OFFCURVE",
"1548 824 OFFCURVE",
"1662 824 CURVE SMOOTH",
"1807 824 OFFCURVE",
"1878 546 OFFCURVE",
"1892 484 CURVE",
"1894 474 OFFCURVE",
"1892 467 OFFCURVE",
"1888 460 CURVE SMOOTH",
"1835 379 OFFCURVE",
"1771 307 OFFCURVE",
"1693 247 CURVE",
"1686 241 OFFCURVE",
"1679 240 OFFCURVE",
"1669 244 CURVE"
);
}
);
width = 2167;
}
);
},
{
glyphname = "dotlessfeh-ar.medi";
lastChange = "2016-02-11 17:42:53 +0000";
layers = (
{
anchors = (
{
name = bottom;
position = "{512, -181}";
},
{
name = top;
position = "{625, 1225}";
}
);
layerId = "93A312F7-B931-4485-B08E-C367313EB5E7";
name = Regular;
paths = (
{
closed = 1;
nodes = (
"48 0 LINE SMOOTH",
"258 0 OFFCURVE",
"401 37 OFFCURVE",
"512 94 CURVE",
"650 40 OFFCURVE",
"839 0 OFFCURVE",
"1040 0 CURVE SMOOTH",
"1088 0 LINE",
"1139 62 OFFCURVE",
"1139 125 OFFCURVE",
"1088 187 CURVE",
"1040 187 LINE SMOOTH",
"917 187 OFFCURVE",
"769 198 OFFCURVE",
"769 198 CURVE",
"823 271 OFFCURVE",
"914 406 OFFCURVE",
"916 545 CURVE SMOOTH",
"918 785 OFFCURVE",
"794 1042 OFFCURVE",
"625 1045 CURVE SMOOTH",
"422 1050 OFFCURVE",
"227 730 OFFCURVE",
"230 445 CURVE SMOOTH",
"232 335 OFFCURVE",
"264 259 OFFCURVE",
"302 202 CURVE",
"252 196 OFFCURVE",
"140 187 OFFCURVE",
"48 187 CURVE SMOOTH",
"0 187 LINE SMOOTH",
"-124 187 OFFCURVE",
"-124 0 OFFCURVE",
"0 0 CURVE SMOOTH"
);
},
{
closed = 1;
nodes = (
"432 294 OFFCURVE",
"322 384 OFFCURVE",
"334 529 CURVE SMOOTH",
"343 642 OFFCURVE",
"469 824 OFFCURVE",
"583 824 CURVE SMOOTH",
"732 824 OFFCURVE",
"811 533 OFFCURVE",
"824 479 CURVE SMOOTH",
"826 474 OFFCURVE",
"824 469 OFFCURVE",
"821 464 CURVE SMOOTH",
"755 377 OFFCURVE",
"684 305 OFFCURVE",
"611 246 CURVE",
"607 241 OFFCURVE",
"600 240 OFFCURVE",
"594 242 CURVE"
);
}
);
width = 1088;
}
);
},
{
glyphname = "dotlessfeh-ar.init";
lastChange = "2016-02-11 17:42:54 +0000";
layers = (
{
anchors = (
{
name = bottom;
position = "{416, -180}";
},
{
name = top;
position = "{522, 1358}";
}
);
layerId = "93A312F7-B931-4485-B08E-C367313EB5E7";
name = Regular;
paths = (
{
closed = 1;
nodes = (
"48 0 LINE SMOOTH",
"232 0 OFFCURVE",
"376 -4 OFFCURVE",
"551 36 CURVE SMOOTH",
"881 112 OFFCURVE",
"905 304 OFFCURVE",
"890 542 CURVE SMOOTH",
"872 850 OFFCURVE",
"720 1178 OFFCURVE",
"522 1178 CURVE SMOOTH",
"281 1178 OFFCURVE",
"163 882 OFFCURVE",
"163 635 CURVE SMOOTH",
"163 316 OFFCURVE",
"556 350 OFFCURVE",
"744 442 CURVE SMOOTH",
"761 450 OFFCURVE",
"778 440 OFFCURVE",
"778 421 CURVE SMOOTH",
"776 296 LINE SMOOTH",
"776 290 OFFCURVE",
"773 284 OFFCURVE",
"767 281 CURVE",
"521 180 OFFCURVE",
"109 187 OFFCURVE",
"48 187 CURVE SMOOTH",
"0 187 LINE SMOOTH",
"-124 187 OFFCURVE",
"-124 0 OFFCURVE",
"0 0 CURVE SMOOTH"
);
},
{
closed = 1;
nodes = (
"287 598 OFFCURVE",
"269 613 OFFCURVE",
"269 619 CURVE SMOOTH",
"271 821 OFFCURVE",
"347 979 OFFCURVE",
"480 979 CURVE SMOOTH",
"599 979 OFFCURVE",
"719 790 OFFCURVE",
"755 596 CURVE",
"757 588 OFFCURVE",
"498 523 OFFCURVE",
"322 586 CURVE SMOOTH"
);
}
);
width = 1038;
}
);
},
{
glyphname = "dotlessqaf-ar";
lastChange = "2016-02-11 17:42:53 +0000";
layers = (
{
anchors = (
{
name = bottom;
position = "{799, -732}";
},
{
name = top;
position = "{1158, 1016}";
}
);
layerId = "93A312F7-B931-4485-B08E-C367313EB5E7";
name = Regular;
paths = (
{
closed = 1;
nodes = (
"850 -552 OFFCURVE",
"1351 -486 OFFCURVE",
"1492 -281 CURVE SMOOTH",
"1548 -199 OFFCURVE",
"1553 -86 OFFCURVE",
"1558 60 CURVE SMOOTH",
"1568 403 OFFCURVE",
"1398 836 OFFCURVE",
"1157 836 CURVE SMOOTH",
"916 836 OFFCURVE",
"774 492 OFFCURVE",
"774 245 CURVE SMOOTH",
"774 -131 OFFCURVE",
"1183 -86 OFFCURVE",
"1402 25 CURVE",
"1414 32 OFFCURVE",
"1423 26 OFFCURVE",
"1422 12 CURVE",
"1412 -198 LINE",
"1412 -208 OFFCURVE",
"1406 -214 OFFCURVE",
"1397 -217 CURVE SMOOTH",
"1328 -242 OFFCURVE",
"1028 -342 OFFCURVE",
"668 -342 CURVE SMOOTH",
"455 -342 OFFCURVE",
"295 -244 OFFCURVE",
"307 -8 CURVE SMOOTH",
"308 14 OFFCURVE",
"312 38 OFFCURVE",
"358 287 CURVE SMOOTH",
"360 299 OFFCURVE",
"354 307 OFFCURVE",
"343 310 CURVE SMOOTH",
"262 326 LINE SMOOTH",
"251 329 OFFCURVE",
"242 323 OFFCURVE",
"240 312 CURVE",
"196 42 LINE",
"134 -263 OFFCURVE",
"256 -552 OFFCURVE",
"640 -552 CURVE SMOOTH"
);
},
{
closed = 1;
nodes = (
"1226 137 OFFCURVE",
"1056 121 OFFCURVE",
"916 185 CURVE",
"907 190 OFFCURVE",
"904 196 OFFCURVE",
"902 205 CURVE",
"892 386 OFFCURVE",
"959 637 OFFCURVE",
"1115 637 CURVE SMOOTH",
"1252 637 OFFCURVE",
"1394 413 OFFCURVE",
"1412 197 CURVE SMOOTH",
"1414 186 OFFCURVE",
"1408 179 OFFCURVE",
"1397 176 CURVE SMOOTH"
);
}
);
width = 1702;
}
);
unicode = 066F;
},
{
glyphname = "dotlessqaf-ar.fina";
lastChange = "2016-02-11 17:42:53 +0000";
layers = (
{
anchors = (
{
name = bottom;
position = "{799, -732}";
},
{
name = top;
position = "{1158, 1016}";
}
);
layerId = "93A312F7-B931-4485-B08E-C367313EB5E7";
name = Regular;
paths = (
{
closed = 1;
nodes = (
"850 -553 OFFCURVE",
"1351 -487 OFFCURVE",
"1492 -282 CURVE SMOOTH",
"1541 -211 OFFCURVE",
"1552 -118 OFFCURVE",
"1556 0 CURVE",
"1734 0 LINE",
"1784 62 OFFCURVE",
"1784 125 OFFCURVE",
"1734 187 CURVE",
"1554 187 LINE",
"1526 500 OFFCURVE",
"1369 835 OFFCURVE",
"1157 835 CURVE SMOOTH",
"916 835 OFFCURVE",
"750 515 OFFCURVE",
"750 268 CURVE SMOOTH",
"750 -72 OFFCURVE",
"1151 -43 OFFCURVE",
"1399 4 CURVE SMOOTH",
"1412 6 OFFCURVE",
"1418 -1 OFFCURVE",
"1418 -13 CURVE",
"1411 -198 LINE",
"1411 -208 OFFCURVE",
"1406 -215 OFFCURVE",
"1397 -218 CURVE SMOOTH",
"1328 -244 OFFCURVE",
"1028 -343 OFFCURVE",
"668 -343 CURVE SMOOTH",
"455 -343 OFFCURVE",
"295 -245 OFFCURVE",
"307 -10 CURVE SMOOTH",
"308 13 OFFCURVE",
"313 37 OFFCURVE",
"359 286 CURVE SMOOTH",
"361 298 OFFCURVE",
"355 306 OFFCURVE",
"344 308 CURVE SMOOTH",
"263 325 LINE SMOOTH",
"252 328 OFFCURVE",
"244 322 OFFCURVE",
"241 311 CURVE",
"196 41 LINE SMOOTH",
"134 -264 OFFCURVE",
"256 -553 OFFCURVE",
"640 -553 CURVE SMOOTH"
);
},
{
closed = 1;
nodes = (
"1189 155 OFFCURVE",
"985 166 OFFCURVE",
"869 222 CURVE SMOOTH",
"864 224 OFFCURVE",
"862 230 OFFCURVE",
"860 240 CURVE",
"852 419 OFFCURVE",
"959 636 OFFCURVE",
"1115 636 CURVE SMOOTH",
"1255 636 OFFCURVE",
"1402 401 OFFCURVE",
"1414 179 CURVE"
);
}
);
width = 1734;
}
);
},
{
glyphname = "dotlesskaf-ar";
lastChange = "2016-02-11 17:42:53 +0000";
layers = (
{
anchors = (
{
name = bottom;
position = "{809, -224}";
},
{
name = top;
position = "{754, 968}";
}
);
layerId = "93A312F7-B931-4485-B08E-C367313EB5E7";
name = Regular;
paths = (
{
closed = 1;
nodes = (
"560 -34 OFFCURVE",
"778 -24 OFFCURVE",
"950 -5 CURVE SMOOTH",
"1331 37 OFFCURVE",
"1427 210 OFFCURVE",
"1421 624 CURVE SMOOTH",
"1406 1586 LINE",
"1406 1601 OFFCURVE",
"1398 1607 OFFCURVE",
"1385 1598 CURVE",
"1260 1512 LINE SMOOTH",
"1252 1506 OFFCURVE",
"1249 1501 OFFCURVE",
"1249 1490 CURVE",
"1283 713 OFFCURVE",
"1292 398 OFFCURVE",
"1273 272 CURVE",
"1271 260 OFFCURVE",
"1268 256 OFFCURVE",
"1258 252 CURVE SMOOTH",
"1060 181 OFFCURVE",
"528 149 OFFCURVE",
"202 232 CURVE",
"190 235 OFFCURVE",
"182 230 OFFCURVE",
"181 217 CURVE SMOOTH",
"170 29 OFFCURVE",
"206 7 OFFCURVE",
"386 -13 CURVE SMOOTH"
);
}
);
width = 1565;
}
);
},
{
glyphname = "dotlesskaf-ar.fina";
lastChange = "2016-02-11 17:42:53 +0000";
layers = (
{
anchors = (
{
name = bottom;
position = "{809, -224}";
},
{
name = top;
position = "{752, 968}";
}
);
layerId = "93A312F7-B931-4485-B08E-C367313EB5E7";
name = Regular;
paths = (
{
closed = 1;
nodes = (
"560 -34 OFFCURVE",
"754 -24 OFFCURVE",
"926 -5 CURVE SMOOTH",
"1146 19 OFFCURVE",
"1286 82 OFFCURVE",
"1334 215 CURVE",
"1380 82 OFFCURVE",
"1468 0 OFFCURVE",
"1632 0 CURVE SMOOTH",
"1752 0 LINE",
"1802 62 OFFCURVE",
"1802 125 OFFCURVE",
"1752 187 CURVE",
"1682 187 LINE SMOOTH",
"1578 187 OFFCURVE",
"1426 217 OFFCURVE",
"1426 322 CURVE",
"1406 1586 LINE",
"1406 1601 OFFCURVE",
"1398 1607 OFFCURVE",
"1385 1598 CURVE",
"1260 1512 LINE SMOOTH",
"1252 1506 OFFCURVE",
"1249 1501 OFFCURVE",
"1249 1490 CURVE",
"1283 713 OFFCURVE",
"1292 398 OFFCURVE",
"1273 272 CURVE",
"1271 260 OFFCURVE",
"1268 256 OFFCURVE",
"1258 252 CURVE SMOOTH",
"1060 181 OFFCURVE",
"528 149 OFFCURVE",
"202 232 CURVE",
"190 235 OFFCURVE",
"182 230 OFFCURVE",
"181 217 CURVE SMOOTH",
"170 29 OFFCURVE",
"206 7 OFFCURVE",
"386 -13 CURVE SMOOTH"
);
}
);
width = 1752;
}
);
userData = {
com.typemytype.robofont.guides = (
{
angle = 0;
isGlobal = 0;
x = "-180";
y = 1345;
}
);
};
},
{
glyphname = "kaf-ar.medi";
lastChange = "2016-02-11 17:42:53 +0000";
layers = (
{
anchors = (
{
name = bottom;
position = "{406, -179}";
},
{
name = top;
position = "{527, 1578}";
}
);
layerId = "93A312F7-B931-4485-B08E-C367313EB5E7";
name = Regular;
paths = (
{
closed = 1;
nodes = (
"48 0 LINE SMOOTH",
"263 0 OFFCURVE",
"502 46 OFFCURVE",
"646 106 CURVE",
"665 113 OFFCURVE",
"682 122 OFFCURVE",
"726 202 CURVE SMOOTH",
"733 215 OFFCURVE",
"744 216 OFFCURVE",
"751 204 CURVE",
"863 40 OFFCURVE",
"966 0 OFFCURVE",
"1045 0 CURVE SMOOTH",
"1093 0 LINE",
"1144 62 OFFCURVE",
"1144 125 OFFCURVE",
"1093 187 CURVE",
"1045 187 LINE SMOOTH",
"911 187 OFFCURVE",
"850 234 OFFCURVE",
"784 362 CURVE SMOOTH",
"649 624 OFFCURVE",
"557 886 OFFCURVE",
"210 1103 CURVE SMOOTH",
"197 1111 OFFCURVE",
"198 1122 OFFCURVE",
"212 1127 CURVE SMOOTH",
"983 1367 LINE",
"992 1369 OFFCURVE",
"998 1375 OFFCURVE",
"1000 1386 CURVE SMOOTH",
"1019 1538 LINE SMOOTH",
"1020 1552 OFFCURVE",
"1013 1559 OFFCURVE",
"1000 1554 CURVE SMOOTH",
"200 1290 LINE",
"191 1286 OFFCURVE",
"186 1283 OFFCURVE",
"182 1274 CURVE",
"56 1012 LINE SMOOTH",
"52 1002 OFFCURVE",
"55 994 OFFCURVE",
"65 988 CURVE",
"456 774 OFFCURVE",
"602 439 OFFCURVE",
"660 294 CURVE SMOOTH",
"664 284 OFFCURVE",
"660 276 OFFCURVE",
"650 271 CURVE",
"496 208 OFFCURVE",
"268 192 OFFCURVE",
"48 187 CURVE SMOOTH",
"0 187 LINE SMOOTH",
"-124 187 OFFCURVE",
"-124 0 OFFCURVE",
"0 0 CURVE SMOOTH"
);
}
);
width = 1093;
}
);
unicode = FEDC;
},
{
glyphname = "kaf-ar.init";
lastChange = "2016-02-11 17:42:53 +0000";
layers = (
{
anchors = (
{
name = bottom;
position = "{404, -179}";
},
{
name = top;
position = "{474, 1528}";
}
);
layerId = "93A312F7-B931-4485-B08E-C367313EB5E7";
name = Regular;
paths = (
{
closed = 1;
nodes = (
"48 0 LINE SMOOTH",
"192 0 OFFCURVE",
"354 18 OFFCURVE",
"490 60 CURVE SMOOTH",
"660 115 OFFCURVE",
"757 205 OFFCURVE",
"736 394 CURVE SMOOTH",
"695 749 OFFCURVE",
"385 1000 OFFCURVE",
"178 1105 CURVE SMOOTH",
"163 1112 OFFCURVE",
"164 1123 OFFCURVE",
"180 1128 CURVE SMOOTH",
"863 1343 LINE",
"872 1345 OFFCURVE",
"878 1351 OFFCURVE",
"880 1362 CURVE SMOOTH",
"899 1513 LINE",
"900 1526 OFFCURVE",
"893 1535 OFFCURVE",
"880 1530 CURVE SMOOTH",
"164 1290 LINE",
"155 1286 OFFCURVE",
"150 1283 OFFCURVE",
"146 1274 CURVE",
"22 1013 LINE SMOOTH",
"17 1003 OFFCURVE",
"20 995 OFFCURVE",
"30 989 CURVE",
"425 775 OFFCURVE",
"598 473 OFFCURVE",
"646 311 CURVE SMOOTH",
"649 300 OFFCURVE",
"646 293 OFFCURVE",
"636 288 CURVE SMOOTH",
"457 199 OFFCURVE",
"258 187 OFFCURVE",
"48 187 CURVE SMOOTH",
"0 187 LINE SMOOTH",
"-124 187 OFFCURVE",
"-124 0 OFFCURVE",
"0 0 CURVE SMOOTH"
);
}
);
width = 883;
}
);
unicode = FEDB;
},
{
glyphname = "keheh-ar";
lastChange = "2016-02-11 17:42:53 +0000";
layers = (
{
anchors = (
{
name = bottom;
position = "{820, -211}";
},
{
name = top;
position = "{629, 1128}";
}
);
layerId = "93A312F7-B931-4485-B08E-C367313EB5E7";
name = Regular;
paths = (
{
closed = 1;
nodes = (
"1069 -41 OFFCURVE",
"1408 48 OFFCURVE",
"1559 115 CURVE",
"1562 116 OFFCURVE",
"1565 121 OFFCURVE",
"1568 130 CURVE SMOOTH",
"1606 211 OFFCURVE",
"1640 329 OFFCURVE",
"1632 389 CURVE SMOOTH",
"1591 676 OFFCURVE",
"1297 994 OFFCURVE",
"1090 1104 CURVE",
"1075 1112 OFFCURVE",
"1078 1123 OFFCURVE",
"1092 1128 CURVE SMOOTH",
"1776 1343 LINE",
"1786 1345 OFFCURVE",
"1792 1351 OFFCURVE",
"1793 1362 CURVE SMOOTH",
"1812 1513 LINE",
"1813 1526 OFFCURVE",
"1806 1535 OFFCURVE",
"1793 1530 CURVE SMOOTH",
"1078 1290 LINE",
"1068 1286 OFFCURVE",
"1063 1283 OFFCURVE",
"1060 1274 CURVE",
"934 1012 LINE SMOOTH",
"929 1002 OFFCURVE",
"932 994 OFFCURVE",
"942 988 CURVE",
"1337 774 OFFCURVE",
"1494 469 OFFCURVE",
"1542 306 CURVE",
"1546 295 OFFCURVE",
"1542 288 OFFCURVE",
"1531 284 CURVE",
"1404 233 OFFCURVE",
"1114 156 OFFCURVE",
"782 162 CURVE SMOOTH",
"500 167 OFFCURVE",
"269 245 OFFCURVE",
"292 486 CURVE SMOOTH",
"306 634 LINE SMOOTH",
"307 644 OFFCURVE",
"300 652 OFFCURVE",
"289 653 CURVE SMOOTH",
"223 659 LINE SMOOTH",
"212 660 OFFCURVE",
"204 653 OFFCURVE",
"203 642 CURVE SMOOTH",
"186 486 LINE SMOOTH",
"145 122 OFFCURVE",
"314 -20 OFFCURVE",
"695 -31 CURVE SMOOTH"
);
}
);
width = 1777;
}
);
unicode = 06A9;
},
{
glyphname = "keheh-ar.fina";
lastChange = "2016-02-11 17:42:53 +0000";
layers = (
{
anchors = (
{
name = bottom;
position = "{820, -211}";
},
{
name = top;
position = "{652, 1254}";
}
);
layerId = "93A312F7-B931-4485-B08E-C367313EB5E7";
name = Regular;
paths = (
{
closed = 1;
nodes = (
"1021 -40 OFFCURVE",
"1361 22 OFFCURVE",
"1529 91 CURVE SMOOTH",
"1549 100 OFFCURVE",
"1564 118 OFFCURVE",
"1615 220 CURVE",
"1732 38 OFFCURVE",
"1840 0 OFFCURVE",
"1922 0 CURVE SMOOTH",
"1961 0 LINE",
"2011 62 OFFCURVE",
"2011 125 OFFCURVE",
"1961 187 CURVE",
"1922 187 LINE SMOOTH",
"1788 187 OFFCURVE",
"1727 229 OFFCURVE",
"1661 358 CURVE SMOOTH",
"1523 625 OFFCURVE",
"1429 899 OFFCURVE",
"1062 1118 CURVE",
"1860 1367 LINE",
"1870 1369 OFFCURVE",
"1876 1375 OFFCURVE",
"1877 1386 CURVE SMOOTH",
"1896 1538 LINE SMOOTH",
"1897 1552 OFFCURVE",
"1890 1559 OFFCURVE",
"1877 1554 CURVE SMOOTH",
"1078 1290 LINE",
"1068 1286 OFFCURVE",
"1063 1283 OFFCURVE",
"1060 1274 CURVE",
"934 1012 LINE SMOOTH",
"929 1002 OFFCURVE",
"932 994 OFFCURVE",
"942 988 CURVE",
"1349 766 OFFCURVE",
"1490 409 OFFCURVE",
"1543 274 CURVE",
"1405 223 OFFCURVE",
"1128 156 OFFCURVE",
"782 162 CURVE SMOOTH",
"500 167 OFFCURVE",
"269 245 OFFCURVE",
"292 486 CURVE SMOOTH",
"306 634 LINE SMOOTH",
"307 644 OFFCURVE",
"300 652 OFFCURVE",
"289 653 CURVE SMOOTH",
"223 659 LINE SMOOTH",
"212 660 OFFCURVE",
"204 653 OFFCURVE",
"203 642 CURVE SMOOTH",
"186 486 LINE SMOOTH",
"145 122 OFFCURVE",
"314 -20 OFFCURVE",
"695 -31 CURVE SMOOTH"
);
}
);
width = 1961;
}
);
unicode = FB8F;
},
{
glyphname = "gaf-ar";
lastChange = "2016-02-11 17:42:53 +0000";
layers = (
{
anchors = (
{
name = bottom;
position = "{820, -211}";
},
{
name = top;
position = "{662, 1265}";
}
);
layerId = "93A312F7-B931-4485-B08E-C367313EB5E7";
name = Regular;
paths = (
{
closed = 1;
nodes = (
"1069 -41 OFFCURVE",
"1408 48 OFFCURVE",
"1559 115 CURVE",
"1562 116 OFFCURVE",
"1565 121 OFFCURVE",
"1568 130 CURVE SMOOTH",
"1606 211 OFFCURVE",
"1640 329 OFFCURVE",
"1632 389 CURVE SMOOTH",
"1591 676 OFFCURVE",
"1297 994 OFFCURVE",
"1090 1104 CURVE",
"1075 1112 OFFCURVE",
"1078 1123 OFFCURVE",
"1092 1128 CURVE SMOOTH",
"1776 1343 LINE",
"1786 1345 OFFCURVE",
"1792 1351 OFFCURVE",
"1793 1362 CURVE SMOOTH",
"1812 1513 LINE",
"1813 1526 OFFCURVE",
"1806 1535 OFFCURVE",
"1793 1530 CURVE SMOOTH",
"1078 1290 LINE",
"1068 1286 OFFCURVE",
"1063 1283 OFFCURVE",
"1060 1274 CURVE",
"934 1012 LINE SMOOTH",
"929 1002 OFFCURVE",
"932 994 OFFCURVE",
"942 988 CURVE",
"1337 774 OFFCURVE",
"1494 469 OFFCURVE",
"1542 306 CURVE",
"1546 295 OFFCURVE",
"1542 288 OFFCURVE",
"1531 284 CURVE",
"1404 233 OFFCURVE",
"1114 156 OFFCURVE",
"782 162 CURVE SMOOTH",
"500 167 OFFCURVE",
"269 245 OFFCURVE",
"292 486 CURVE SMOOTH",
"306 634 LINE SMOOTH",
"307 644 OFFCURVE",
"300 652 OFFCURVE",
"289 653 CURVE SMOOTH",
"223 659 LINE SMOOTH",
"212 660 OFFCURVE",
"204 653 OFFCURVE",
"203 642 CURVE SMOOTH",
"186 486 LINE SMOOTH",
"146 122 OFFCURVE",
"314 -20 OFFCURVE",
"695 -31 CURVE SMOOTH"
);
},
{
closed = 1;
nodes = (
"1637 1613 LINE",
"1646 1616 OFFCURVE",
"1651 1622 OFFCURVE",
"1654 1631 CURVE SMOOTH",
"1675 1711 LINE SMOOTH",
"1679 1724 OFFCURVE",
"1670 1733 OFFCURVE",
"1657 1728 CURVE",
"1206 1583 LINE",
"1196 1579 OFFCURVE",
"1192 1577 OFFCURVE",
"1188 1567 CURVE",
"1150 1480 LINE SMOOTH",
"1144 1465 OFFCURVE",
"1151 1457 OFFCURVE",
"1165 1462 CURVE SMOOTH"
);
}
);
width = 1777;
}
);
unicode = 06AF;
},
{
glyphname = "gaf-ar.fina";
lastChange = "2016-02-11 17:42:53 +0000";
layers = (
{
anchors = (
{
name = bottom;
position = "{820, -211}";
},
{
name = top;
position = "{624, 1271}";
}
);
layerId = "93A312F7-B931-4485-B08E-C367313EB5E7";
name = Regular;
paths = (
{
closed = 1;
nodes = (
"956 -38 OFFCURVE",
"1228 0 OFFCURVE",
"1411 52 CURVE SMOOTH",
"1544 88 OFFCURVE",
"1554 122 OFFCURVE",
"1603 196 CURVE SMOOTH",
"1613 210 OFFCURVE",
"1621 211 OFFCURVE",
"1630 198 CURVE SMOOTH",
"1740 35 OFFCURVE",
"1843 0 OFFCURVE",
"1922 0 CURVE SMOOTH",
"1961 0 LINE",
"2011 62 OFFCURVE",
"2011 125 OFFCURVE",
"1961 187 CURVE",
"1922 187 LINE SMOOTH",
"1788 187 OFFCURVE",
"1727 229 OFFCURVE",
"1661 358 CURVE SMOOTH",
"1526 619 OFFCURVE",
"1434 886 OFFCURVE",
"1087 1103 CURVE SMOOTH",
"1074 1111 OFFCURVE",
"1075 1122 OFFCURVE",
"1090 1127 CURVE SMOOTH",
"1860 1367 LINE",
"1870 1369 OFFCURVE",
"1876 1375 OFFCURVE",
"1877 1386 CURVE SMOOTH",
"1896 1538 LINE SMOOTH",
"1897 1552 OFFCURVE",
"1890 1559 OFFCURVE",
"1877 1554 CURVE SMOOTH",
"1078 1290 LINE",
"1068 1286 OFFCURVE",
"1063 1283 OFFCURVE",
"1060 1274 CURVE",
"934 1012 LINE SMOOTH",
"929 1002 OFFCURVE",
"932 994 OFFCURVE",
"942 988 CURVE",
"1333 774 OFFCURVE",
"1480 436 OFFCURVE",
"1537 290 CURVE",
"1541 280 OFFCURVE",
"1537 271 OFFCURVE",
"1526 268 CURVE SMOOTH",
"1384 218 OFFCURVE",
"1115 156 OFFCURVE",
"782 162 CURVE SMOOTH",
"500 167 OFFCURVE",
"269 245 OFFCURVE",
"292 486 CURVE SMOOTH",
"306 634 LINE SMOOTH",
"307 644 OFFCURVE",
"300 652 OFFCURVE",
"289 653 CURVE SMOOTH",
"223 659 LINE SMOOTH",
"212 660 OFFCURVE",
"204 653 OFFCURVE",
"203 642 CURVE SMOOTH",
"186 486 LINE SMOOTH",
"146 122 OFFCURVE",
"314 -20 OFFCURVE",
"695 -31 CURVE SMOOTH"
);
},
{
closed = 1;
nodes = (
"1721 1637 LINE",
"1730 1640 OFFCURVE",
"1735 1646 OFFCURVE",
"1738 1655 CURVE SMOOTH",
"1759 1735 LINE SMOOTH",
"1763 1748 OFFCURVE",
"1754 1757 OFFCURVE",
"1741 1752 CURVE",
"1206 1583 LINE SMOOTH",
"1198 1580 OFFCURVE",
"1192 1577 OFFCURVE",
"1188 1567 CURVE",
"1150 1478 LINE SMOOTH",
"1144 1464 OFFCURVE",
"1151 1456 OFFCURVE",
"1165 1460 CURVE SMOOTH"
);
}
);
width = 1961;
}
);
unicode = FB93;
},
{
glyphname = "gaf-ar.medi";
lastChange = "2016-02-11 17:42:54 +0000";
layers = (
{
anchors = (
{
name = bottom;
position = "{406, -179}";
},
{
name = top;
position = "{574, 1752}";
}
);
layerId = "93A312F7-B931-4485-B08E-C367313EB5E7";
name = Regular;
paths = (
{
closed = 1;
nodes = (
"48 0 LINE SMOOTH",
"241 0 OFFCURVE",
"452 37 OFFCURVE",
"598 88 CURVE SMOOTH",
"682 118 OFFCURVE",
"685 124 OFFCURVE",
"738 224 CURVE",
"854 43 OFFCURVE",
"962 0 OFFCURVE",
"1045 0 CURVE SMOOTH",
"1084 0 LINE",
"1134 62 OFFCURVE",
"1134 125 OFFCURVE",
"1084 187 CURVE",
"1045 187 LINE SMOOTH",
"911 187 OFFCURVE",
"850 234 OFFCURVE",
"784 362 CURVE SMOOTH",
"646 630 OFFCURVE",
"552 899 OFFCURVE",
"185 1118 CURVE",
"983 1367 LINE",
"992 1369 OFFCURVE",
"998 1375 OFFCURVE",
"1000 1386 CURVE SMOOTH",
"1019 1538 LINE SMOOTH",
"1020 1552 OFFCURVE",
"1013 1559 OFFCURVE",
"1000 1554 CURVE SMOOTH",
"200 1290 LINE",
"191 1286 OFFCURVE",
"186 1283 OFFCURVE",
"182 1274 CURVE",
"56 1012 LINE SMOOTH",
"52 1002 OFFCURVE",
"55 994 OFFCURVE",
"65 988 CURVE",
"472 766 OFFCURVE",
"613 414 OFFCURVE",
"666 278 CURVE",
"512 209 OFFCURVE",
"275 187 OFFCURVE",
"48 187 CURVE SMOOTH",
"0 187 LINE SMOOTH",
"-124 187 OFFCURVE",
"-124 0 OFFCURVE",
"0 0 CURVE SMOOTH"
);
},
{
closed = 1;
nodes = (
"844 1637 LINE",
"853 1640 OFFCURVE",
"858 1646 OFFCURVE",
"860 1655 CURVE SMOOTH",
"882 1735 LINE SMOOTH",
"886 1748 OFFCURVE",
"877 1757 OFFCURVE",
"864 1752 CURVE",
"329 1583 LINE SMOOTH",
"320 1580 OFFCURVE",
"314 1577 OFFCURVE",
"311 1567 CURVE",
"272 1478 LINE SMOOTH",
"266 1464 OFFCURVE",
"274 1456 OFFCURVE",
"288 1460 CURVE SMOOTH"
);
}
);
width = 1084;
}
);
unicode = FB95;
},
{
glyphname = "gaf-ar.init";
lastChange = "2016-02-11 17:42:53 +0000";
layers = (
{
anchors = (
{
name = bottom;
position = "{404, -179}";
},
{
name = top;
position = "{444, 1798}";
}
);
layerId = "93A312F7-B931-4485-B08E-C367313EB5E7";
name = Regular;
paths = (
{
closed = 1;
nodes = (
"48 0 LINE SMOOTH",
"259 0 OFFCURVE",
"510 40 OFFCURVE",
"658 134 CURVE SMOOTH",
"665 139 OFFCURVE",
"668 144 OFFCURVE",
"672 152 CURVE SMOOTH",
"709 233 OFFCURVE",
"743 334 OFFCURVE",
"736 394 CURVE SMOOTH",
"695 749 OFFCURVE",
"385 1000 OFFCURVE",
"178 1105 CURVE SMOOTH",
"163 1112 OFFCURVE",
"164 1123 OFFCURVE",
"180 1128 CURVE SMOOTH",
"863 1343 LINE",
"872 1345 OFFCURVE",
"878 1351 OFFCURVE",
"880 1362 CURVE SMOOTH",
"899 1513 LINE",
"900 1526 OFFCURVE",
"893 1535 OFFCURVE",
"880 1530 CURVE SMOOTH",
"164 1290 LINE",
"155 1286 OFFCURVE",
"150 1283 OFFCURVE",
"146 1274 CURVE",
"22 1013 LINE SMOOTH",
"17 1003 OFFCURVE",
"20 995 OFFCURVE",
"30 989 CURVE",
"425 775 OFFCURVE",
"598 473 OFFCURVE",
"646 311 CURVE SMOOTH",
"649 300 OFFCURVE",
"646 293 OFFCURVE",
"636 288 CURVE SMOOTH",
"457 199 OFFCURVE",
"258 187 OFFCURVE",
"48 187 CURVE SMOOTH",
"0 187 LINE SMOOTH",
"-124 187 OFFCURVE",
"-124 0 OFFCURVE",
"0 0 CURVE SMOOTH"
);
},
{
closed = 1;
nodes = (
"724 1613 LINE",
"733 1616 OFFCURVE",
"738 1622 OFFCURVE",
"740 1631 CURVE SMOOTH",
"762 1711 LINE SMOOTH",
"766 1724 OFFCURVE",
"757 1733 OFFCURVE",
"744 1728 CURVE",
"293 1583 LINE",
"283 1579 OFFCURVE",
"278 1577 OFFCURVE",
"275 1567 CURVE",
"236 1480 LINE SMOOTH",
"230 1465 OFFCURVE",
"238 1457 OFFCURVE",
"252 1462 CURVE SMOOTH"
);
}
);
width = 931;
}
);
unicode = FB94;
},
{
glyphname = "lam-ar";
lastChange = "2016-02-11 17:42:53 +0000";
layers = (
{
anchors = (
{
name = bottom;
position = "{733, -727}";
},
{
name = top;
position = "{679, 602}";
}
);
layerId = "93A312F7-B931-4485-B08E-C367313EB5E7";
name = Regular;
paths = (
{
closed = 1;
nodes = (
"876 -547 OFFCURVE",
"1354 -451 OFFCURVE",
"1361 -157 CURVE",
"1319 1608 LINE",
"1319 1624 OFFCURVE",
"1308 1626 OFFCURVE",
"1296 1618 CURVE",
"1150 1507 LINE",
"1142 1501 OFFCURVE",
"1140 1494 OFFCURVE",
"1140 1484 CURVE",
"1230 -228 LINE",
"1230 -228 OFFCURVE",
"944 -344 OFFCURVE",
"630 -344 CURVE SMOOTH",
"414 -344 OFFCURVE",
"251 -228 OFFCURVE",
"322 30 CURVE",
"395 347 LINE SMOOTH",
"397 358 OFFCURVE",
"391 366 OFFCURVE",
"380 368 CURVE SMOOTH",
"307 385 LINE SMOOTH",
"296 388 OFFCURVE",
"288 384 OFFCURVE",
"286 372 CURVE",
"209 49 LINE",
"133 -222 OFFCURVE",
"187 -547 OFFCURVE",
"588 -547 CURVE SMOOTH"
);
}
);
width = 1505;
}
);
unicode = 0644;
},
{
glyphname = "lam-ar.fina";
lastChange = "2016-02-11 17:42:53 +0000";
layers = (
{
anchors = (
{
name = bottom;
position = "{733, -727}";
},
{
name = top;
position = "{718, 643}";
}
);
layerId = "93A312F7-B931-4485-B08E-C367313EB5E7";
name = Regular;
paths = (
{
closed = 1;
nodes = (
"876 -547 OFFCURVE",
"1354 -451 OFFCURVE",
"1361 -157 CURVE",
"1357 48 LINE",
"1357 62 OFFCURVE",
"1367 68 OFFCURVE",
"1379 59 CURVE",
"1427 26 OFFCURVE",
"1493 0 OFFCURVE",
"1607 0 CURVE SMOOTH",
"1655 0 LINE",
"1705 62 OFFCURVE",
"1705 125 OFFCURVE",
"1655 187 CURVE",
"1607 187 LINE SMOOTH",
"1550 187 OFFCURVE",
"1440 209 OFFCURVE",
"1366 232 CURVE",
"1356 235 OFFCURVE",
"1351 242 OFFCURVE",
"1351 252 CURVE",
"1319 1608 LINE",
"1319 1622 OFFCURVE",
"1308 1626 OFFCURVE",
"1296 1618 CURVE",
"1150 1507 LINE",
"1142 1501 OFFCURVE",
"1140 1494 OFFCURVE",
"1140 1484 CURVE",
"1229 -212 LINE",
"1229 -222 OFFCURVE",
"1225 -230 OFFCURVE",
"1216 -234 CURVE SMOOTH",
"1153 -257 OFFCURVE",
"902 -344 OFFCURVE",
"630 -344 CURVE SMOOTH",
"414 -344 OFFCURVE",
"251 -228 OFFCURVE",
"322 30 CURVE",
"395 347 LINE SMOOTH",
"397 358 OFFCURVE",
"391 366 OFFCURVE",
"380 368 CURVE SMOOTH",
"307 385 LINE SMOOTH",
"296 388 OFFCURVE",
"288 384 OFFCURVE",
"286 372 CURVE",
"209 49 LINE",
"133 -222 OFFCURVE",
"187 -547 OFFCURVE",
"588 -547 CURVE SMOOTH"
);
}
);
width = 1655;
}
);
unicode = FEDE;
},
{
glyphname = "lam-ar.medi";
lastChange = "2016-02-11 17:42:53 +0000";
layers = (
{
anchors = (
{
name = bottom;
position = "{352, -179}";
},
{
name = top;
position = "{324, 1796}";
}
);
layerId = "93A312F7-B931-4485-B08E-C367313EB5E7";
name = Regular;
paths = (
{
closed = 1;
nodes = (
"48 0 LINE SMOOTH",
"150 0 OFFCURVE",
"289 42 OFFCURVE",
"371 112 CURVE SMOOTH",
"379 119 OFFCURVE",
"388 119 OFFCURVE",
"395 112 CURVE",
"449 64 OFFCURVE",
"518 0 OFFCURVE",
"684 0 CURVE SMOOTH",
"732 0 LINE",
"782 62 OFFCURVE",
"782 125 OFFCURVE",
"732 187 CURVE",
"684 187 LINE SMOOTH",
"628 187 OFFCURVE",
"517 210 OFFCURVE",
"443 233 CURVE",
"433 236 OFFCURVE",
"428 244 OFFCURVE",
"428 253 CURVE",
"408 1595 LINE",
"408 1610 OFFCURVE",
"398 1614 OFFCURVE",
"386 1606 CURVE SMOOTH",
"251 1510 LINE SMOOTH",
"244 1505 OFFCURVE",
"240 1498 OFFCURVE",
"240 1487 CURVE",
"299 250 LINE",
"299 240 OFFCURVE",
"295 233 OFFCURVE",
"286 229 CURVE",
"224 209 OFFCURVE",
"137 187 OFFCURVE",
"48 187 CURVE SMOOTH",
"0 187 LINE SMOOTH",
"-124 187 OFFCURVE",
"-124 0 OFFCURVE",
"0 0 CURVE SMOOTH"
);
}
);
width = 732;
}
);
unicode = FEE0;
},
{
glyphname = "lam-ar.init";
lastChange = "2016-02-11 17:42:54 +0000";
layers = (
{
anchors = (
{
name = bottom;
position = "{155, -180}";
},
{
name = top;
position = "{252, 1802}";
}
);
layerId = "93A312F7-B931-4485-B08E-C367313EB5E7";
name = Regular;
paths = (
{
closed = 1;
nodes = (
"48 0 LINE SMOOTH",
"324 0 OFFCURVE",
"438 104 OFFCURVE",
"419 389 CURVE SMOOTH",
"337 1596 LINE SMOOTH",
"336 1610 OFFCURVE",
"328 1615 OFFCURVE",
"316 1607 CURVE SMOOTH",
"179 1510 LINE",
"172 1504 OFFCURVE",
"167 1498 OFFCURVE",
"168 1487 CURVE SMOOTH",
"311 251 LINE SMOOTH",
"312 240 OFFCURVE",
"308 232 OFFCURVE",
"298 229 CURVE",
"232 209 OFFCURVE",
"114 187 OFFCURVE",
"48 187 CURVE SMOOTH",
"0 187 LINE SMOOTH",
"-124 187 OFFCURVE",
"-124 0 OFFCURVE",
"0 0 CURVE SMOOTH"
);
}
);
width = 565;
}
);
unicode = FEDF;
},
{
glyphname = "meem-ar";
lastChange = "2016-02-11 17:42:53 +0000";
layers = (
{
anchors = (
{
name = bottom;
position = "{311, -998}";
},
{
name = top;
position = "{666, 1102}";
}
);
layerId = "93A312F7-B931-4485-B08E-C367313EB5E7";
name = Regular;
paths = (
{
closed = 1;
nodes = (
"382 -761 LINE SMOOTH",
"392 -756 OFFCURVE",
"395 -749 OFFCURVE",
"394 -739 CURVE SMOOTH",
"298 36 LINE SMOOTH",
"295 58 OFFCURVE",
"304 72 OFFCURVE",
"324 79 CURVE SMOOTH",
"546 155 OFFCURVE",
"836 166 OFFCURVE",
"1079 144 CURVE SMOOTH",
"1100 142 OFFCURVE",
"1114 154 OFFCURVE",
"1118 175 CURVE",
"1157 349 LINE",
"1160 365 OFFCURVE",
"1163 377 OFFCURVE",
"1162 392 CURVE",
"1160 443 OFFCURVE",
"1144 498 OFFCURVE",
"1117 551 CURVE SMOOTH",
"1022 740 OFFCURVE",
"799 920 OFFCURVE",
"664 920 CURVE SMOOTH",
"424 920 OFFCURVE",
"355 659 OFFCURVE",
"354 474 CURVE SMOOTH",
"353 260 LINE",
"253 206 OFFCURVE",
"166 98 OFFCURVE",
"182 -143 CURVE SMOOTH",
"224 -804 LINE SMOOTH",
"226 -817 OFFCURVE",
"234 -822 OFFCURVE",
"246 -817 CURVE SMOOTH"
);
},
{
closed = 1;
nodes = (
"510 306 OFFCURVE",
"494 314 OFFCURVE",
"488 337 CURVE SMOOTH",
"455 452 LINE SMOOTH",
"450 470 OFFCURVE",
"450 482 OFFCURVE",
"456 499 CURVE SMOOTH",
"487 593 OFFCURVE",
"541 715 OFFCURVE",
"642 715 CURVE SMOOTH",
"790 715 OFFCURVE",
"960 535 OFFCURVE",
"1058 330 CURVE",
"874 344 OFFCURVE",
"697 342 OFFCURVE",
"532 311 CURVE SMOOTH"
);
}
);
width = 1306;
}
);
unicode = 0645;
},
{
glyphname = "meem-ar.fina";
lastChange = "2016-02-11 17:42:53 +0000";
layers = (
{
anchors = (
{
name = bottom;
position = "{352, -997}";
},
{
name = top;
position = "{922, 874}";
}
);
layerId = "93A312F7-B931-4485-B08E-C367313EB5E7";
name = Regular;
paths = (
{
closed = 1;
nodes = (
"384 -761 LINE",
"394 -756 OFFCURVE",
"398 -749 OFFCURVE",
"397 -739 CURVE SMOOTH",
"302 254 LINE SMOOTH",
"301 264 OFFCURVE",
"306 272 OFFCURVE",
"316 276 CURVE",
"368 322 OFFCURVE",
"427 355 OFFCURVE",
"484 374 CURVE SMOOTH",
"505 382 OFFCURVE",
"517 370 OFFCURVE",
"517 354 CURVE SMOOTH",
"517 115 OFFCURVE",
"588 -148 OFFCURVE",
"786 -238 CURVE SMOOTH",
"905 -292 OFFCURVE",
"949 -245 OFFCURVE",
"1034 -116 CURVE SMOOTH",
"1177 100 LINE SMOOTH",
"1184 110 OFFCURVE",
"1193 110 OFFCURVE",
"1202 102 CURVE SMOOTH",
"1283 31 OFFCURVE",
"1380 0 OFFCURVE",
"1522 0 CURVE",
"1572 62 OFFCURVE",
"1572 125 OFFCURVE",
"1522 187 CURVE",
"1474 187 LINE SMOOTH",
"1232 187 OFFCURVE",
"1114 448 OFFCURVE",
"1014 647 CURVE SMOOTH",
"995 685 OFFCURVE",
"965 700 OFFCURVE",
"922 691 CURVE SMOOTH",
"328 588 OFFCURVE",
"164 373 OFFCURVE",
"181 90 CURVE SMOOTH",
"233 -804 LINE SMOOTH",
"234 -818 OFFCURVE",
"241 -823 OFFCURVE",
"254 -817 CURVE SMOOTH"
);
},
{
closed = 1;
nodes = (
"804 -59 OFFCURVE",
"622 110 OFFCURVE",
"622 388 CURVE SMOOTH",
"622 409 OFFCURVE",
"630 420 OFFCURVE",
"640 422 CURVE",
"722 456 OFFCURVE",
"810 481 OFFCURVE",
"906 494 CURVE",
"916 497 OFFCURVE",
"924 492 OFFCURVE",
"929 482 CURVE SMOOTH",
"979 385 OFFCURVE",
"1033 293 OFFCURVE",
"1087 229 CURVE SMOOTH",
"1093 222 OFFCURVE",
"1096 214 OFFCURVE",
"1092 205 CURVE",
"956 -59 LINE",
"952 -70 OFFCURVE",
"946 -73 OFFCURVE",
"935 -72 CURVE SMOOTH"
);
}
);
width = 1522;
}
);
unicode = FEE2;
},
{
glyphname = "meem-ar.medi";
lastChange = "2016-02-11 17:42:53 +0000";
layers = (
{
anchors = (
{
name = bottom;
position = "{691, -209}";
},
{
name = top;
position = "{774, 1043}";
}
);
layerId = "93A312F7-B931-4485-B08E-C367313EB5E7";
name = Regular;
paths = (
{
closed = 1;
nodes = (
"997 -74 OFFCURVE",
"1019 28 OFFCURVE",
"1073 134 CURVE",
"1139 38 OFFCURVE",
"1247 0 OFFCURVE",
"1330 0 CURVE SMOOTH",
"1378 0 LINE",
"1428 62 OFFCURVE",
"1428 125 OFFCURVE",
"1378 187 CURVE",
"1170 187 OFFCURVE",
"1098 296 OFFCURVE",
"1057 390 CURVE SMOOTH",
"899 750 LINE SMOOTH",
"868 820 OFFCURVE",
"814 966 OFFCURVE",
"602 826 CURVE SMOOTH",
"462 728 OFFCURVE",
"301 527 OFFCURVE",
"259 239 CURVE SMOOTH",
"258 229 OFFCURVE",
"252 223 OFFCURVE",
"242 221 CURVE",
"188 204 OFFCURVE",
"106 187 OFFCURVE",
"0 187 CURVE SMOOTH",
"-124 187 OFFCURVE",
"-124 0 OFFCURVE",
"0 0 CURVE SMOOTH",
"138 0 OFFCURVE",
"221 23 OFFCURVE",
"302 103 CURVE SMOOTH",
"308 109 OFFCURVE",
"317 112 OFFCURVE",
"326 109 CURVE SMOOTH",
"774 -4 LINE"
);
},
{
closed = 1;
nodes = (
"388 298 LINE SMOOTH",
"377 300 OFFCURVE",
"371 307 OFFCURVE",
"374 319 CURVE SMOOTH",
"431 516 OFFCURVE",
"588 640 OFFCURVE",
"708 685 CURVE SMOOTH",
"727 692 OFFCURVE",
"733 674 OFFCURVE",
"736 670 CURVE SMOOTH",
"962 176 LINE SMOOTH",
"968 163 OFFCURVE",
"961 154 OFFCURVE",
"947 157 CURVE SMOOTH"
);
}
);
width = 1378;
}
);
unicode = FEE4;
},
{
glyphname = "meem-ar.init";
lastChange = "2016-02-11 17:42:53 +0000";
layers = (
{
anchors = (
{
name = bottom;
position = "{646, -240}";
},
{
name = top;
position = "{784, 1055}";
}
);
layerId = "93A312F7-B931-4485-B08E-C367313EB5E7";
name = Regular;
paths = (
{
closed = 1;
nodes = (
"48 0 LINE SMOOTH",
"167 0 OFFCURVE",
"239 80 OFFCURVE",
"302 157 CURVE",
"308 166 OFFCURVE",
"317 168 OFFCURVE",
"326 164 CURVE SMOOTH",
"793 0 LINE SMOOTH",
"1040 -86 OFFCURVE",
"1020 -64 OFFCURVE",
"1170 146 CURVE SMOOTH",
"1175 154 OFFCURVE",
"1177 170 OFFCURVE",
"1176 180 CURVE SMOOTH",
"1145 479 OFFCURVE",
"1002 875 OFFCURVE",
"784 875 CURVE SMOOTH",
"539 875 OFFCURVE",
"425 570 OFFCURVE",
"289 366 CURVE SMOOTH",
"192 222 OFFCURVE",
"137 187 OFFCURVE",
"0 187 CURVE SMOOTH",
"-124 187 OFFCURVE",
"-124 0 OFFCURVE",
"0 0 CURVE SMOOTH"
);
},
{
closed = 1;
nodes = (
"448 343 LINE SMOOTH",
"437 347 OFFCURVE",
"432 355 OFFCURVE",
"438 366 CURVE SMOOTH",
"490 461 OFFCURVE",
"587 666 OFFCURVE",
"733 666 CURVE SMOOTH",
"872 666 OFFCURVE",
"965 380 OFFCURVE",
"1013 169 CURVE SMOOTH",
"1016 155 OFFCURVE",
"1009 140 OFFCURVE",
"991 146 CURVE SMOOTH"
);
}
);
width = 1320;
}
);
unicode = FEE3;
},
{
glyphname = "noonghunna-ar";
lastChange = "2016-02-11 17:42:53 +0000";
layers = (
{
anchors = (
{
name = bottom;
position = "{745, -734}";
},
{
name = top;
position = "{716, 440}";
}
);
layerId = "93A312F7-B931-4485-B08E-C367313EB5E7";
name = Regular;
paths = (
{
closed = 1;
nodes = (
"853 -554 OFFCURVE",
"1228 -445 OFFCURVE",
"1352 -283 CURVE SMOOTH",
"1409 -210 OFFCURVE",
"1399 -131 OFFCURVE",
"1387 6 CURVE",
"1313 594 LINE SMOOTH",
"1310 613 OFFCURVE",
"1292 619 OFFCURVE",
"1278 608 CURVE SMOOTH",
"1163 523 LINE SMOOTH",
"1158 520 OFFCURVE",
"1156 514 OFFCURVE",
"1157 508 CURVE",
"1268 -185 LINE SMOOTH",
"1270 -192 OFFCURVE",
"1266 -200 OFFCURVE",
"1259 -203 CURVE",
"1196 -244 OFFCURVE",
"970 -344 OFFCURVE",
"646 -344 CURVE SMOOTH",
"410 -344 OFFCURVE",
"264 -226 OFFCURVE",
"318 64 CURVE SMOOTH",
"354 238 LINE SMOOTH",
"356 250 OFFCURVE",
"348 258 OFFCURVE",
"337 259 CURVE SMOOTH",
"260 270 LINE SMOOTH",
"251 271 OFFCURVE",
"242 266 OFFCURVE",
"240 256 CURVE SMOOTH",
"197 40 LINE SMOOTH",
"136 -265 OFFCURVE",
"233 -554 OFFCURVE",
"617 -554 CURVE SMOOTH"
);
}
);
width = 1541;
}
);
unicode = 06BA;
},
{
glyphname = "noonghunna-ar.fina";
lastChange = "2016-02-11 17:42:53 +0000";
layers = (
{
anchors = (
{
name = bottom;
position = "{748, -734}";
},
{
name = top;
position = "{719, 440}";
}
);
layerId = "93A312F7-B931-4485-B08E-C367313EB5E7";
name = Regular;
paths = (
{
closed = 1;
nodes = (
"856 -554 OFFCURVE",
"1230 -445 OFFCURVE",
"1355 -283 CURVE SMOOTH",
"1405 -217 OFFCURVE",
"1406 -178 OFFCURVE",
"1384 65 CURVE",
"1436 23 OFFCURVE",
"1493 0 OFFCURVE",
"1669 0 CURVE SMOOTH",
"1717 0 LINE",
"1768 62 OFFCURVE",
"1768 125 OFFCURVE",
"1717 187 CURVE",
"1669 187 LINE SMOOTH",
"1436 187 OFFCURVE",
"1370 206 OFFCURVE",
"1342 380 CURVE",
"1331 511 LINE SMOOTH",
"1330 530 OFFCURVE",
"1310 536 OFFCURVE",
"1296 526 CURVE SMOOTH",
"1181 440 LINE SMOOTH",
"1176 437 OFFCURVE",
"1174 431 OFFCURVE",
"1175 425 CURVE",
"1271 -185 LINE SMOOTH",
"1272 -192 OFFCURVE",
"1268 -200 OFFCURVE",
"1261 -203 CURVE",
"1175 -244 OFFCURVE",
"972 -344 OFFCURVE",
"648 -344 CURVE SMOOTH",
"401 -344 OFFCURVE",
"266 -226 OFFCURVE",
"320 64 CURVE SMOOTH",
"356 238 LINE SMOOTH",
"359 250 OFFCURVE",
"350 258 OFFCURVE",
"340 259 CURVE SMOOTH",
"263 270 LINE SMOOTH",
"253 271 OFFCURVE",
"245 266 OFFCURVE",
"242 256 CURVE SMOOTH",
"199 40 LINE SMOOTH",
"138 -265 OFFCURVE",
"211 -554 OFFCURVE",
"619 -554 CURVE SMOOTH"
);
}
);
width = 1717;
}
);
unicode = FB9F;
},
{
glyphname = "heh-ar";
lastChange = "2016-02-11 17:42:53 +0000";
layers = (
{
anchors = (
{
name = bottom;
position = "{488, -206}";
},
{
name = top;
position = "{390, 1008}";
}
);
layerId = "93A312F7-B931-4485-B08E-C367313EB5E7";
name = Regular;
paths = (
{
closed = 1;
nodes = (
"608 -37 OFFCURVE",
"779 157 OFFCURVE",
"805 361 CURVE SMOOTH",
"832 564 OFFCURVE",
"600 697 OFFCURVE",
"410 815 CURVE",
"397 822 OFFCURVE",
"385 820 OFFCURVE",
"377 806 CURVE",
"270 622 OFFCURVE",
"187 428 OFFCURVE",
"180 258 CURVE SMOOTH",
"174 86 OFFCURVE",
"264 -37 OFFCURVE",
"416 -37 CURVE SMOOTH"
);
},
{
closed = 1;
nodes = (
"344 162 OFFCURVE",
"269 218 OFFCURVE",
"266 332 CURVE SMOOTH",
"264 415 OFFCURVE",
"301 494 OFFCURVE",
"364 602 CURVE",
"371 617 OFFCURVE",
"383 618 OFFCURVE",
"397 611 CURVE SMOOTH",
"539 536 OFFCURVE",
"626 475 OFFCURVE",
"713 391 CURVE SMOOTH",
"722 382 OFFCURVE",
"724 371 OFFCURVE",
"718 359 CURVE SMOOTH",
"650 226 OFFCURVE",
"539 157 OFFCURVE",
"434 160 CURVE SMOOTH"
);
}
);
width = 952;
}
);
unicode = 0647;
},
{
glyphname = "heh-ar.fina";
lastChange = "2016-02-11 17:42:53 +0000";
layers = (
{
anchors = (
{
name = bottom;
position = "{527, -172}";
},
{
name = top;
position = "{726, 1326}";
}
);
layerId = "93A312F7-B931-4485-B08E-C367313EB5E7";
name = Regular;
paths = (
{
closed = 1;
nodes = (
"1180 0 LINE",
"1230 62 OFFCURVE",
"1230 125 OFFCURVE",
"1180 187 CURVE",
"1132 187 LINE SMOOTH",
"968 187 OFFCURVE",
"884 251 OFFCURVE",
"868 432 CURVE SMOOTH",
"804 1139 LINE SMOOTH",
"803 1152 OFFCURVE",
"793 1158 OFFCURVE",
"781 1150 CURVE SMOOTH",
"654 1067 LINE",
"646 1062 OFFCURVE",
"643 1055 OFFCURVE",
"644 1044 CURVE",
"678 836 LINE",
"679 827 OFFCURVE",
"676 818 OFFCURVE",
"666 814 CURVE SMOOTH",
"428 695 OFFCURVE",
"202 516 OFFCURVE",
"180 221 CURVE",
"179 212 OFFCURVE",
"182 192 OFFCURVE",
"184 184 CURVE",
"208 78 OFFCURVE",
"406 52 OFFCURVE",
"576 56 CURVE SMOOTH",
"736 61 OFFCURVE",
"767 128 OFFCURVE",
"787 206 CURVE",
"845 60 OFFCURVE",
"949 0 OFFCURVE",
"1132 0 CURVE SMOOTH"
);
},
{
closed = 1;
nodes = (
"599 220 OFFCURVE",
"373 245 OFFCURVE",
"275 310 CURVE",
"269 313 OFFCURVE",
"268 320 OFFCURVE",
"272 331 CURVE SMOOTH",
"329 448 OFFCURVE",
"486 577 OFFCURVE",
"685 666 CURVE",
"697 671 OFFCURVE",
"706 666 OFFCURVE",
"707 654 CURVE",
"762 275 LINE",
"763 263 OFFCURVE",
"758 257 OFFCURVE",
"748 254 CURVE SMOOTH"
);
}
);
width = 1180;
}
);
unicode = FEEA;
},
{
glyphname = "heh-ar.medi";
lastChange = "2016-02-11 17:42:54 +0000";
layers = (
{
anchors = (
{
name = bottom;
position = "{601, -749}";
},
{
name = top;
position = "{662, 1247}";
}
);
layerId = "93A312F7-B931-4485-B08E-C367313EB5E7";
name = Regular;
paths = (
{
closed = 1;
nodes = (
"839 -607 OFFCURVE",
"845 -601 OFFCURVE",
"847 -590 CURVE",
"930 -277 OFFCURVE",
"836 -90 OFFCURVE",
"750 -8 CURVE",
"746 -4 OFFCURVE",
"757 0 OFFCURVE",
"773 0 CURVE SMOOTH",
"998 0 LINE",
"1049 62 OFFCURVE",
"1049 125 OFFCURVE",
"998 187 CURVE",
"950 187 LINE SMOOTH",
"836 187 OFFCURVE",
"767 176 OFFCURVE",
"644 164 CURVE SMOOTH",
"629 163 OFFCURVE",
"626 169 OFFCURVE",
"637 180 CURVE",
"870 391 OFFCURVE",
"834 468 OFFCURVE",
"815 955 CURVE",
"814 966 OFFCURVE",
"810 972 OFFCURVE",
"802 977 CURVE SMOOTH",
"672 1050 LINE SMOOTH",
"664 1055 OFFCURVE",
"655 1055 OFFCURVE",
"647 1048 CURVE SMOOTH",
"397 839 OFFCURVE",
"247 544 OFFCURVE",
"168 203 CURVE SMOOTH",
"166 192 OFFCURVE",
"160 186 OFFCURVE",
"149 186 CURVE SMOOTH",
"0 187 LINE SMOOTH",
"-124 188 OFFCURVE",
"-124 1 OFFCURVE",
"0 0 CURVE SMOOTH",
"143 -1 LINE SMOOTH",
"154 -1 OFFCURVE",
"161 -7 OFFCURVE",
"162 -19 CURVE SMOOTH",
"200 -380 OFFCURVE",
"469 -618 OFFCURVE",
"828 -607 CURVE SMOOTH"
);
},
{
closed = 1;
nodes = (
"538 -404 OFFCURVE",
"334 -205 OFFCURVE",
"320 -2 CURVE SMOOTH",
"319 10 OFFCURVE",
"326 16 OFFCURVE",
"338 16 CURVE SMOOTH",
"576 8 OFFCURVE",
"748 -170 OFFCURVE",
"799 -378 CURVE",
"803 -390 OFFCURVE",
"797 -397 OFFCURVE",
"784 -398 CURVE"
);
},
{
closed = 1;
nodes = (
"320 181 OFFCURVE",
"310 185 OFFCURVE",
"312 199 CURVE SMOOTH",
"348 433 OFFCURVE",
"478 671 OFFCURVE",
"636 814 CURVE SMOOTH",
"646 822 OFFCURVE",
"653 816 OFFCURVE",
"654 800 CURVE SMOOTH",
"678 347 OFFCURVE",
"678 354 OFFCURVE",
"653 336 CURVE SMOOTH",
"548 260 OFFCURVE",
"443 215 OFFCURVE",
"332 185 CURVE SMOOTH"
);
}
);
width = 998;
}
);
unicode = FEEC;
},
{
glyphname = "heh-ar.init";
lastChange = "2016-02-11 17:42:54 +0000";
layers = (
{
anchors = (
{
name = bottom;
position = "{679, -101}";
},
{
name = top;
position = "{742, 1319}";
}
);
layerId = "93A312F7-B931-4485-B08E-C367313EB5E7";
name = Regular;
paths = (
{
closed = 1;
nodes = (
"48 0 LINE SMOOTH",
"234 0 OFFCURVE",
"511 83 OFFCURVE",
"642 175 CURVE",
"649 181 OFFCURVE",
"658 182 OFFCURVE",
"666 180 CURVE",
"1272 36 LINE SMOOTH",
"1283 34 OFFCURVE",
"1291 37 OFFCURVE",
"1295 48 CURVE",
"1462 493 OFFCURVE",
"1349 742 OFFCURVE",
"776 1138 CURVE",
"767 1145 OFFCURVE",
"757 1142 OFFCURVE",
"751 1133 CURVE SMOOTH",
"689 1025 LINE",
"684 1018 OFFCURVE",
"679 1013 OFFCURVE",
"671 1009 CURVE SMOOTH",
"480 935 OFFCURVE",
"283 637 OFFCURVE",
"281 431 CURVE SMOOTH",
"280 352 OFFCURVE",
"299 295 OFFCURVE",
"346 241 CURVE SMOOTH",
"355 230 OFFCURVE",
"353 221 OFFCURVE",
"340 217 CURVE SMOOTH",
"286 204 OFFCURVE",
"218 186 OFFCURVE",
"48 187 CURVE SMOOTH",
"0 187 LINE SMOOTH",
"-124 187 OFFCURVE",
"-124 0 OFFCURVE",
"0 0 CURVE SMOOTH"
);
},
{
closed = 1;
nodes = (
"385 372 OFFCURVE",
"341 521 OFFCURVE",
"438 689 CURVE SMOOTH",
"552 888 OFFCURVE",
"767 864 OFFCURVE",
"847 727 CURVE SMOOTH",
"852 719 OFFCURVE",
"851 712 OFFCURVE",
"846 703 CURVE",
"661 346 LINE",
"656 337 OFFCURVE",
"649 332 OFFCURVE",
"638 335 CURVE"
);
},
{
closed = 1;
nodes = (
"835 340 LINE",
"824 343 OFFCURVE",
"820 350 OFFCURVE",
"823 362 CURVE",
"955 749 LINE SMOOTH",
"960 762 OFFCURVE",
"968 763 OFFCURVE",
"979 755 CURVE",
"1151 634 OFFCURVE",
"1276 426 OFFCURVE",
"1256 238 CURVE SMOOTH",
"1255 226 OFFCURVE",
"1246 220 OFFCURVE",
"1235 223 CURVE"
);
}
);
width = 1510;
}
);
unicode = FEEB;
},
{
glyphname = "hehgoal-ar.fina";
lastChange = "2016-02-11 17:42:53 +0000";
layers = (
{
anchors = (
{
name = bottom;
position = "{635, -185}";
},
{
name = top;
position = "{691, 607}";
}
);
layerId = "93A312F7-B931-4485-B08E-C367313EB5E7";
name = Regular;
paths = (
{
closed = 1;
nodes = (
"236 -96 OFFCURVE",
"246 -95 OFFCURVE",
"254 -85 CURVE SMOOTH",
"553 246 OFFCURVE",
"605 266 OFFCURVE",
"624 266 CURVE SMOOTH",
"715 266 OFFCURVE",
"940 0 OFFCURVE",
"1187 0 CURVE SMOOTH",
"1292 0 LINE",
"1343 62 OFFCURVE",
"1343 125 OFFCURVE",
"1292 187 CURVE",
"1244 187 LINE SMOOTH",
"1116 187 OFFCURVE",
"1022 240 OFFCURVE",
"938 295 CURVE SMOOTH",
"844 358 OFFCURVE",
"760 425 OFFCURVE",
"691 427 CURVE SMOOTH",
"584 431 OFFCURVE",
"460 292 OFFCURVE",
"186 -29 CURVE",
"179 -38 OFFCURVE",
"178 -47 OFFCURVE",
"187 -55 CURVE SMOOTH",
"228 -89 LINE SMOOTH"
);
}
);
width = 1292;
}
);
unicode = FBA7;
},
{
glyphname = "hehgoal-ar.medi";
lastChange = "2016-02-11 17:42:53 +0000";
layers = (
{
anchors = (
{
name = bottom;
position = "{720, -876}";
},
{
name = top;
position = "{648, 780}";
}
);
layerId = "93A312F7-B931-4485-B08E-C367313EB5E7";
name = Regular;
paths = (
{
closed = 1;
nodes = (
"918 -490 LINE",
"924 -482 OFFCURVE",
"925 -474 OFFCURVE",
"922 -466 CURVE",
"782 -106 LINE",
"779 -95 OFFCURVE",
"782 -88 OFFCURVE",
"793 -83 CURVE SMOOTH",
"917 -28 OFFCURVE",
"1045 0 OFFCURVE",
"1296 0 CURVE",
"1346 62 OFFCURVE",
"1346 125 OFFCURVE",
"1296 187 CURVE",
"833 186 OFFCURVE",
"618 48 OFFCURVE",
"721 -364 CURVE",
"631 -139 OFFCURVE",
"574 -4 OFFCURVE",
"580 253 CURVE",
"601 568 LINE SMOOTH",
"602 581 OFFCURVE",
"594 587 OFFCURVE",
"582 586 CURVE SMOOTH",
"514 577 LINE SMOOTH",
"503 576 OFFCURVE",
"497 570 OFFCURVE",
"496 559 CURVE SMOOTH",
"474 370 LINE SMOOTH",
"452 182 OFFCURVE",
"190 185 OFFCURVE",
"53 185 CURVE SMOOTH",
"0 185 LINE SMOOTH",
"-124 185 OFFCURVE",
"-124 -2 OFFCURVE",
"0 -2 CURVE SMOOTH",
"46 -2 LINE SMOOTH",
"175 -2 OFFCURVE",
"338 13 OFFCURVE",
"460 122 CURVE",
"425 -236 OFFCURVE",
"650 -545 OFFCURVE",
"740 -686 CURVE SMOOTH",
"748 -698 OFFCURVE",
"757 -700 OFFCURVE",
"766 -688 CURVE"
);
}
);
width = 1296;
}
);
unicode = FBA9;
},
{
glyphname = "hehDoachashmee-ar";
lastChange = "2016-02-11 17:42:54 +0000";
layers = (
{
anchors = (
{
name = bottom;
position = "{719, -148}";
},
{
name = top;
position = "{752, 1560}";
}
);
layerId = "93A312F7-B931-4485-B08E-C367313EB5E7";
name = Regular;
paths = (
{
closed = 1;
nodes = (
"348 4 OFFCURVE",
"398 40 OFFCURVE",
"486 161 CURVE SMOOTH",
"610 340 LINE SMOOTH",
"616 348 OFFCURVE",
"623 350 OFFCURVE",
"632 349 CURVE SMOOTH",
"1207 258 LINE SMOOTH",
"1217 257 OFFCURVE",
"1225 260 OFFCURVE",
"1229 270 CURVE",
"1394 634 OFFCURVE",
"1301 869 OFFCURVE",
"719 1376 CURVE",
"709 1386 OFFCURVE",
"700 1385 OFFCURVE",
"694 1373 CURVE SMOOTH",
"608 1211 LINE SMOOTH",
"605 1204 OFFCURVE",
"599 1199 OFFCURVE",
"590 1195 CURVE SMOOTH",
"401 1118 OFFCURVE",
"203 844 OFFCURVE",
"192 631 CURVE SMOOTH",
"186 511 OFFCURVE",
"247 398 OFFCURVE",
"409 347 CURVE",
"422 343 OFFCURVE",
"426 334 OFFCURVE",
"418 323 CURVE",
"206 71 LINE SMOOTH",
"198 61 OFFCURVE",
"200 50 OFFCURVE",
"214 47 CURVE"
);
},
{
closed = 1;
nodes = (
"373 559 OFFCURVE",
"305 629 OFFCURVE",
"307 726 CURVE SMOOTH",
"314 974 OFFCURVE",
"655 1112 OFFCURVE",
"770 913 CURVE",
"776 905 OFFCURVE",
"775 898 OFFCURVE",
"770 889 CURVE SMOOTH",
"569 532 LINE",
"564 522 OFFCURVE",
"557 520 OFFCURVE",
"546 522 CURVE SMOOTH"
);
},
{
closed = 1;
nodes = (
"756 527 LINE SMOOTH",
"744 529 OFFCURVE",
"739 538 OFFCURVE",
"743 548 CURVE SMOOTH",
"875 932 LINE SMOOTH",
"880 946 OFFCURVE",
"889 948 OFFCURVE",
"899 938 CURVE SMOOTH",
"1021 817 OFFCURVE",
"1192 606 OFFCURVE",
"1198 460 CURVE",
"1199 448 OFFCURVE",
"1190 442 OFFCURVE",
"1178 444 CURVE SMOOTH"
);
}
);
width = 1446;
}
);
unicode = 06BE;
},
{
glyphname = "hehDoachashmee-ar.fina";
lastChange = "2016-02-11 17:42:53 +0000";
layers = (
{
anchors = (
{
name = bottom;
position = "{743, -288}";
},
{
name = top;
position = "{767, 1308}";
}
);
layerId = "93A312F7-B931-4485-B08E-C367313EB5E7";
name = Regular;
paths = (
{
closed = 1;
nodes = (
"338 -151 OFFCURVE",
"389 -115 OFFCURVE",
"476 6 CURVE SMOOTH",
"600 184 LINE",
"606 193 OFFCURVE",
"613 196 OFFCURVE",
"624 192 CURVE",
"1226 31 OFFCURVE",
"1362 0 OFFCURVE",
"1626 0 CURVE",
"1676 62 OFFCURVE",
"1676 125 OFFCURVE",
"1626 187 CURVE",
"1525 187 OFFCURVE",
"1295 185 OFFCURVE",
"1218 194 CURVE",
"1206 197 OFFCURVE",
"1201 204 OFFCURVE",
"1204 216 CURVE SMOOTH",
"1274 532 OFFCURVE",
"1206 721 OFFCURVE",
"734 1134 CURVE SMOOTH",
"725 1142 OFFCURVE",
"714 1141 OFFCURVE",
"708 1130 CURVE",
"622 991 LINE",
"617 983 OFFCURVE",
"612 979 OFFCURVE",
"604 976 CURVE SMOOTH",
"424 905 OFFCURVE",
"239 624 OFFCURVE",
"236 430 CURVE SMOOTH",
"234 282 OFFCURVE",
"300 229 OFFCURVE",
"400 190 CURVE SMOOTH",
"412 185 OFFCURVE",
"414 176 OFFCURVE",
"406 166 CURVE",
"197 -84 LINE SMOOTH",
"188 -94 OFFCURVE",
"191 -104 OFFCURVE",
"204 -108 CURVE"
);
},
{
closed = 1;
nodes = (
"324 374 OFFCURVE",
"293 515 OFFCURVE",
"385 673 CURVE SMOOTH",
"492 859 OFFCURVE",
"683 818 OFFCURVE",
"768 709 CURVE",
"774 701 OFFCURVE",
"774 694 OFFCURVE",
"769 684 CURVE",
"584 349 LINE SMOOTH",
"580 341 OFFCURVE",
"572 336 OFFCURVE",
"562 338 CURVE"
);
},
{
closed = 1;
nodes = (
"761 343 LINE",
"750 347 OFFCURVE",
"745 354 OFFCURVE",
"749 366 CURVE",
"872 727 LINE SMOOTH",
"877 740 OFFCURVE",
"887 744 OFFCURVE",
"896 733 CURVE",
"1007 622 OFFCURVE",
"1126 438 OFFCURVE",
"1126 259 CURVE",
"1124 247 OFFCURVE",
"1116 241 OFFCURVE",
"1104 245 CURVE SMOOTH"
);
}
);
width = 1626;
}
);
unicode = FBAB;
},
{
glyphname = "hehDoachashmee-ar.medi";
lastChange = "2016-02-11 17:42:53 +0000";
layers = (
{
anchors = (
{
name = bottom;
position = "{618, -175}";
},
{
name = top;
position = "{715, 1319}";
}
);
layerId = "93A312F7-B931-4485-B08E-C367313EB5E7";
name = Regular;
paths = (
{
closed = 1;
nodes = (
"48 0 LINE SMOOTH",
"234 0 OFFCURVE",
"431 94 OFFCURVE",
"558 187 CURVE",
"565 193 OFFCURVE",
"572 194 OFFCURVE",
"583 192 CURVE",
"1196 28 OFFCURVE",
"1321 0 OFFCURVE",
"1586 0 CURVE",
"1637 62 OFFCURVE",
"1637 125 OFFCURVE",
"1586 187 CURVE",
"1487 187 OFFCURVE",
"1259 196 OFFCURVE",
"1180 198 CURVE SMOOTH",
"1168 198 OFFCURVE",
"1162 205 OFFCURVE",
"1165 217 CURVE",
"1235 532 OFFCURVE",
"1165 722 OFFCURVE",
"695 1134 CURVE SMOOTH",
"685 1142 OFFCURVE",
"674 1141 OFFCURVE",
"668 1130 CURVE",
"582 991 LINE",
"577 983 OFFCURVE",
"572 979 OFFCURVE",
"564 976 CURVE SMOOTH",
"384 905 OFFCURVE",
"199 624 OFFCURVE",
"197 430 CURVE SMOOTH",
"196 355 OFFCURVE",
"214 286 OFFCURVE",
"258 232 CURVE SMOOTH",
"266 221 OFFCURVE",
"264 210 OFFCURVE",
"251 208 CURVE",
"190 193 OFFCURVE",
"101 187 OFFCURVE",
"48 187 CURVE SMOOTH",
"0 187 LINE SMOOTH",
"-124 187 OFFCURVE",
"-124 0 OFFCURVE",
"0 0 CURVE SMOOTH"
);
},
{
closed = 1;
nodes = (
"284 374 OFFCURVE",
"253 515 OFFCURVE",
"346 673 CURVE SMOOTH",
"452 859 OFFCURVE",
"643 818 OFFCURVE",
"728 709 CURVE",
"734 701 OFFCURVE",
"734 694 OFFCURVE",
"730 684 CURVE",
"545 349 LINE SMOOTH",
"540 341 OFFCURVE",
"533 336 OFFCURVE",
"522 338 CURVE"
);
},
{
closed = 1;
nodes = (
"721 343 LINE",
"710 347 OFFCURVE",
"706 354 OFFCURVE",
"709 366 CURVE",
"833 727 LINE SMOOTH",
"838 740 OFFCURVE",
"847 744 OFFCURVE",
"857 733 CURVE",
"967 622 OFFCURVE",
"1086 438 OFFCURVE",
"1086 259 CURVE",
"1085 247 OFFCURVE",
"1076 241 OFFCURVE",
"1064 245 CURVE SMOOTH"
);
}
);
width = 1586;
}
);
unicode = FBAD;
},
{
glyphname = "waw-ar";
lastChange = "2016-02-11 17:42:54 +0000";
layers = (
{
anchors = (
{
name = bottom;
position = "{440, -751}";
},
{
name = top;
position = "{548, 1075}";
}
);
layerId = "93A312F7-B931-4485-B08E-C367313EB5E7";
name = Regular;
paths = (
{
closed = 1;
nodes = (
"827 -380 OFFCURVE",
"941 -91 OFFCURVE",
"941 211 CURVE SMOOTH",
"941 522 OFFCURVE",
"811 859 OFFCURVE",
"576 859 CURVE SMOOTH",
"334 859 OFFCURVE",
"180 526 OFFCURVE",
"180 278 CURVE SMOOTH",
"180 -34 OFFCURVE",
"389 -122 OFFCURVE",
"803 1 CURVE",
"646 -328 OFFCURVE",
"397 -444 OFFCURVE",
"-7 -355 CURVE SMOOTH",
"-18 -353 OFFCURVE",
"-25 -360 OFFCURVE",
"-29 -371 CURVE",
"-53 -452 LINE",
"-55 -462 OFFCURVE",
"-50 -469 OFFCURVE",
"-40 -473 CURVE SMOOTH",
"208 -556 OFFCURVE",
"426 -589 OFFCURVE",
"575 -511 CURVE SMOOTH"
);
},
{
closed = 1;
nodes = (
"626 149 OFFCURVE",
"420 133 OFFCURVE",
"295 217 CURVE",
"288 221 OFFCURVE",
"286 229 OFFCURVE",
"284 239 CURVE",
"276 420 OFFCURVE",
"401 648 OFFCURVE",
"534 648 CURVE SMOOTH",
"662 648 OFFCURVE",
"803 413 OFFCURVE",
"804 191 CURVE"
);
}
);
width = 1085;
}
);
unicode = 0648;
userData = {
com.typemytype.robofont.guides = (
{
angle = 90;
isGlobal = 0;
x = 787;
y = 236;
}
);
};
},
{
glyphname = "waw-ar.fina";
lastChange = "2016-02-11 17:42:54 +0000";
layers = (
{
anchors = (
{
name = bottom;
position = "{466, -745}";
},
{
name = top;
position = "{572, 1075}";
}
);
layerId = "93A312F7-B931-4485-B08E-C367313EB5E7";
name = Regular;
paths = (
{
closed = 1;
nodes = (
"760 -412 OFFCURVE",
"872 -220 OFFCURVE",
"914 0 CURVE",
"1144 0 LINE",
"1194 62 OFFCURVE",
"1194 125 OFFCURVE",
"1144 187 CURVE",
"941 187 LINE",
"948 444 OFFCURVE",
"840 859 OFFCURVE",
"576 859 CURVE SMOOTH",
"334 859 OFFCURVE",
"180 534 OFFCURVE",
"180 287 CURVE SMOOTH",
"180 -25 OFFCURVE",
"384 -40 OFFCURVE",
"798 1 CURVE",
"670 -342 OFFCURVE",
"390 -444 OFFCURVE",
"-14 -355 CURVE SMOOTH",
"-25 -353 OFFCURVE",
"-32 -360 OFFCURVE",
"-36 -371 CURVE",
"-60 -452 LINE",
"-62 -462 OFFCURVE",
"-58 -469 OFFCURVE",
"-47 -473 CURVE SMOOTH",
"200 -556 OFFCURVE",
"419 -589 OFFCURVE",
"568 -511 CURVE SMOOTH"
);
},
{
closed = 1;
nodes = (
"580 187 OFFCURVE",
"414 180 OFFCURVE",
"299 228 CURVE",
"289 232 OFFCURVE",
"286 239 OFFCURVE",
"284 248 CURVE",
"277 428 OFFCURVE",
"401 648 OFFCURVE",
"534 648 CURVE SMOOTH",
"686 648 OFFCURVE",
"803 392 OFFCURVE",
"804 191 CURVE"
);
}
);
width = 1144;
}
);
unicode = FEEE;
userData = {
com.typemytype.robofont.guides = (
{
angle = 0;
isGlobal = 0;
x = 1013;
y = 156;
}
);
};
},
{
glyphname = "alefMaksura-ar";
lastChange = "2016-02-11 17:42:53 +0000";
layers = (
{
anchors = (
{
name = bottom;
position = "{752, -823}";
},
{
name = top;
position = "{584, 620}";
}
);
layerId = "93A312F7-B931-4485-B08E-C367313EB5E7";
name = Regular;
paths = (
{
closed = 1;
nodes = (
"1010 -637 OFFCURVE",
"1567 -409 OFFCURVE",
"1556 -110 CURVE SMOOTH",
"1554 -31 OFFCURVE",
"1510 -2 OFFCURVE",
"1368 10 CURVE SMOOTH",
"1123 31 LINE SMOOTH",
"985 47 OFFCURVE",
"906 90 OFFCURVE",
"926 157 CURVE",
"986 296 OFFCURVE",
"1104 414 OFFCURVE",
"1204 481 CURVE SMOOTH",
"1288 538 OFFCURVE",
"1351 524 OFFCURVE",
"1412 491 CURVE SMOOTH",
"1423 485 OFFCURVE",
"1432 488 OFFCURVE",
"1436 500 CURVE",
"1489 617 LINE SMOOTH",
"1493 625 OFFCURVE",
"1493 634 OFFCURVE",
"1487 642 CURVE SMOOTH",
"1453 691 OFFCURVE",
"1392 712 OFFCURVE",
"1331 712 CURVE SMOOTH",
"1172 712 OFFCURVE",
"955 491 OFFCURVE",
"862 262 CURVE SMOOTH",
"743 -30 OFFCURVE",
"796 -133 OFFCURVE",
"1070 -161 CURVE SMOOTH",
"1451 -198 LINE",
"1224 -349 OFFCURVE",
"937 -434 OFFCURVE",
"696 -431 CURVE SMOOTH",
"409 -426 OFFCURVE",
"236 -283 OFFCURVE",
"342 125 CURVE SMOOTH",
"386 296 LINE",
"389 308 OFFCURVE",
"384 316 OFFCURVE",
"373 318 CURVE SMOOTH",
"296 335 LINE SMOOTH",
"286 337 OFFCURVE",
"277 332 OFFCURVE",
"275 322 CURVE",
"227 138 LINE SMOOTH",
"100 -347 OFFCURVE",
"228 -637 OFFCURVE",
"679 -637 CURVE SMOOTH"
);
}
);
width = 1700;
}
);
unicode = 0649;
},
{
glyphname = "alefMaksura-ar.fina";
lastChange = "2016-02-11 17:42:53 +0000";
layers = (
{
anchors = (
{
name = bottom;
position = "{750, -847}";
},
{
name = top;
position = "{702, 492}";
}
);
layerId = "93A312F7-B931-4485-B08E-C367313EB5E7";
name = Regular;
paths = (
{
closed = 1;
nodes = (
"838 -665 OFFCURVE",
"1130 -595 OFFCURVE",
"1327 -469 CURVE SMOOTH",
"1450 -391 OFFCURVE",
"1507 -314 OFFCURVE",
"1507 -198 CURVE SMOOTH",
"1507 -98 OFFCURVE",
"1330 -19 OFFCURVE",
"1241 12 CURVE",
"1312 5 OFFCURVE",
"1589 0 OFFCURVE",
"1645 0 CURVE SMOOTH",
"1693 0 LINE",
"1744 62 OFFCURVE",
"1744 125 OFFCURVE",
"1693 187 CURVE",
"1136 187 LINE SMOOTH",
"1044 187 OFFCURVE",
"1034 188 OFFCURVE",
"989 96 CURVE SMOOTH",
"928 -29 OFFCURVE",
"928 -30 OFFCURVE",
"1008 -61 CURVE SMOOTH",
"1151 -116 OFFCURVE",
"1300 -182 OFFCURVE",
"1392 -232 CURVE SMOOTH",
"1408 -240 OFFCURVE",
"1408 -246 OFFCURVE",
"1391 -256 CURVE SMOOTH",
"1139 -394 OFFCURVE",
"911 -462 OFFCURVE",
"694 -458 CURVE SMOOTH",
"431 -454 OFFCURVE",
"236 -310 OFFCURVE",
"340 97 CURVE SMOOTH",
"397 324 LINE SMOOTH",
"400 334 OFFCURVE",
"395 343 OFFCURVE",
"384 346 CURVE SMOOTH",
"307 362 LINE SMOOTH",
"298 365 OFFCURVE",
"288 360 OFFCURVE",
"286 349 CURVE",
"223 110 LINE SMOOTH",
"95 -379 OFFCURVE",
"250 -665 OFFCURVE",
"677 -665 CURVE SMOOTH"
);
}
);
width = 1693;
}
);
unicode = FEF0;
},
{
glyphname = "yehTail-ar";
lastChange = "2016-02-11 17:42:53 +0000";
layers = (
{
anchors = (
{
name = bottom;
position = "{1124, -824}";
},
{
name = top;
position = "{967, 540}";
}
);
layerId = "93A312F7-B931-4485-B08E-C367313EB5E7";
name = Regular;
paths = (
{
closed = 1;
nodes = (
"1460 -637 OFFCURVE",
"2017 -409 OFFCURVE",
"2006 -110 CURVE SMOOTH",
"2004 -31 OFFCURVE",
"1960 -2 OFFCURVE",
"1818 10 CURVE SMOOTH",
"1573 31 LINE SMOOTH",
"1435 47 OFFCURVE",
"1356 90 OFFCURVE",
"1376 157 CURVE",
"1436 296 OFFCURVE",
"1554 414 OFFCURVE",
"1654 481 CURVE SMOOTH",
"1738 538 OFFCURVE",
"1801 524 OFFCURVE",
"1862 491 CURVE SMOOTH",
"1873 485 OFFCURVE",
"1882 488 OFFCURVE",
"1886 500 CURVE",
"1939 617 LINE SMOOTH",
"1943 625 OFFCURVE",
"1943 634 OFFCURVE",
"1937 642 CURVE SMOOTH",
"1903 691 OFFCURVE",
"1842 712 OFFCURVE",
"1781 712 CURVE SMOOTH",
"1622 712 OFFCURVE",
"1405 491 OFFCURVE",
"1312 262 CURVE SMOOTH",
"1193 -30 OFFCURVE",
"1246 -133 OFFCURVE",
"1520 -161 CURVE SMOOTH",
"1901 -198 LINE",
"1674 -349 OFFCURVE",
"1387 -434 OFFCURVE",
"1146 -431 CURVE SMOOTH",
"911 -427 OFFCURVE",
"755 -334 OFFCURVE",
"762 -71 CURVE SMOOTH",
"768 137 OFFCURVE",
"827 316 OFFCURVE",
"682 270 CURVE SMOOTH",
"474 205 OFFCURVE",
"364 169 OFFCURVE",
"202 121 CURVE SMOOTH",
"191 118 OFFCURVE",
"180 120 OFFCURVE",
"180 108 CURVE SMOOTH",
"180 95 OFFCURVE",
"266 -58 OFFCURVE",
"394 -24 CURVE SMOOTH",
"452 -8 OFFCURVE",
"557 31 OFFCURVE",
"662 67 CURVE",
"590 -388 OFFCURVE",
"696 -637 OFFCURVE",
"1129 -637 CURVE SMOOTH"
);
}
);
width = 2150;
}
);
unicode = 06CD;
},
{
glyphname = "yehTail-ar.fina";
lastChange = "2016-02-11 17:42:53 +0000";
layers = (
{
anchors = (
{
name = bottom;
position = "{1121, -840}";
},
{
name = top;
position = "{1145, 516}";
}
);
layerId = "93A312F7-B931-4485-B08E-C367313EB5E7";
name = Regular;
paths = (
{
closed = 1;
nodes = (
"1290 -665 OFFCURVE",
"1582 -595 OFFCURVE",
"1778 -469 CURVE SMOOTH",
"1901 -391 OFFCURVE",
"1958 -314 OFFCURVE",
"1958 -198 CURVE SMOOTH",
"1958 -98 OFFCURVE",
"1781 -19 OFFCURVE",
"1692 12 CURVE",
"1763 5 OFFCURVE",
"2040 0 OFFCURVE",
"2096 0 CURVE SMOOTH",
"2144 0 LINE",
"2195 62 OFFCURVE",
"2195 125 OFFCURVE",
"2144 187 CURVE",
"1588 187 LINE SMOOTH",
"1495 187 OFFCURVE",
"1486 188 OFFCURVE",
"1440 96 CURVE SMOOTH",
"1379 -29 OFFCURVE",
"1379 -30 OFFCURVE",
"1459 -61 CURVE SMOOTH",
"1602 -116 OFFCURVE",
"1751 -182 OFFCURVE",
"1843 -232 CURVE SMOOTH",
"1859 -240 OFFCURVE",
"1859 -246 OFFCURVE",
"1842 -256 CURVE SMOOTH",
"1590 -394 OFFCURVE",
"1363 -462 OFFCURVE",
"1146 -458 CURVE SMOOTH",
"911 -455 OFFCURVE",
"755 -367 OFFCURVE",
"762 -98 CURVE SMOOTH",
"768 109 OFFCURVE",
"816 284 OFFCURVE",
"682 242 CURVE SMOOTH",
"202 94 LINE SMOOTH",
"191 90 OFFCURVE",
"180 92 OFFCURVE",
"180 80 CURVE SMOOTH",
"180 67 OFFCURVE",
"266 -85 OFFCURVE",
"394 -52 CURVE SMOOTH",
"452 -36 OFFCURVE",
"557 4 OFFCURVE",
"662 40 CURVE",
"590 -415 OFFCURVE",
"696 -665 OFFCURVE",
"1129 -665 CURVE SMOOTH"
);
}
);
width = 2144;
}
);
},
{
glyphname = "yehbarree-ar";
lastChange = "2016-02-11 17:42:53 +0000";
layers = (
{
anchors = (
{
name = bottom;
position = "{964, -240}";
},
{
name = top;
position = "{880, 1057}";
}
);
layerId = "93A312F7-B931-4485-B08E-C367313EB5E7";
name = Regular;
paths = (
{
closed = 1;
nodes = (
"1786 -64 LINE",
"1783 16 OFFCURVE",
"1813 127 OFFCURVE",
"1672 127 CURVE SMOOTH",
"467 128 LINE SMOOTH",
"328 128 OFFCURVE",
"271 173 OFFCURVE",
"298 245 CURVE SMOOTH",
"344 372 OFFCURVE",
"708 455 OFFCURVE",
"847 685 CURVE SMOOTH",
"862 709 OFFCURVE",
"958 641 OFFCURVE",
"985 626 CURVE SMOOTH",
"996 620 OFFCURVE",
"1004 624 OFFCURVE",
"1009 636 CURVE",
"1062 752 LINE SMOOTH",
"1066 761 OFFCURVE",
"1066 769 OFFCURVE",
"1060 778 CURVE SMOOTH",
"1026 827 OFFCURVE",
"906 905 OFFCURVE",
"851 877 CURVE SMOOTH",
"775 840 OFFCURVE",
"796 752 OFFCURVE",
"556 616 CURVE SMOOTH",
"396 526 OFFCURVE",
"294 450 OFFCURVE",
"229 299 CURVE SMOOTH",
"128 71 OFFCURVE",
"180 -64 OFFCURVE",
"414 -64 CURVE SMOOTH"
);
}
);
width = 1931;
}
);
unicode = 06D2;
},
{
glyphname = "yehbarree-ar.fina";
lastChange = "2016-02-11 17:42:53 +0000";
layers = (
{
anchors = (
{
name = bottom;
position = "{739, -709}";
},
{
name = top;
position = "{788, 370}";
}
);
layerId = "93A312F7-B931-4485-B08E-C367313EB5E7";
name = Regular;
paths = (
{
closed = 1;
nodes = (
"568 187 OFFCURVE",
"341 80 OFFCURVE",
"229 -179 CURVE SMOOTH",
"128 -407 OFFCURVE",
"180 -529 OFFCURVE",
"414 -529 CURVE SMOOTH",
"1786 -529 LINE",
"1783 -450 OFFCURVE",
"1813 -350 OFFCURVE",
"1672 -350 CURVE SMOOTH",
"467 -349 LINE SMOOTH",
"328 -349 OFFCURVE",
"271 -305 OFFCURVE",
"298 -233 CURVE SMOOTH",
"335 -133 OFFCURVE",
"492 0 OFFCURVE",
"754 0 CURVE SMOOTH",
"1051 0 LINE",
"1102 62 OFFCURVE",
"1102 125 OFFCURVE",
"1051 187 CURVE",
"774 187 LINE"
);
}
);
width = 1051;
}
);
unicode = FBAF;
},
{
glyphname = "yehbarree-ar.fina.001";
lastChange = "2016-02-11 17:42:53 +0000";
layers = (
{
layerId = "93A312F7-B931-4485-B08E-C367313EB5E7";
name = Regular;
paths = (
{
closed = 1;
nodes = (
"1786 -529 LINE",
"1783 -450 OFFCURVE",
"1813 -350 OFFCURVE",
"1672 -350 CURVE SMOOTH",
"467 -349 LINE SMOOTH",
"328 -349 OFFCURVE",
"271 -305 OFFCURVE",
"298 -233 CURVE SMOOTH",
"335 -133 OFFCURVE",
"607 -58 OFFCURVE",
"718 85 CURVE SMOOTH",
"820 216 OFFCURVE",
"877 210 OFFCURVE",
"942 151 CURVE SMOOTH",
"1061 47 OFFCURVE",
"1186 0 OFFCURVE",
"1306 0 CURVE SMOOTH",
"1435 0 LINE",
"1486 62 OFFCURVE",
"1486 125 OFFCURVE",
"1435 187 CURVE",
"1338 187 LINE SMOOTH",
"1132 187 OFFCURVE",
"1102 252 OFFCURVE",
"1016 324 CURVE SMOOTH",
"918 408 OFFCURVE",
"845 414 OFFCURVE",
"755 301 CURVE SMOOTH",
"718 256 OFFCURVE",
"661 198 OFFCURVE",
"556 138 CURVE SMOOTH",
"396 48 OFFCURVE",
"294 -28 OFFCURVE",
"229 -179 CURVE SMOOTH",
"128 -407 OFFCURVE",
"180 -529 OFFCURVE",
"414 -529 CURVE SMOOTH"
);
}
);
width = 1435;
}
);
},
{
glyphname = "kashida-ar";
lastChange = "2016-02-11 17:42:53 +0000";
layers = (
{
layerId = "93A312F7-B931-4485-B08E-C367313EB5E7";
name = Regular;
paths = (
{
closed = 1;
nodes = (
"482 0 LINE",
"533 62 OFFCURVE",
"533 125 OFFCURVE",
"482 187 CURVE",
"0 187 LINE SMOOTH",
"-124 187 OFFCURVE",
"-124 0 OFFCURVE",
"0 0 CURVE SMOOTH"
);
}
);
width = 482;
}
);
unicode = 0640;
},
{
glyphname = "lam_alef-ar";
lastChange = "2016-02-11 17:42:53 +0000";
layers = (
{
anchors = (
{
name = bottom_1;
position = "{1025, -173}";
},
{
name = bottom_2;
position = "{410, -181}";
},
{
name = caret_1;
position = "{584, 1697}";
},
{
name = top_1;
position = "{1012, 1798}";
},
{
name = top_2;
position = "{254, 1568}";
}
);
layerId = "93A312F7-B931-4485-B08E-C367313EB5E7";
name = Regular;
paths = (
{
closed = 1;
nodes = (
"380 -5 OFFCURVE",
"1068 -49 OFFCURVE",
"1135 146 CURVE SMOOTH",
"1211 366 OFFCURVE",
"1109 530 OFFCURVE",
"922 733 CURVE",
"1060 1034 OFFCURVE",
"1046 1064 OFFCURVE",
"1043 1602 CURVE",
"1043 1618 OFFCURVE",
"1032 1625 OFFCURVE",
"1021 1616 CURVE SMOOTH",
"886 1516 LINE",
"878 1510 OFFCURVE",
"874 1504 OFFCURVE",
"874 1493 CURVE SMOOTH",
"877 1000 OFFCURVE",
"916 966 OFFCURVE",
"845 800 CURVE",
"259 1452 LINE SMOOTH",
"250 1463 OFFCURVE",
"239 1460 OFFCURVE",
"234 1446 CURVE SMOOTH",
"181 1288 LINE",
"178 1278 OFFCURVE",
"180 1271 OFFCURVE",
"186 1264 CURVE",
"718 683 LINE",
"370 196 LINE",
"364 188 OFFCURVE",
"356 184 OFFCURVE",
"347 185 CURVE SMOOTH",
"238 197 LINE SMOOTH",
"226 198 OFFCURVE",
"218 191 OFFCURVE",
"221 179 CURVE SMOOTH",
"247 22 LINE",
"248 11 OFFCURVE",
"254 6 OFFCURVE",
"265 5 CURVE SMOOTH"
);
},
{
closed = 1;
nodes = (
"505 182 OFFCURVE",
"500 192 OFFCURVE",
"509 204 CURVE SMOOTH",
"794 618 LINE",
"854 560 OFFCURVE",
"1025 371 OFFCURVE",
"1072 265 CURVE SMOOTH",
"1081 244 OFFCURVE",
"1070 227 OFFCURVE",
"1048 222 CURVE SMOOTH",
"887 185 OFFCURVE",
"650 175 OFFCURVE",
"520 182 CURVE"
);
}
);
width = 1304;
}
);
unicode = FEFB;
},
{
glyphname = "lam_alef-ar.fina";
lastChange = "2016-02-11 17:42:53 +0000";
layers = (
{
anchors = (
{
name = bottom_1;
position = "{1226, -181}";
},
{
name = bottom_2;
position = "{304, -341}";
},
{
name = caret_1;
position = "{684, 1598}";
},
{
name = top_1;
position = "{1190, 1710}";
},
{
name = top_2;
position = "{349, 1457}";
}
);
layerId = "93A312F7-B931-4485-B08E-C367313EB5E7";
name = Regular;
paths = (
{
closed = 1;
nodes = (
"835 -86 OFFCURVE",
"966 41 OFFCURVE",
"1007 595 CURVE",
"1033 139 OFFCURVE",
"1093 0 OFFCURVE",
"1392 0 CURVE SMOOTH",
"1463 0 LINE SMOOTH",
"1472 0 OFFCURVE",
"1478 2 OFFCURVE",
"1484 11 CURVE SMOOTH",
"1524 66 OFFCURVE",
"1524 121 OFFCURVE",
"1484 176 CURVE SMOOTH",
"1478 185 OFFCURVE",
"1472 187 OFFCURVE",
"1463 187 CURVE SMOOTH",
"1406 187 LINE SMOOTH",
"1346 187 OFFCURVE",
"1235 206 OFFCURVE",
"1162 244 CURVE",
"1120 679 OFFCURVE",
"1102 1116 OFFCURVE",
"1108 1552 CURVE SMOOTH",
"1108 1566 OFFCURVE",
"1097 1570 OFFCURVE",
"1085 1562 CURVE SMOOTH",
"943 1476 OFFCURVE",
"937 1475 OFFCURVE",
"940 1280 CURVE SMOOTH",
"944 925 OFFCURVE",
"932 373 OFFCURVE",
"745 194 CURVE",
"702 473 OFFCURVE",
"388 1127 OFFCURVE",
"317 1274 CURVE SMOOTH",
"311 1288 OFFCURVE",
"299 1289 OFFCURVE",
"292 1277 CURVE SMOOTH",
"203 1124 LINE SMOOTH",
"198 1116 OFFCURVE",
"197 1109 OFFCURVE",
"202 1099 CURVE SMOOTH",
"360 785 OFFCURVE",
"503 480 OFFCURVE",
"631 173 CURVE SMOOTH",
"647 137 OFFCURVE",
"641 110 OFFCURVE",
"605 97 CURVE SMOOTH",
"503 59 OFFCURVE",
"365 26 OFFCURVE",
"194 -8 CURVE SMOOTH",
"182 -11 OFFCURVE",
"176 -20 OFFCURVE",
"184 -31 CURVE SMOOTH",
"256 -143 LINE",
"260 -151 OFFCURVE",
"268 -157 OFFCURVE",
"278 -155 CURVE"
);
}
);
width = 1476;
}
);
unicode = FEFC;
},
{
glyphname = "allah-ar";
lastChange = "2016-02-11 17:42:53 +0000";
layers = (
{
layerId = "93A312F7-B931-4485-B08E-C367313EB5E7";
name = Regular;
paths = (
{
closed = 1;
nodes = (
"1919 -37 OFFCURVE",
"2052 13 OFFCURVE",
"2104 119 CURVE SMOOTH",
"2176 260 OFFCURVE",
"2183 305 OFFCURVE",
"2146 604 CURVE SMOOTH",
"2081 1088 LINE",
"2078 1102 OFFCURVE",
"2069 1106 OFFCURVE",
"2057 1097 CURVE",
"1922 1000 OFFCURVE",
"1928 1006 OFFCURVE",
"1952 871 CURVE SMOOTH",
"2066 226 LINE",
"2068 216 OFFCURVE",
"2065 209 OFFCURVE",
"2056 203 CURVE",
"1903 115 OFFCURVE",
"1708 98 OFFCURVE",
"1608 214 CURVE SMOOTH",
"1568 259 OFFCURVE",
"1559 305 OFFCURVE",
"1547 536 CURVE SMOOTH",
"1524 965 LINE",
"1523 978 OFFCURVE",
"1514 985 OFFCURVE",
"1502 978 CURVE",
"1386 914 LINE",
"1385 913 LINE",
"1385 912 OFFCURVE",
"1384 908 OFFCURVE",
"1385 899 CURVE",
"1441 223 LINE SMOOTH",
"1442 212 OFFCURVE",
"1439 206 OFFCURVE",
"1429 202 CURVE SMOOTH",
"1358 164 OFFCURVE",
"1222 136 OFFCURVE",
"1142 137 CURVE SMOOTH",
"900 139 OFFCURVE",
"900 244 OFFCURVE",
"887 767 CURVE SMOOTH",
"880 1078 LINE",
"880 1093 OFFCURVE",
"869 1097 OFFCURVE",
"857 1088 CURVE SMOOTH",
"746 1014 LINE",
"738 1009 OFFCURVE",
"734 1002 OFFCURVE",
"736 991 CURVE",
"749 787 LINE",
"750 778 OFFCURVE",
"745 769 OFFCURVE",
"737 764 CURVE",
"496 646 OFFCURVE",
"204 458 OFFCURVE",
"181 163 CURVE",
"180 155 OFFCURVE",
"180 150 OFFCURVE",
"181 142 CURVE",
"204 41 OFFCURVE",
"372 -4 OFFCURVE",
"539 -8 CURVE SMOOTH",
"746 -8 OFFCURVE",
"760 44 OFFCURVE",
"820 144 CURVE",
"877 16 OFFCURVE",
"996 -32 OFFCURVE",
"1129 -31 CURVE SMOOTH",
"1273 -30 OFFCURVE",
"1430 28 OFFCURVE",
"1508 109 CURVE",
"1560 28 OFFCURVE",
"1658 -40 OFFCURVE",
"1794 -38 CURVE SMOOTH"
);
},
{
closed = 1;
nodes = (
"608 132 OFFCURVE",
"346 168 OFFCURVE",
"271 259 CURVE",
"268 264 OFFCURVE",
"268 270 OFFCURVE",
"272 280 CURVE SMOOTH",
"332 396 OFFCURVE",
"538 528 OFFCURVE",
"740 617 CURVE",
"754 622 OFFCURVE",
"762 617 OFFCURVE",
"763 604 CURVE SMOOTH",
"798 228 LINE SMOOTH",
"799 218 OFFCURVE",
"794 210 OFFCURVE",
"785 206 CURVE"
);
},
{
closed = 1;
nodes = (
"1334 1117 OFFCURVE",
"1417 1134 OFFCURVE",
"1465 1172 CURVE",
"1505 1141 OFFCURVE",
"1574 1136 OFFCURVE",
"1624 1144 CURVE SMOOTH",
"1796 1170 OFFCURVE",
"1734 1376 OFFCURVE",
"1723 1411 CURVE SMOOTH",
"1715 1441 OFFCURVE",
"1706 1477 OFFCURVE",
"1699 1508 CURVE SMOOTH",
"1697 1520 OFFCURVE",
"1688 1524 OFFCURVE",
"1679 1517 CURVE SMOOTH",
"1643 1489 LINE",
"1636 1483 OFFCURVE",
"1633 1478 OFFCURVE",
"1634 1469 CURVE",
"1694 1274 LINE",
"1638 1252 OFFCURVE",
"1589 1230 OFFCURVE",
"1505 1258 CURVE",
"1494 1424 LINE",
"1493 1433 OFFCURVE",
"1487 1438 OFFCURVE",
"1477 1438 CURVE SMOOTH",
"1445 1438 LINE SMOOTH",
"1436 1438 OFFCURVE",
"1430 1430 OFFCURVE",
"1432 1422 CURVE",
"1433 1254 LINE",
"1378 1234 OFFCURVE",
"1324 1218 OFFCURVE",
"1237 1244 CURVE",
"1248 1439 LINE",
"1249 1448 OFFCURVE",
"1243 1454 OFFCURVE",
"1235 1456 CURVE",
"1214 1457 LINE",
"1205 1458 OFFCURVE",
"1198 1452 OFFCURVE",
"1198 1442 CURVE",
"1184 1276 LINE SMOOTH",
"1178 1210 OFFCURVE",
"1201 1146 OFFCURVE",
"1264 1133 CURVE SMOOTH"
);
},
{
closed = 1;
nodes = (
"1477 1516 LINE",
"1487 1520 OFFCURVE",
"1492 1526 OFFCURVE",
"1492 1537 CURVE SMOOTH",
"1493 1838 LINE SMOOTH",
"1493 1854 OFFCURVE",
"1483 1860 OFFCURVE",
"1471 1854 CURVE",
"1420 1835 LINE SMOOTH",
"1409 1831 OFFCURVE",
"1404 1822 OFFCURVE",
"1405 1811 CURVE",
"1424 1512 LINE SMOOTH",
"1426 1495 OFFCURVE",
"1435 1490 OFFCURVE",
"1448 1499 CURVE"
);
},
{
closed = 1;
nodes = (
"2504 -16 OFFCURVE",
"2516 20 OFFCURVE",
"2516 120 CURVE",
"2508 1585 LINE",
"2508 1604 OFFCURVE",
"2489 1616 OFFCURVE",
"2476 1604 CURVE SMOOTH",
"2350 1494 LINE SMOOTH",
"2338 1483 OFFCURVE",
"2327 1472 OFFCURVE",
"2328 1444 CURVE SMOOTH",
"2389 -16 LINE",
"2390 -30 OFFCURVE",
"2402 -38 OFFCURVE",
"2417 -35 CURVE SMOOTH"
);
}
);
width = 2660;
}
);
unicode = FDF2;
},
{
glyphname = "decimalseparator-ar";
lastChange = "2016-02-11 17:42:53 +0000";
layers = (
{
layerId = "93A312F7-B931-4485-B08E-C367313EB5E7";
name = Regular;
paths = (
{
closed = 1;
nodes = (
"210 -432 OFFCURVE",
"218 -427 OFFCURVE",
"221 -420 CURVE",
"666 738 LINE SMOOTH",
"671 750 OFFCURVE",
"664 764 OFFCURVE",
"650 766 CURVE SMOOTH",
"587 773 LINE",
"580 774 OFFCURVE",
"571 769 OFFCURVE",
"569 762 CURVE",
"121 -396 LINE SMOOTH",
"116 -409 OFFCURVE",
"124 -422 OFFCURVE",
"137 -424 CURVE SMOOTH",
"203 -431 LINE"
);
}
);
width = 787;
}
);
unicode = 066B;
},
{
glyphname = "thousandseparator-ar";
lastChange = "2016-02-11 17:42:54 +0000";
layers = (
{
layerId = "93A312F7-B931-4485-B08E-C367313EB5E7";
name = Regular;
paths = (
{
closed = 1;
nodes = (
"205 17 OFFCURVE",
"211 20 OFFCURVE",
"215 28 CURVE SMOOTH",
"497 588 LINE SMOOTH",
"504 601 OFFCURVE",
"496 616 OFFCURVE",
"481 618 CURVE",
"421 625 LINE",
"414 626 OFFCURVE",
"408 623 OFFCURVE",
"404 616 CURVE SMOOTH",
"122 55 LINE SMOOTH",
"115 42 OFFCURVE",
"124 28 OFFCURVE",
"138 25 CURVE",
"198 18 LINE"
);
}
);
width = 619;
}
);
unicode = 066C;
},
{
glyphname = "zero-ar";
lastChange = "2016-02-11 17:42:54 +0000";
layers = (
{
layerId = "93A312F7-B931-4485-B08E-C367313EB5E7";
name = Regular;
paths = (
{
closed = 1;
nodes = (
"404 179 OFFCURVE",
"472 180 OFFCURVE",
"516 226 CURVE SMOOTH",
"716 431 LINE SMOOTH",
"760 475 OFFCURVE",
"760 541 OFFCURVE",
"715 586 CURVE SMOOTH",
"515 786 LINE SMOOTH",
"470 830 OFFCURVE",
"404 830 OFFCURVE",
"360 787 CURVE SMOOTH",
"155 587 LINE SMOOTH",
"109 542 OFFCURVE",
"108 475 OFFCURVE",
"154 430 CURVE SMOOTH",
"359 224 LINE SMOOTH"
);
},
{
closed = 1;
nodes = (
"254 506 LINE",
"436 683 LINE",
"612 506 LINE",
"436 325 LINE"
);
}
);
width = 869;
}
);
unicode = 0660;
userData = {
com.typemytype.robofont.guides = (
{
angle = 90;
isGlobal = 0;
x = "-273";
y = 474;
}
);
};
},
{
glyphname = "one-ar";
lastChange = "2016-02-11 17:42:53 +0000";
layers = (
{
layerId = "93A312F7-B931-4485-B08E-C367313EB5E7";
name = Regular;
paths = (
{
closed = 1;
nodes = (
"456 -4 LINE SMOOTH",
"466 -1 OFFCURVE",
"472 6 OFFCURVE",
"472 17 CURVE",
"467 612 OFFCURVE",
"450 962 OFFCURVE",
"271 1316 CURVE",
"265 1330 OFFCURVE",
"254 1331 OFFCURVE",
"246 1319 CURVE SMOOTH",
"125 1152 LINE SMOOTH",
"119 1144 OFFCURVE",
"119 1136 OFFCURVE",
"124 1127 CURVE",
"349 720 OFFCURVE",
"352 278 OFFCURVE",
"356 -7 CURVE SMOOTH",
"356 -20 OFFCURVE",
"362 -26 OFFCURVE",
"376 -23 CURVE SMOOTH"
);
}
);
width = 592;
}
);
unicode = 0661;
},
{
glyphname = "two-ar";
lastChange = "2016-02-11 17:42:53 +0000";
layers = (
{
layerId = "93A312F7-B931-4485-B08E-C367313EB5E7";
name = Regular;
paths = (
{
closed = 1;
nodes = (
"456 -4 LINE SMOOTH",
"466 -1 OFFCURVE",
"472 5 OFFCURVE",
"472 16 CURVE SMOOTH",
"479 271 OFFCURVE",
"467 548 OFFCURVE",
"421 841 CURVE SMOOTH",
"419 854 OFFCURVE",
"426 860 OFFCURVE",
"439 858 CURVE SMOOTH",
"715 808 OFFCURVE",
"899 942 OFFCURVE",
"910 1318 CURVE SMOOTH",
"910 1331 OFFCURVE",
"902 1333 OFFCURVE",
"890 1336 CURVE SMOOTH",
"810 1350 LINE",
"799 1352 OFFCURVE",
"793 1342 OFFCURVE",
"792 1331 CURVE",
"778 1085 OFFCURVE",
"601 1044 OFFCURVE",
"425 1092 CURVE SMOOTH",
"416 1094 OFFCURVE",
"410 1098 OFFCURVE",
"404 1104 CURVE",
"366 1147 OFFCURVE",
"319 1231 OFFCURVE",
"271 1318 CURVE",
"265 1330 OFFCURVE",
"254 1331 OFFCURVE",
"246 1319 CURVE SMOOTH",
"125 1152 LINE SMOOTH",
"119 1144 OFFCURVE",
"119 1136 OFFCURVE",
"124 1127 CURVE",
"349 720 OFFCURVE",
"352 278 OFFCURVE",
"356 -7 CURVE SMOOTH",
"356 -20 OFFCURVE",
"362 -26 OFFCURVE",
"376 -23 CURVE SMOOTH"
);
}
);
width = 1030;
}
);
unicode = 0662;
},
{
glyphname = "three-ar";
lastChange = "2016-02-11 17:42:53 +0000";
layers = (
{
layerId = "93A312F7-B931-4485-B08E-C367313EB5E7";
name = Regular;
paths = (
{
closed = 1;
nodes = (
"456 -4 LINE SMOOTH",
"466 -1 OFFCURVE",
"472 6 OFFCURVE",
"472 17 CURVE",
"468 367 OFFCURVE",
"481 497 OFFCURVE",
"418 863 CURVE",
"563 830 OFFCURVE",
"680 862 OFFCURVE",
"743 948 CURVE",
"958 798 OFFCURVE",
"1193 937 OFFCURVE",
"1187 1206 CURVE SMOOTH",
"1183 1361 LINE",
"1183 1373 OFFCURVE",
"1177 1378 OFFCURVE",
"1166 1379 CURVE SMOOTH",
"1103 1386 LINE SMOOTH",
"1091 1387 OFFCURVE",
"1084 1381 OFFCURVE",
"1084 1369 CURVE SMOOTH",
"1084 1130 OFFCURVE",
"1025 1040 OFFCURVE",
"790 1105 CURVE",
"794 1360 LINE SMOOTH",
"794 1370 OFFCURVE",
"787 1378 OFFCURVE",
"776 1378 CURVE",
"713 1380 LINE",
"702 1380 OFFCURVE",
"695 1374 OFFCURVE",
"695 1361 CURVE SMOOTH",
"690 1171 OFFCURVE",
"674 1069 OFFCURVE",
"532 1066 CURVE SMOOTH",
"371 1060 OFFCURVE",
"340 1157 OFFCURVE",
"271 1318 CURVE SMOOTH",
"266 1330 OFFCURVE",
"254 1331 OFFCURVE",
"246 1319 CURVE SMOOTH",
"125 1152 LINE SMOOTH",
"119 1144 OFFCURVE",
"119 1136 OFFCURVE",
"124 1127 CURVE",
"349 720 OFFCURVE",
"352 278 OFFCURVE",
"356 -7 CURVE SMOOTH",
"356 -20 OFFCURVE",
"362 -26 OFFCURVE",
"376 -23 CURVE SMOOTH"
);
}
);
width = 1307;
}
);
unicode = 0663;
},
{
glyphname = "four-ar";
lastChange = "2016-02-11 17:42:53 +0000";
layers = (
{
layerId = "93A312F7-B931-4485-B08E-C367313EB5E7";
name = Regular;
paths = (
{
closed = 1;
nodes = (
"853 26 OFFCURVE",
"859 31 OFFCURVE",
"862 42 CURVE",
"910 206 LINE",
"913 221 OFFCURVE",
"907 227 OFFCURVE",
"893 224 CURVE SMOOTH",
"628 176 OFFCURVE",
"229 184 OFFCURVE",
"229 293 CURVE SMOOTH",
"229 364 OFFCURVE",
"466 534 OFFCURVE",
"650 631 CURVE SMOOTH",
"660 636 OFFCURVE",
"664 644 OFFCURVE",
"661 654 CURVE",
"629 810 LINE",
"626 820 OFFCURVE",
"620 826 OFFCURVE",
"610 827 CURVE SMOOTH",
"512 838 OFFCURVE",
"365 865 OFFCURVE",
"269 940 CURVE",
"356 1036 OFFCURVE",
"493 1129 OFFCURVE",
"650 1216 CURVE",
"660 1220 OFFCURVE",
"664 1226 OFFCURVE",
"664 1237 CURVE SMOOTH",
"667 1376 LINE SMOOTH",
"667 1390 OFFCURVE",
"659 1396 OFFCURVE",
"647 1390 CURVE SMOOTH",
"390 1254 OFFCURVE",
"160 1073 OFFCURVE",
"160 847 CURVE SMOOTH",
"160 732 OFFCURVE",
"337 690 OFFCURVE",
"442 670 CURVE",
"290 565 OFFCURVE",
"121 380 OFFCURVE",
"120 199 CURVE SMOOTH",
"118 -78 OFFCURVE",
"629 -10 OFFCURVE",
"844 25 CURVE"
);
}
);
width = 1031;
}
);
unicode = 0664;
},
{
glyphname = "five-ar";
lastChange = "2016-02-11 17:42:53 +0000";
layers = (
{
layerId = "93A312F7-B931-4485-B08E-C367313EB5E7";
name = Regular;
paths = (
{
closed = 1;
nodes = (
"683 133 OFFCURVE",
"852 377 OFFCURVE",
"852 689 CURVE SMOOTH",
"852 943 OFFCURVE",
"643 1146 OFFCURVE",
"464 1146 CURVE SMOOTH",
"251 1146 OFFCURVE",
"120 734 OFFCURVE",
"120 500 CURVE SMOOTH",
"120 226 OFFCURVE",
"227 144 OFFCURVE",
"380 140 CURVE SMOOTH"
);
},
{
closed = 1;
nodes = (
"311 360 OFFCURVE",
"218 421 OFFCURVE",
"218 554 CURVE SMOOTH",
"218 642 OFFCURVE",
"250 911 OFFCURVE",
"412 911 CURVE SMOOTH",
"539 911 OFFCURVE",
"750 742 OFFCURVE",
"750 578 CURVE SMOOTH",
"750 492 OFFCURVE",
"583 358 OFFCURVE",
"442 359 CURVE SMOOTH"
);
}
);
width = 972;
}
);
unicode = 0665;
},
{
glyphname = "six-ar";
lastChange = "2016-02-11 17:42:54 +0000";
layers = (
{
layerId = "93A312F7-B931-4485-B08E-C367313EB5E7";
name = Regular;
paths = (
{
closed = 1;
nodes = (
"967 80 LINE",
"974 88 OFFCURVE",
"977 96 OFFCURVE",
"972 106 CURVE SMOOTH",
"823 420 OFFCURVE",
"799 760 OFFCURVE",
"847 1120 CURVE SMOOTH",
"848 1128 OFFCURVE",
"848 1135 OFFCURVE",
"846 1142 CURVE",
"806 1292 LINE",
"804 1303 OFFCURVE",
"796 1308 OFFCURVE",
"785 1307 CURVE SMOOTH",
"604 1291 OFFCURVE",
"325 1286 OFFCURVE",
"146 1338 CURVE SMOOTH",
"134 1342 OFFCURVE",
"126 1336 OFFCURVE",
"126 1324 CURVE SMOOTH",
"120 1133 LINE SMOOTH",
"120 1122 OFFCURVE",
"125 1116 OFFCURVE",
"136 1112 CURVE",
"293 1069 OFFCURVE",
"574 1076 OFFCURVE",
"733 1097 CURVE",
"684 670 OFFCURVE",
"674 338 OFFCURVE",
"814 -28 CURVE SMOOTH",
"818 -40 OFFCURVE",
"828 -43 OFFCURVE",
"839 -34 CURVE SMOOTH"
);
}
);
width = 1094;
}
);
unicode = 0666;
},
{
glyphname = "seven-ar";
lastChange = "2016-02-11 17:42:54 +0000";
layers = (
{
layerId = "93A312F7-B931-4485-B08E-C367313EB5E7";
name = Regular;
paths = (
{
closed = 1;
nodes = (
"760 13 LINE SMOOTH",
"768 17 OFFCURVE",
"774 22 OFFCURVE",
"775 31 CURVE",
"846 396 OFFCURVE",
"953 841 OFFCURVE",
"1136 1224 CURVE",
"1140 1234 OFFCURVE",
"1139 1241 OFFCURVE",
"1134 1249 CURVE",
"1052 1370 LINE",
"1045 1382 OFFCURVE",
"1034 1381 OFFCURVE",
"1028 1369 CURVE SMOOTH",
"864 1043 OFFCURVE",
"772 658 OFFCURVE",
"697 311 CURVE",
"652 690 OFFCURVE",
"414 1102 OFFCURVE",
"265 1340 CURVE SMOOTH",
"258 1352 OFFCURVE",
"247 1352 OFFCURVE",
"240 1342 CURVE",
"125 1187 LINE SMOOTH",
"119 1178 OFFCURVE",
"118 1171 OFFCURVE",
"124 1162 CURVE SMOOTH",
"362 780 OFFCURVE",
"509 562 OFFCURVE",
"628 -17 CURVE SMOOTH",
"630 -30 OFFCURVE",
"638 -35 OFFCURVE",
"649 -30 CURVE"
);
}
);
width = 1259;
}
);
unicode = 0667;
},
{
glyphname = "eight-ar";
lastChange = "2016-02-11 17:42:53 +0000";
layers = (
{
layerId = "93A312F7-B931-4485-B08E-C367313EB5E7";
name = Regular;
paths = (
{
closed = 1;
nodes = (
"214 -38 OFFCURVE",
"224 -38 OFFCURVE",
"230 -24 CURVE SMOOTH",
"372 302 OFFCURVE",
"487 709 OFFCURVE",
"538 1008 CURVE",
"583 700 OFFCURVE",
"821 221 OFFCURVE",
"970 -22 CURVE SMOOTH",
"977 -34 OFFCURVE",
"988 -34 OFFCURVE",
"995 -23 CURVE",
"1110 132 LINE SMOOTH",
"1116 140 OFFCURVE",
"1117 148 OFFCURVE",
"1111 157 CURVE",
"874 493 OFFCURVE",
"726 803 OFFCURVE",
"608 1357 CURVE SMOOTH",
"606 1370 OFFCURVE",
"595 1374 OFFCURVE",
"584 1366 CURVE SMOOTH",
"484 1290 LINE",
"476 1285 OFFCURVE",
"473 1278 OFFCURVE",
"472 1268 CURVE SMOOTH",
"421 917 OFFCURVE",
"295 480 OFFCURVE",
"122 119 CURVE",
"119 109 OFFCURVE",
"120 102 OFFCURVE",
"125 94 CURVE",
"205 -26 LINE SMOOTH"
);
}
);
width = 1235;
}
);
unicode = 0668;
},
{
glyphname = "nine-ar";
lastChange = "2016-02-11 17:42:53 +0000";
layers = (
{
layerId = "93A312F7-B931-4485-B08E-C367313EB5E7";
name = Regular;
paths = (
{
closed = 1;
nodes = (
"919 121 LINE",
"925 128 OFFCURVE",
"926 136 OFFCURVE",
"923 145 CURVE",
"823 355 OFFCURVE",
"785 564 OFFCURVE",
"767 799 CURVE SMOOTH",
"750 1040 OFFCURVE",
"724 1375 OFFCURVE",
"450 1375 CURVE SMOOTH",
"246 1375 OFFCURVE",
"120 1085 OFFCURVE",
"120 875 CURVE SMOOTH",
"120 650 OFFCURVE",
"266 577 OFFCURVE",
"412 582 CURVE SMOOTH",
"502 584 OFFCURVE",
"593 618 OFFCURVE",
"646 662 CURVE",
"656 431 OFFCURVE",
"674 212 OFFCURVE",
"760 -25 CURVE SMOOTH",
"764 -38 OFFCURVE",
"774 -40 OFFCURVE",
"784 -30 CURVE"
);
},
{
closed = 1;
nodes = (
"474 780 OFFCURVE",
"362 769 OFFCURVE",
"245 823 CURVE SMOOTH",
"238 827 OFFCURVE",
"233 832 OFFCURVE",
"232 841 CURVE SMOOTH",
"208 997 OFFCURVE",
"302 1180 OFFCURVE",
"434 1180 CURVE SMOOTH",
"541 1180 OFFCURVE",
"619 1016 OFFCURVE",
"632 834 CURVE",
"634 823 OFFCURVE",
"628 816 OFFCURVE",
"617 814 CURVE SMOOTH"
);
}
);
width = 1045;
}
);
unicode = 0669;
},
{
glyphname = "four-persian";
lastChange = "2016-02-11 17:42:53 +0000";
layers = (
{
layerId = "93A312F7-B931-4485-B08E-C367313EB5E7";
name = Regular;
paths = (
{
closed = 1;
nodes = (
"455 -4 LINE SMOOTH",
"464 -1 OFFCURVE",
"470 5 OFFCURVE",
"470 17 CURVE",
"468 317 OFFCURVE",
"462 532 OFFCURVE",
"434 739 CURVE",
"492 715 OFFCURVE",
"566 702 OFFCURVE",
"644 701 CURVE SMOOTH",
"803 698 OFFCURVE",
"977 734 OFFCURVE",
"1060 761 CURVE",
"1069 764 OFFCURVE",
"1073 770 OFFCURVE",
"1075 780 CURVE",
"1105 925 LINE",
"1108 940 OFFCURVE",
"1100 946 OFFCURVE",
"1087 943 CURVE SMOOTH",
"936 911 OFFCURVE",
"764 892 OFFCURVE",
"656 898 CURVE",
"649 899 OFFCURVE",
"644 902 OFFCURVE",
"642 910 CURVE SMOOTH",
"542 1204 LINE SMOOTH",
"539 1214 OFFCURVE",
"544 1223 OFFCURVE",
"553 1226 CURVE SMOOTH",
"685 1273 OFFCURVE",
"810 1258 OFFCURVE",
"954 1237 CURVE",
"966 1236 OFFCURVE",
"973 1243 OFFCURVE",
"972 1255 CURVE",
"955 1378 LINE SMOOTH",
"954 1388 OFFCURVE",
"949 1393 OFFCURVE",
"940 1397 CURVE SMOOTH",
"800 1445 OFFCURVE",
"550 1450 OFFCURVE",
"464 1303 CURVE SMOOTH",
"410 1211 OFFCURVE",
"409 1069 OFFCURVE",
"485 905 CURVE",
"385 911 OFFCURVE",
"319 1153 OFFCURVE",
"266 1291 CURVE SMOOTH",
"262 1303 OFFCURVE",
"251 1304 OFFCURVE",
"242 1294 CURVE SMOOTH",
"125 1152 LINE",
"119 1144 OFFCURVE",
"118 1136 OFFCURVE",
"122 1127 CURVE SMOOTH",
"340 720 OFFCURVE",
"350 278 OFFCURVE",
"355 -7 CURVE SMOOTH",
"355 -20 OFFCURVE",
"361 -26 OFFCURVE",
"374 -23 CURVE SMOOTH"
);
}
);
width = 1225;
}
);
unicode = 06F4;
},
{
glyphname = "four-persian.urdu";
lastChange = "2016-02-11 17:42:53 +0000";
layers = (
{
layerId = "93A312F7-B931-4485-B08E-C367313EB5E7";
name = Regular;
paths = (
{
closed = 1;
nodes = (
"539 -47 OFFCURVE",
"551 -47 OFFCURVE",
"557 -32 CURVE SMOOTH",
"638 150 LINE",
"642 160 OFFCURVE",
"642 164 OFFCURVE",
"638 174 CURVE",
"316 902 LINE SMOOTH",
"188 1178 OFFCURVE",
"227 1316 OFFCURVE",
"337 1316 CURVE SMOOTH",
"476 1318 OFFCURVE",
"622 1098 OFFCURVE",
"673 932 CURVE SMOOTH",
"677 920 OFFCURVE",
"684 916 OFFCURVE",
"696 920 CURVE SMOOTH",
"778 950 LINE",
"786 954 OFFCURVE",
"791 959 OFFCURVE",
"794 967 CURVE SMOOTH",
"854 1112 OFFCURVE",
"924 1232 OFFCURVE",
"1093 1364 CURVE SMOOTH",
"1100 1370 OFFCURVE",
"1104 1376 OFFCURVE",
"1103 1387 CURVE SMOOTH",
"1090 1516 LINE SMOOTH",
"1088 1530 OFFCURVE",
"1079 1535 OFFCURVE",
"1067 1526 CURVE SMOOTH",
"959 1446 OFFCURVE",
"846 1320 OFFCURVE",
"768 1154 CURVE",
"668 1439 OFFCURVE",
"388 1663 OFFCURVE",
"216 1364 CURVE SMOOTH",
"58 1094 OFFCURVE",
"125 894 OFFCURVE",
"210 701 CURVE SMOOTH",
"533 -32 LINE SMOOTH"
);
}
);
width = 1223;
}
);
},
{
glyphname = "five-persian";
lastChange = "2016-02-11 17:42:54 +0000";
layers = (
{
layerId = "93A312F7-B931-4485-B08E-C367313EB5E7";
name = Regular;
paths = (
{
closed = 1;
nodes = (
"833 -22 OFFCURVE",
"953 157 OFFCURVE",
"962 318 CURVE SMOOTH",
"982 617 OFFCURVE",
"752 887 OFFCURVE",
"440 1262 CURVE SMOOTH",
"432 1273 OFFCURVE",
"421 1272 OFFCURVE",
"415 1260 CURVE SMOOTH",
"328 1093 LINE",
"323 1085 OFFCURVE",
"323 1078 OFFCURVE",
"330 1069 CURVE SMOOTH",
"420 968 LINE",
"302 810 OFFCURVE",
"120 542 OFFCURVE",
"120 247 CURVE SMOOTH",
"120 71 OFFCURVE",
"199 -14 OFFCURVE",
"302 -17 CURVE SMOOTH",
"372 -18 OFFCURVE",
"445 26 OFFCURVE",
"498 128 CURVE",
"533 2 OFFCURVE",
"616 -25 OFFCURVE",
"686 -24 CURVE SMOOTH"
);
},
{
closed = 1;
nodes = (
"654 168 OFFCURVE",
"586 202 OFFCURVE",
"572 317 CURVE SMOOTH",
"569 346 OFFCURVE",
"562 361 OFFCURVE",
"550 356 CURVE",
"475 331 LINE SMOOTH",
"466 328 OFFCURVE",
"461 322 OFFCURVE",
"458 312 CURVE",
"445 229 OFFCURVE",
"397 176 OFFCURVE",
"343 176 CURVE SMOOTH",
"276 176 OFFCURVE",
"211 226 OFFCURVE",
"211 316 CURVE SMOOTH",
"211 498 OFFCURVE",
"410 791 OFFCURVE",
"498 882 CURVE",
"648 714 OFFCURVE",
"841 446 OFFCURVE",
"876 306 CURVE",
"845 226 OFFCURVE",
"763 169 OFFCURVE",
"708 169 CURVE SMOOTH"
);
}
);
width = 1084;
}
);
unicode = 06F5;
},
{
glyphname = "six-persian";
lastChange = "2016-02-11 17:42:53 +0000";
layers = (
{
layerId = "93A312F7-B931-4485-B08E-C367313EB5E7";
name = Regular;
paths = (
{
closed = 1;
nodes = (
"270 -40 OFFCURVE",
"281 -40 OFFCURVE",
"287 -28 CURVE",
"458 245 OFFCURVE",
"667 604 OFFCURVE",
"1074 948 CURVE",
"1087 958 OFFCURVE",
"1092 967 OFFCURVE",
"1091 977 CURVE SMOOTH",
"1072 1152 LINE SMOOTH",
"1070 1168 OFFCURVE",
"1061 1170 OFFCURVE",
"1049 1160 CURVE SMOOTH",
"868 1013 OFFCURVE",
"707 808 OFFCURVE",
"632 730 CURVE",
"628 724 OFFCURVE",
"622 722 OFFCURVE",
"614 726 CURVE",
"448 798 OFFCURVE",
"277 946 OFFCURVE",
"238 1033 CURVE",
"307 1187 OFFCURVE",
"493 1266 OFFCURVE",
"710 1229 CURVE SMOOTH",
"722 1226 OFFCURVE",
"730 1231 OFFCURVE",
"731 1244 CURVE",
"737 1352 LINE",
"738 1363 OFFCURVE",
"733 1369 OFFCURVE",
"722 1373 CURVE SMOOTH",
"366 1487 OFFCURVE",
"144 1267 OFFCURVE",
"121 995 CURVE SMOOTH",
"104 799 OFFCURVE",
"324 646 OFFCURVE",
"494 587 CURVE",
"377 412 OFFCURVE",
"269 224 OFFCURVE",
"187 73 CURVE SMOOTH",
"182 64 OFFCURVE",
"184 56 OFFCURVE",
"191 48 CURVE SMOOTH",
"262 -30 LINE SMOOTH"
);
}
);
width = 1211;
}
);
unicode = 06F6;
},
{
glyphname = "seven-persian.urdu";
lastChange = "2016-02-11 17:42:53 +0000";
layers = (
{
layerId = "93A312F7-B931-4485-B08E-C367313EB5E7";
name = Regular;
paths = (
{
closed = 1;
nodes = (
"439 -30 OFFCURVE",
"707 -28 OFFCURVE",
"958 11 CURVE SMOOTH",
"967 12 OFFCURVE",
"972 18 OFFCURVE",
"976 26 CURVE",
"1033 188 LINE SMOOTH",
"1038 203 OFFCURVE",
"1031 210 OFFCURVE",
"1018 208 CURVE SMOOTH",
"770 164 OFFCURVE",
"462 158 OFFCURVE",
"216 198 CURVE",
"216 242 OFFCURVE",
"257 355 OFFCURVE",
"341 475 CURVE SMOOTH",
"502 701 OFFCURVE",
"688 912 OFFCURVE",
"886 1157 CURVE",
"892 1165 OFFCURVE",
"893 1172 OFFCURVE",
"892 1181 CURVE SMOOTH",
"865 1346 LINE SMOOTH",
"863 1362 OFFCURVE",
"852 1366 OFFCURVE",
"842 1352 CURVE",
"654 1115 OFFCURVE",
"323 758 OFFCURVE",
"191 479 CURVE SMOOTH",
"124 336 OFFCURVE",
"103 180 OFFCURVE",
"136 24 CURVE SMOOTH",
"138 13 OFFCURVE",
"144 7 OFFCURVE",
"155 6 CURVE SMOOTH"
);
}
);
width = 1154;
}
);
},
{
glyphname = asterisk;
lastChange = "2016-02-11 17:42:53 +0000";
layers = (
{
layerId = "93A312F7-B931-4485-B08E-C367313EB5E7";
name = Regular;
paths = (
{
closed = 1;
nodes = (
"575 103 OFFCURVE",
"605 133 OFFCURVE",
"604 170 CURVE SMOOTH",
"594 386 LINE",
"739 227 LINE SMOOTH",
"763 200 OFFCURVE",
"808 199 OFFCURVE",
"834 224 CURVE",
"858 251 OFFCURVE",
"858 294 OFFCURVE",
"833 319 CURVE",
"672 464 LINE",
"888 455 LINE SMOOTH",
"924 452 OFFCURVE",
"956 484 OFFCURVE",
"955 521 CURVE",
"955 558 OFFCURVE",
"925 588 OFFCURVE",
"888 587 CURVE SMOOTH",
"672 577 LINE",
"833 722 LINE SMOOTH",
"858 746 OFFCURVE",
"859 791 OFFCURVE",
"834 817 CURVE",
"808 841 OFFCURVE",
"764 841 OFFCURVE",
"739 815 CURVE SMOOTH",
"598 660 LINE",
"607 871 LINE",
"611 907 OFFCURVE",
"578 940 OFFCURVE",
"541 938 CURVE SMOOTH",
"505 938 OFFCURVE",
"475 908 OFFCURVE",
"476 871 CURVE SMOOTH",
"485 659 LINE",
"338 818 LINE SMOOTH",
"316 844 OFFCURVE",
"270 846 OFFCURVE",
"246 820 CURVE",
"220 793 OFFCURVE",
"220 750 OFFCURVE",
"246 725 CURVE SMOOTH",
"408 577 LINE",
"187 587 LINE SMOOTH",
"151 589 OFFCURVE",
"119 558 OFFCURVE",
"120 521 CURVE SMOOTH",
"120 484 OFFCURVE",
"150 454 OFFCURVE",
"187 455 CURVE SMOOTH",
"403 464 LINE",
"244 319 LINE",
"216 296 OFFCURVE",
"216 251 OFFCURVE",
"241 224 CURVE",
"268 200 OFFCURVE",
"311 200 OFFCURVE",
"336 227 CURVE SMOOTH",
"481 386 LINE",
"472 170 LINE SMOOTH",
"469 134 OFFCURVE",
"500 102 OFFCURVE",
"538 103 CURVE SMOOTH"
);
},
{
closed = 1;
nodes = (
"488 430 OFFCURVE",
"446 472 OFFCURVE",
"446 521 CURVE SMOOTH",
"446 570 OFFCURVE",
"488 612 OFFCURVE",
"538 612 CURVE SMOOTH",
"587 612 OFFCURVE",
"629 570 OFFCURVE",
"629 521 CURVE SMOOTH",
"629 473 OFFCURVE",
"586 430 OFFCURVE",
"538 430 CURVE SMOOTH"
);
}
);
width = 1075;
}
);
unicode = 002A;
},
{
glyphname = backslash;
lastChange = "2016-02-11 17:42:53 +0000";
layers = (
{
layerId = "93A312F7-B931-4485-B08E-C367313EB5E7";
name = Regular;
paths = (
{
closed = 1;
nodes = (
"922 -410 LINE SMOOTH",
"937 -410 OFFCURVE",
"948 -397 OFFCURVE",
"942 -382 CURVE SMOOTH",
"236 1441 LINE SMOOTH",
"234 1448 OFFCURVE",
"228 1452 OFFCURVE",
"222 1452 CURVE SMOOTH",
"142 1452 LINE SMOOTH",
"126 1452 OFFCURVE",
"115 1439 OFFCURVE",
"121 1423 CURVE SMOOTH",
"827 -400 LINE SMOOTH",
"829 -407 OFFCURVE",
"835 -410 OFFCURVE",
"841 -410 CURVE SMOOTH"
);
}
);
width = 1063;
}
);
unicode = 005C;
},
{
glyphname = bullet;
lastChange = "2016-02-11 17:42:53 +0000";
layers = (
{
layerId = "93A312F7-B931-4485-B08E-C367313EB5E7";
name = Regular;
paths = (
{
closed = 1;
nodes = (
"727 130 OFFCURVE",
"902 305 OFFCURVE",
"902 522 CURVE SMOOTH",
"902 738 OFFCURVE",
"727 913 OFFCURVE",
"511 913 CURVE SMOOTH",
"295 913 OFFCURVE",
"120 738 OFFCURVE",
"120 522 CURVE SMOOTH",
"120 305 OFFCURVE",
"295 130 OFFCURVE",
"511 130 CURVE SMOOTH"
);
}
);
width = 1022;
}
);
unicode = 2022;
},
{
glyphname = comma;
lastChange = "2016-02-11 17:42:54 +0000";
layers = (
{
layerId = "93A312F7-B931-4485-B08E-C367313EB5E7";
name = Regular;
paths = (
{
closed = 1;
nodes = (
"314 -128 OFFCURVE",
"342 -64 OFFCURVE",
"343 205 CURVE SMOOTH",
"343 217 OFFCURVE",
"336 224 OFFCURVE",
"325 224 CURVE SMOOTH",
"138 224 LINE SMOOTH",
"127 224 OFFCURVE",
"120 217 OFFCURVE",
"120 206 CURVE SMOOTH",
"120 18 LINE SMOOTH",
"120 7 OFFCURVE",
"127 0 OFFCURVE",
"138 0 CURVE SMOOTH",
"238 0 LINE SMOOTH",
"250 0 OFFCURVE",
"257 -7 OFFCURVE",
"256 -19 CURVE",
"246 -83 OFFCURVE",
"210 -128 OFFCURVE",
"172 -166 CURVE SMOOTH",
"163 -174 OFFCURVE",
"163 -182 OFFCURVE",
"169 -191 CURVE SMOOTH",
"184 -210 LINE",
"191 -218 OFFCURVE",
"199 -222 OFFCURVE",
"209 -215 CURVE"
);
}
);
width = 463;
}
);
unicode = 002C;
},
{
glyphname = exclam;
lastChange = "2016-02-11 17:42:53 +0000";
layers = (
{
components = (
{
name = period;
transform = "{0.803, 0, 0, 0.803, 32, -28}";
}
);
layerId = "93A312F7-B931-4485-B08E-C367313EB5E7";
name = Regular;
paths = (
{
closed = 1;
nodes = (
"317 457 LINE",
"325 462 OFFCURVE",
"330 467 OFFCURVE",
"330 478 CURVE",
"324 1459 LINE",
"324 1472 OFFCURVE",
"316 1478 OFFCURVE",
"304 1474 CURVE",
"166 1426 LINE SMOOTH",
"156 1422 OFFCURVE",
"152 1416 OFFCURVE",
"152 1405 CURVE",
"206 403 LINE"
);
}
);
width = 542;
}
);
unicode = 0021;
},
{
glyphname = numbersign;
lastChange = "2016-02-11 17:42:54 +0000";
layers = (
{
layerId = "93A312F7-B931-4485-B08E-C367313EB5E7";
name = Regular;
paths = (
{
closed = 1;
nodes = (
"433 36 LINE SMOOTH",
"442 36 OFFCURVE",
"450 42 OFFCURVE",
"451 52 CURVE SMOOTH",
"505 424 LINE",
"790 424 LINE",
"737 58 LINE",
"736 46 OFFCURVE",
"744 36 OFFCURVE",
"756 36 CURVE SMOOTH",
"835 36 LINE SMOOTH",
"844 36 OFFCURVE",
"852 42 OFFCURVE",
"853 52 CURVE SMOOTH",
"907 424 LINE",
"1195 424 LINE SMOOTH",
"1204 424 OFFCURVE",
"1211 428 OFFCURVE",
"1212 438 CURVE",
"1225 512 LINE SMOOTH",
"1228 524 OFFCURVE",
"1218 535 OFFCURVE",
"1206 535 CURVE SMOOTH",
"924 535 LINE",
"977 906 LINE",
"1284 906 LINE SMOOTH",
"1292 906 OFFCURVE",
"1300 911 OFFCURVE",
"1301 920 CURVE",
"1314 995 LINE SMOOTH",
"1316 1007 OFFCURVE",
"1307 1018 OFFCURVE",
"1295 1018 CURVE SMOOTH",
"994 1018 LINE",
"1049 1399 LINE",
"1050 1411 OFFCURVE",
"1042 1421 OFFCURVE",
"1030 1421 CURVE SMOOTH",
"950 1421 LINE SMOOTH",
"942 1421 OFFCURVE",
"934 1415 OFFCURVE",
"932 1405 CURVE SMOOTH",
"876 1018 LINE",
"592 1018 LINE",
"647 1399 LINE",
"648 1411 OFFCURVE",
"640 1421 OFFCURVE",
"628 1421 CURVE SMOOTH",
"548 1421 LINE SMOOTH",
"540 1421 OFFCURVE",
"532 1415 OFFCURVE",
"530 1405 CURVE SMOOTH",
"474 1018 LINE",
"222 1018 LINE SMOOTH",
"214 1018 OFFCURVE",
"205 1012 OFFCURVE",
"204 1002 CURVE SMOOTH",
"193 928 LINE",
"192 916 OFFCURVE",
"200 906 OFFCURVE",
"212 906 CURVE SMOOTH",
"458 906 LINE",
"404 535 LINE",
"149 535 LINE SMOOTH",
"140 535 OFFCURVE",
"132 529 OFFCURVE",
"131 520 CURVE SMOOTH",
"120 445 LINE",
"119 433 OFFCURVE",
"127 424 OFFCURVE",
"139 424 CURVE SMOOTH",
"388 424 LINE",
"335 58 LINE",
"334 46 OFFCURVE",
"342 36 OFFCURVE",
"354 36 CURVE SMOOTH"
);
},
{
closed = 1;
nodes = (
"576 906 LINE",
"859 906 LINE",
"806 535 LINE",
"522 535 LINE"
);
}
);
width = 1434;
}
);
unicode = 0023;
},
{
glyphname = period;
lastChange = "2016-02-11 17:42:53 +0000";
layers = (
{
layerId = "93A312F7-B931-4485-B08E-C367313EB5E7";
name = Regular;
paths = (
{
closed = 1;
nodes = (
"338 -79 OFFCURVE",
"355 -76 OFFCURVE",
"370 -56 CURVE SMOOTH",
"467 78 LINE",
"508 140 OFFCURVE",
"510 157 OFFCURVE",
"456 194 CURVE SMOOTH",
"409 227 OFFCURVE",
"342 271 OFFCURVE",
"304 294 CURVE SMOOTH",
"284 305 OFFCURVE",
"266 300 OFFCURVE",
"254 282 CURVE SMOOTH",
"127 96 LINE SMOOTH",
"114 76 OFFCURVE",
"118 60 OFFCURVE",
"138 47 CURVE SMOOTH",
"319 -67 LINE SMOOTH"
);
}
);
width = 617;
}
);
unicode = 002E;
},
{
glyphname = quotedbl;
lastChange = "2016-02-11 17:42:53 +0000";
layers = (
{
layerId = "93A312F7-B931-4485-B08E-C367313EB5E7";
name = Regular;
paths = (
{
closed = 1;
nodes = (
"496 1207 LINE SMOOTH",
"502 1207 OFFCURVE",
"504 1206 OFFCURVE",
"504 1211 CURVE",
"538 1726 LINE",
"538 1729 OFFCURVE",
"536 1734 OFFCURVE",
"532 1734 CURVE SMOOTH",
"407 1734 LINE SMOOTH",
"402 1734 OFFCURVE",
"398 1734 OFFCURVE",
"398 1728 CURVE SMOOTH",
"396 1216 LINE SMOOTH",
"396 1212 OFFCURVE",
"397 1207 OFFCURVE",
"400 1207 CURVE SMOOTH"
);
},
{
closed = 1;
nodes = (
"220 1207 LINE SMOOTH",
"226 1207 OFFCURVE",
"228 1206 OFFCURVE",
"228 1211 CURVE",
"262 1726 LINE",
"262 1729 OFFCURVE",
"260 1734 OFFCURVE",
"256 1734 CURVE SMOOTH",
"131 1734 LINE SMOOTH",
"126 1734 OFFCURVE",
"122 1734 OFFCURVE",
"122 1728 CURVE SMOOTH",
"120 1216 LINE SMOOTH",
"120 1212 OFFCURVE",
"121 1207 OFFCURVE",
"124 1207 CURVE SMOOTH"
);
}
);
width = 658;
}
);
unicode = 0022;
},
{
glyphname = quotesingle;
lastChange = "2016-02-11 17:42:53 +0000";
layers = (
{
layerId = "93A312F7-B931-4485-B08E-C367313EB5E7";
name = Regular;
paths = (
{
closed = 1;
nodes = (
"220 1207 LINE SMOOTH",
"226 1207 OFFCURVE",
"228 1206 OFFCURVE",
"228 1211 CURVE",
"262 1726 LINE",
"262 1729 OFFCURVE",
"260 1734 OFFCURVE",
"256 1734 CURVE SMOOTH",
"131 1734 LINE SMOOTH",
"126 1734 OFFCURVE",
"122 1734 OFFCURVE",
"122 1728 CURVE SMOOTH",
"120 1216 LINE SMOOTH",
"120 1212 OFFCURVE",
"121 1207 OFFCURVE",
"124 1207 CURVE SMOOTH"
);
}
);
width = 382;
}
);
unicode = 0027;
},
{
glyphname = semicolon;
lastChange = "2016-02-11 17:42:53 +0000";
layers = (
{
layerId = "93A312F7-B931-4485-B08E-C367313EB5E7";
name = Regular;
paths = (
{
closed = 1;
nodes = (
"218 -206 OFFCURVE",
"234 -198 OFFCURVE",
"245 -179 CURVE SMOOTH",
"307 -60 LINE",
"401 88 OFFCURVE",
"504 304 OFFCURVE",
"283 428 CURVE SMOOTH",
"263 439 OFFCURVE",
"246 436 OFFCURVE",
"234 414 CURVE SMOOTH",
"173 306 LINE SMOOTH",
"161 284 OFFCURVE",
"166 269 OFFCURVE",
"186 258 CURVE SMOOTH",
"269 211 OFFCURVE",
"330 156 OFFCURVE",
"239 -5 CURVE SMOOTH",
"162 -140 LINE SMOOTH",
"150 -162 OFFCURVE",
"157 -179 OFFCURVE",
"179 -188 CURVE SMOOTH",
"197 -197 LINE SMOOTH"
);
},
{
closed = 1;
nodes = (
"282 743 OFFCURVE",
"300 746 OFFCURVE",
"313 766 CURVE SMOOTH",
"384 864 LINE",
"415 912 OFFCURVE",
"426 920 OFFCURVE",
"374 956 CURVE SMOOTH",
"341 979 OFFCURVE",
"294 1007 OFFCURVE",
"264 1024 CURVE SMOOTH",
"245 1034 OFFCURVE",
"227 1030 OFFCURVE",
"215 1012 CURVE SMOOTH",
"127 882 LINE SMOOTH",
"114 862 OFFCURVE",
"118 846 OFFCURVE",
"138 833 CURVE SMOOTH",
"263 755 LINE SMOOTH"
);
}
);
width = 535;
}
);
unicode = 003B;
},
{
glyphname = slash;
lastChange = "2016-02-11 17:42:53 +0000";
layers = (
{
layerId = "93A312F7-B931-4485-B08E-C367313EB5E7";
name = Regular;
paths = (
{
closed = 1;
nodes = (
"222 -410 LINE SMOOTH",
"228 -410 OFFCURVE",
"234 -407 OFFCURVE",
"236 -400 CURVE SMOOTH",
"942 1423 LINE SMOOTH",
"948 1439 OFFCURVE",
"937 1452 OFFCURVE",
"922 1452 CURVE SMOOTH",
"841 1452 LINE SMOOTH",
"835 1452 OFFCURVE",
"829 1448 OFFCURVE",
"827 1441 CURVE SMOOTH",
"121 -382 LINE SMOOTH",
"115 -397 OFFCURVE",
"126 -410 OFFCURVE",
"142 -410 CURVE SMOOTH"
);
}
);
width = 1063;
}
);
unicode = 002F;
},
{
glyphname = underscore;
lastChange = "2016-02-11 17:42:53 +0000";
layers = (
{
layerId = "93A312F7-B931-4485-B08E-C367313EB5E7";
name = Regular;
paths = (
{
closed = 1;
nodes = (
"1075 -299 LINE",
"1075 -180 LINE",
"0 -180 LINE",
"0 -299 LINE"
);
}
);
width = 1075;
}
);
unicode = 005F;
},
{
glyphname = braceleft;
lastChange = "2016-02-11 17:42:53 +0000";
layers = (
{
layerId = "93A312F7-B931-4485-B08E-C367313EB5E7";
name = Regular;
paths = (
{
closed = 1;
nodes = (
"643 -569 LINE SMOOTH",
"653 -569 OFFCURVE",
"661 -560 OFFCURVE",
"661 -551 CURVE SMOOTH",
"661 -492 LINE SMOOTH",
"661 -482 OFFCURVE",
"653 -474 OFFCURVE",
"643 -474 CURVE SMOOTH",
"464 -474 LINE SMOOTH",
"444 -474 OFFCURVE",
"427 -457 OFFCURVE",
"427 -437 CURVE SMOOTH",
"427 234 LINE SMOOTH",
"427 372 OFFCURVE",
"347 452 OFFCURVE",
"284 521 CURVE",
"347 589 OFFCURVE",
"427 670 OFFCURVE",
"427 808 CURVE SMOOTH",
"427 1478 LINE SMOOTH",
"427 1499 OFFCURVE",
"444 1516 OFFCURVE",
"464 1516 CURVE SMOOTH",
"643 1516 LINE SMOOTH",
"653 1516 OFFCURVE",
"661 1524 OFFCURVE",
"661 1534 CURVE SMOOTH",
"661 1592 LINE SMOOTH",
"661 1602 OFFCURVE",
"653 1610 OFFCURVE",
"643 1610 CURVE SMOOTH",
"440 1610 LINE SMOOTH",
"347 1610 OFFCURVE",
"296 1560 OFFCURVE",
"296 1466 CURVE SMOOTH",
"296 841 LINE SMOOTH",
"296 655 OFFCURVE",
"259 637 OFFCURVE",
"148 530 CURVE",
"142 526 OFFCURVE",
"143 517 OFFCURVE",
"148 511 CURVE",
"259 391 OFFCURVE",
"296 376 OFFCURVE",
"296 178 CURVE SMOOTH",
"296 -425 LINE SMOOTH",
"296 -518 OFFCURVE",
"347 -569 OFFCURVE",
"440 -569 CURVE SMOOTH"
);
}
);
width = 805;
}
);
unicode = 007B;
},
{
glyphname = braceright;
lastChange = "2016-02-11 17:42:53 +0000";
layers = (
{
layerId = "93A312F7-B931-4485-B08E-C367313EB5E7";
name = Regular;
paths = (
{
closed = 1;
nodes = (
"365 -569 LINE SMOOTH",
"458 -569 OFFCURVE",
"509 -518 OFFCURVE",
"509 -425 CURVE SMOOTH",
"509 178 LINE SMOOTH",
"509 376 OFFCURVE",
"546 391 OFFCURVE",
"658 511 CURVE",
"662 517 OFFCURVE",
"664 526 OFFCURVE",
"658 530 CURVE",
"546 637 OFFCURVE",
"509 655 OFFCURVE",
"509 841 CURVE SMOOTH",
"509 1466 LINE SMOOTH",
"509 1560 OFFCURVE",
"458 1610 OFFCURVE",
"365 1610 CURVE SMOOTH",
"162 1610 LINE SMOOTH",
"152 1610 OFFCURVE",
"144 1602 OFFCURVE",
"144 1592 CURVE SMOOTH",
"144 1534 LINE SMOOTH",
"144 1524 OFFCURVE",
"152 1516 OFFCURVE",
"162 1516 CURVE SMOOTH",
"341 1516 LINE SMOOTH",
"361 1516 OFFCURVE",
"378 1499 OFFCURVE",
"378 1478 CURVE SMOOTH",
"378 808 LINE SMOOTH",
"378 670 OFFCURVE",
"458 589 OFFCURVE",
"521 521 CURVE",
"458 452 OFFCURVE",
"378 372 OFFCURVE",
"378 234 CURVE SMOOTH",
"378 -437 LINE SMOOTH",
"378 -457 OFFCURVE",
"361 -474 OFFCURVE",
"341 -474 CURVE SMOOTH",
"162 -474 LINE SMOOTH",
"152 -474 OFFCURVE",
"144 -482 OFFCURVE",
"144 -492 CURVE SMOOTH",
"144 -551 LINE SMOOTH",
"144 -560 OFFCURVE",
"152 -569 OFFCURVE",
"162 -569 CURVE SMOOTH"
);
}
);
width = 805;
}
);
unicode = 007D;
userData = {
com.typemytype.robofont.guides = (
{
angle = 0;
isGlobal = 0;
x = 360;
y = 609;
}
);
};
},
{
glyphname = bracketleft;
lastChange = "2016-02-11 17:42:54 +0000";
layers = (
{
layerId = "93A312F7-B931-4485-B08E-C367313EB5E7";
name = Regular;
paths = (
{
closed = 1;
nodes = (
"491 -566 LINE SMOOTH",
"500 -566 OFFCURVE",
"509 -558 OFFCURVE",
"509 -548 CURVE SMOOTH",
"509 -490 LINE SMOOTH",
"509 -480 OFFCURVE",
"500 -472 OFFCURVE",
"491 -472 CURVE SMOOTH",
"275 -472 LINE",
"275 1514 LINE",
"491 1514 LINE SMOOTH",
"500 1514 OFFCURVE",
"509 1523 OFFCURVE",
"509 1532 CURVE SMOOTH",
"509 1591 LINE SMOOTH",
"509 1601 OFFCURVE",
"500 1609 OFFCURVE",
"491 1609 CURVE SMOOTH",
"162 1609 LINE SMOOTH",
"152 1609 OFFCURVE",
"144 1601 OFFCURVE",
"144 1591 CURVE SMOOTH",
"144 -548 LINE SMOOTH",
"144 -558 OFFCURVE",
"152 -566 OFFCURVE",
"162 -566 CURVE SMOOTH"
);
}
);
width = 653;
}
);
unicode = 005B;
},
{
glyphname = bracketright;
lastChange = "2016-02-11 17:42:53 +0000";
layers = (
{
layerId = "93A312F7-B931-4485-B08E-C367313EB5E7";
name = Regular;
paths = (
{
closed = 1;
nodes = (
"491 -566 LINE SMOOTH",
"500 -566 OFFCURVE",
"509 -558 OFFCURVE",
"509 -548 CURVE SMOOTH",
"509 1591 LINE SMOOTH",
"509 1601 OFFCURVE",
"500 1609 OFFCURVE",
"491 1609 CURVE SMOOTH",
"162 1609 LINE SMOOTH",
"152 1609 OFFCURVE",
"144 1601 OFFCURVE",
"144 1591 CURVE SMOOTH",
"144 1532 LINE SMOOTH",
"144 1523 OFFCURVE",
"152 1514 OFFCURVE",
"162 1514 CURVE SMOOTH",
"378 1514 LINE",
"378 -472 LINE",
"162 -472 LINE SMOOTH",
"152 -472 OFFCURVE",
"144 -480 OFFCURVE",
"144 -490 CURVE SMOOTH",
"144 -548 LINE SMOOTH",
"144 -558 OFFCURVE",
"152 -566 OFFCURVE",
"162 -566 CURVE SMOOTH"
);
}
);
width = 653;
}
);
unicode = 005D;
},
{
glyphname = parenleft;
lastChange = "2016-02-11 17:42:53 +0000";
layers = (
{
layerId = "93A312F7-B931-4485-B08E-C367313EB5E7";
name = Regular;
paths = (
{
closed = 1;
nodes = (
"575 -360 LINE SMOOTH",
"589 -360 OFFCURVE",
"594 -350 OFFCURVE",
"587 -338 CURVE SMOOTH",
"222 247 OFFCURVE",
"220 820 OFFCURVE",
"586 1381 CURVE SMOOTH",
"594 1393 OFFCURVE",
"588 1403 OFFCURVE",
"574 1403 CURVE SMOOTH",
"492 1403 LINE SMOOTH",
"482 1403 OFFCURVE",
"476 1399 OFFCURVE",
"470 1392 CURVE",
"35 805 OFFCURVE",
"35 224 OFFCURVE",
"470 -349 CURVE",
"476 -356 OFFCURVE",
"482 -360 OFFCURVE",
"492 -360 CURVE SMOOTH"
);
}
);
width = 734;
}
);
unicode = 0028;
},
{
glyphname = parenright;
lastChange = "2016-02-11 17:42:53 +0000";
layers = (
{
layerId = "93A312F7-B931-4485-B08E-C367313EB5E7";
name = Regular;
paths = (
{
closed = 1;
nodes = (
"242 -360 LINE SMOOTH",
"252 -360 OFFCURVE",
"258 -356 OFFCURVE",
"264 -349 CURVE",
"700 224 OFFCURVE",
"700 805 OFFCURVE",
"264 1392 CURVE",
"258 1399 OFFCURVE",
"252 1403 OFFCURVE",
"242 1403 CURVE SMOOTH",
"161 1403 LINE SMOOTH",
"146 1403 OFFCURVE",
"140 1393 OFFCURVE",
"149 1381 CURVE SMOOTH",
"515 820 OFFCURVE",
"512 247 OFFCURVE",
"148 -338 CURVE SMOOTH",
"140 -350 OFFCURVE",
"145 -360 OFFCURVE",
"160 -360 CURVE SMOOTH"
);
}
);
width = 734;
}
);
unicode = 0029;
},
{
glyphname = hyphen;
lastChange = "2016-02-11 17:42:53 +0000";
layers = (
{
layerId = "93A312F7-B931-4485-B08E-C367313EB5E7";
name = Regular;
paths = (
{
closed = 1;
nodes = (
"738 456 LINE SMOOTH",
"749 456 OFFCURVE",
"756 463 OFFCURVE",
"756 474 CURVE SMOOTH",
"756 568 LINE SMOOTH",
"756 578 OFFCURVE",
"749 586 OFFCURVE",
"738 586 CURVE SMOOTH",
"138 586 LINE SMOOTH",
"127 586 OFFCURVE",
"120 578 OFFCURVE",
"120 568 CURVE SMOOTH",
"120 474 LINE SMOOTH",
"120 463 OFFCURVE",
"127 456 OFFCURVE",
"138 456 CURVE SMOOTH"
);
}
);
width = 876;
}
);
unicode = 002D;
},
{
glyphname = hyphentwo;
lastChange = "2016-02-11 17:42:53 +0000";
layers = (
{
layerId = "93A312F7-B931-4485-B08E-C367313EB5E7";
name = Regular;
paths = (
{
closed = 1;
nodes = (
"780 434 LINE SMOOTH",
"791 434 OFFCURVE",
"798 442 OFFCURVE",
"798 452 CURVE SMOOTH",
"798 572 LINE SMOOTH",
"798 583 OFFCURVE",
"791 590 OFFCURVE",
"780 590 CURVE SMOOTH",
"138 590 LINE SMOOTH",
"127 590 OFFCURVE",
"120 583 OFFCURVE",
"120 572 CURVE SMOOTH",
"120 452 LINE SMOOTH",
"120 442 OFFCURVE",
"127 434 OFFCURVE",
"138 434 CURVE SMOOTH"
);
}
);
width = 918;
}
);
unicode = 2010;
},
{
glyphname = guillemetleft;
lastChange = "2016-02-11 17:42:53 +0000";
layers = (
{
layerId = "93A312F7-B931-4485-B08E-C367313EB5E7";
name = Regular;
paths = (
{
closed = 1;
nodes = (
"379 -35 OFFCURVE",
"389 -31 OFFCURVE",
"394 -22 CURVE SMOOTH",
"449 88 LINE",
"455 101 OFFCURVE",
"464 101 OFFCURVE",
"474 90 CURVE SMOOTH",
"512 46 OFFCURVE",
"571 6 OFFCURVE",
"650 -30 CURVE SMOOTH",
"661 -35 OFFCURVE",
"671 -32 OFFCURVE",
"676 -22 CURVE",
"744 114 LINE",
"749 125 OFFCURVE",
"745 133 OFFCURVE",
"734 138 CURVE",
"420 260 OFFCURVE",
"521 415 OFFCURVE",
"697 750 CURVE SMOOTH",
"703 761 OFFCURVE",
"701 769 OFFCURVE",
"690 774 CURVE SMOOTH",
"637 797 LINE",
"628 800 OFFCURVE",
"619 798 OFFCURVE",
"613 788 CURVE SMOOTH",
"493 581 OFFCURVE",
"350 358 OFFCURVE",
"420 178 CURVE SMOOTH",
"426 161 OFFCURVE",
"418 151 OFFCURVE",
"401 160 CURVE SMOOTH",
"150 278 OFFCURVE",
"250 434 OFFCURVE",
"415 750 CURVE SMOOTH",
"421 761 OFFCURVE",
"419 769 OFFCURVE",
"408 774 CURVE SMOOTH",
"355 797 LINE",
"346 800 OFFCURVE",
"337 798 OFFCURVE",
"331 788 CURVE",
"160 491 OFFCURVE",
"-59 161 OFFCURVE",
"368 -30 CURVE SMOOTH"
);
}
);
width = 866;
}
);
unicode = 00AB;
},
{
glyphname = guillemetright;
lastChange = "2016-02-11 17:42:53 +0000";
layers = (
{
layerId = "93A312F7-B931-4485-B08E-C367313EB5E7";
name = Regular;
paths = (
{
closed = 1;
nodes = (
"306 11 OFFCURVE",
"368 56 OFFCURVE",
"407 108 CURVE",
"473 -22 LINE SMOOTH",
"478 -31 OFFCURVE",
"487 -35 OFFCURVE",
"498 -30 CURVE SMOOTH",
"925 161 OFFCURVE",
"707 491 OFFCURVE",
"535 788 CURVE",
"529 798 OFFCURVE",
"521 800 OFFCURVE",
"511 797 CURVE",
"458 774 LINE SMOOTH",
"448 769 OFFCURVE",
"445 761 OFFCURVE",
"451 750 CURVE SMOOTH",
"624 421 OFFCURVE",
"725 265 OFFCURVE",
"431 144 CURVE",
"533 331 OFFCURVE",
"380 568 OFFCURVE",
"253 788 CURVE",
"247 798 OFFCURVE",
"239 800 OFFCURVE",
"229 797 CURVE",
"176 774 LINE SMOOTH",
"166 769 OFFCURVE",
"163 761 OFFCURVE",
"169 750 CURVE SMOOTH",
"346 415 OFFCURVE",
"448 260 OFFCURVE",
"132 138 CURVE",
"121 133 OFFCURVE",
"118 125 OFFCURVE",
"122 114 CURVE",
"191 -22 LINE SMOOTH",
"196 -31 OFFCURVE",
"205 -35 OFFCURVE",
"216 -30 CURVE SMOOTH"
);
}
);
width = 866;
}
);
unicode = 00BB;
},
{
glyphname = "asteriskArt-ar";
lastChange = "2016-02-11 17:42:54 +0000";
layers = (
{
background = {
paths = (
{
closed = 1;
nodes = (
"367 251 LINE",
"421 304 LINE",
"367 357 LINE",
"314 304 LINE"
);
},
{
closed = 1;
nodes = (
"367 481 LINE",
"421 534 LINE",
"367 587 LINE",
"314 534 LINE"
);
},
{
closed = 1;
nodes = (
"488 403 LINE",
"488 166 LINE",
"525 166 LINE",
"525 403 LINE",
"770 403 LINE",
"770 442 LINE",
"525 442 LINE",
"525 677 LINE",
"488 677 LINE",
"488 442 LINE",
"243 442 LINE",
"243 403 LINE"
);
},
{
closed = 1;
nodes = (
"647 251 LINE",
"701 304 LINE",
"647 357 LINE",
"594 304 LINE"
);
},
{
closed = 1;
nodes = (
"647 481 LINE",
"701 534 LINE",
"647 587 LINE",
"594 534 LINE"
);
},
{
closed = 1;
nodes = (
"527 -11 LINE SMOOTH",
"531 -11 OFFCURVE",
"533 -9 OFFCURVE",
"533 -6 CURVE SMOOTH",
"533 46 LINE SMOOTH",
"533 49 OFFCURVE",
"534 50 OFFCURVE",
"537 50 CURVE SMOOTH",
"729 67 OFFCURVE",
"879 226 OFFCURVE",
"879 422 CURVE SMOOTH",
"879 618 OFFCURVE",
"729 776 OFFCURVE",
"537 793 CURVE SMOOTH",
"534 793 OFFCURVE",
"533 794 OFFCURVE",
"533 797 CURVE SMOOTH",
"533 849 LINE SMOOTH",
"533 852 OFFCURVE",
"531 854 OFFCURVE",
"527 854 CURVE SMOOTH",
"485 854 LINE SMOOTH",
"482 854 OFFCURVE",
"480 852 OFFCURVE",
"480 849 CURVE SMOOTH",
"480 797 LINE SMOOTH",
"480 795 OFFCURVE",
"479 793 OFFCURVE",
"475 793 CURVE SMOOTH",
"284 776 OFFCURVE",
"134 618 OFFCURVE",
"134 422 CURVE SMOOTH",
"134 226 OFFCURVE",
"284 67 OFFCURVE",
"475 50 CURVE SMOOTH",
"479 50 OFFCURVE",
"480 48 OFFCURVE",
"480 46 CURVE SMOOTH",
"480 -6 LINE SMOOTH",
"480 -9 OFFCURVE",
"482 -11 OFFCURVE",
"485 -11 CURVE SMOOTH"
);
},
{
closed = 1;
nodes = (
"488 82 OFFCURVE",
"473 97 OFFCURVE",
"473 115 CURVE SMOOTH",
"473 136 OFFCURVE",
"488 152 OFFCURVE",
"506 152 CURVE SMOOTH",
"525 152 OFFCURVE",
"541 136 OFFCURVE",
"541 115 CURVE SMOOTH",
"541 97 OFFCURVE",
"525 82 OFFCURVE",
"506 82 CURVE SMOOTH"
);
},
{
closed = 1;
nodes = (
"715 181 LINE SMOOTH",
"706 190 OFFCURVE",
"697 191 OFFCURVE",
"689 183 CURVE SMOOTH",
"651 155 OFFCURVE",
"588 130 OFFCURVE",
"509 189 CURVE SMOOTH",
"507 191 OFFCURVE",
"505 191 OFFCURVE",
"502 189 CURVE SMOOTH",
"425 130 OFFCURVE",
"362 155 OFFCURVE",
"324 183 CURVE SMOOTH",
"316 191 OFFCURVE",
"307 190 OFFCURVE",
"298 181 CURVE SMOOTH",
"292 174 LINE SMOOTH",
"290 173 OFFCURVE",
"288 173 OFFCURVE",
"285 174 CURVE SMOOTH",
"216 236 OFFCURVE",
"173 323 OFFCURVE",
"173 422 CURVE SMOOTH",
"173 521 OFFCURVE",
"216 611 OFFCURVE",
"285 671 CURVE SMOOTH",
"288 671 OFFCURVE",
"290 671 OFFCURVE",
"292 671 CURVE SMOOTH",
"298 665 LINE SMOOTH",
"307 657 OFFCURVE",
"316 656 OFFCURVE",
"324 664 CURVE SMOOTH",
"362 691 OFFCURVE",
"425 713 OFFCURVE",
"502 654 CURVE SMOOTH",
"505 652 OFFCURVE",
"507 652 OFFCURVE",
"509 654 CURVE SMOOTH",
"588 713 OFFCURVE",
"651 691 OFFCURVE",
"689 664 CURVE SMOOTH",
"697 656 OFFCURVE",
"706 657 OFFCURVE",
"715 665 CURVE SMOOTH",
"721 671 LINE SMOOTH",
"723 671 OFFCURVE",
"725 671 OFFCURVE",
"728 671 CURVE SMOOTH",
"797 611 OFFCURVE",
"840 521 OFFCURVE",
"840 422 CURVE SMOOTH",
"840 323 OFFCURVE",
"797 236 OFFCURVE",
"728 174 CURVE SMOOTH",
"725 173 OFFCURVE",
"723 173 OFFCURVE",
"721 174 CURVE SMOOTH"
);
},
{
closed = 1;
nodes = (
"487 691 OFFCURVE",
"472 706 OFFCURVE",
"472 725 CURVE SMOOTH",
"472 744 OFFCURVE",
"487 761 OFFCURVE",
"506 761 CURVE SMOOTH",
"525 761 OFFCURVE",
"541 744 OFFCURVE",
"541 725 CURVE SMOOTH",
"541 706 OFFCURVE",
"525 691 OFFCURVE",
"506 691 CURVE SMOOTH"
);
}
);
};
layerId = "93A312F7-B931-4485-B08E-C367313EB5E7";
name = Regular;
paths = (
{
closed = 1;
nodes = (
"635 -60 LINE SMOOTH",
"640 -60 OFFCURVE",
"642 -58 OFFCURVE",
"642 -54 CURVE SMOOTH",
"642 14 LINE SMOOTH",
"642 18 OFFCURVE",
"644 19 OFFCURVE",
"648 19 CURVE",
"899 42 OFFCURVE",
"1096 250 OFFCURVE",
"1096 506 CURVE SMOOTH",
"1096 763 OFFCURVE",
"899 970 OFFCURVE",
"648 992 CURVE",
"644 992 OFFCURVE",
"642 994 OFFCURVE",
"642 997 CURVE SMOOTH",
"642 1066 LINE SMOOTH",
"642 1069 OFFCURVE",
"640 1072 OFFCURVE",
"635 1072 CURVE SMOOTH",
"580 1072 LINE SMOOTH",
"576 1072 OFFCURVE",
"574 1069 OFFCURVE",
"574 1066 CURVE SMOOTH",
"574 997 LINE SMOOTH",
"574 995 OFFCURVE",
"571 992 OFFCURVE",
"566 992 CURVE",
"317 970 OFFCURVE",
"120 763 OFFCURVE",
"120 506 CURVE SMOOTH",
"120 250 OFFCURVE",
"317 42 OFFCURVE",
"566 19 CURVE",
"571 19 OFFCURVE",
"574 17 OFFCURVE",
"574 14 CURVE SMOOTH",
"574 -54 LINE SMOOTH",
"574 -58 OFFCURVE",
"576 -60 OFFCURVE",
"580 -60 CURVE SMOOTH"
);
},
{
closed = 1;
nodes = (
"583 61 OFFCURVE",
"564 80 OFFCURVE",
"564 104 CURVE SMOOTH",
"564 132 OFFCURVE",
"583 152 OFFCURVE",
"607 152 CURVE SMOOTH",
"632 152 OFFCURVE",
"653 132 OFFCURVE",
"653 104 CURVE SMOOTH",
"653 80 OFFCURVE",
"632 61 OFFCURVE",
"607 61 CURVE SMOOTH"
);
},
{
closed = 1;
nodes = (
"419 288 OFFCURVE",
"431 288 OFFCURVE",
"438 295 CURVE SMOOTH",
"482 338 LINE SMOOTH",
"491 347 OFFCURVE",
"491 356 OFFCURVE",
"482 365 CURVE SMOOTH",
"438 408 LINE SMOOTH",
"431 415 OFFCURVE",
"419 415 OFFCURVE",
"412 408 CURVE SMOOTH",
"368 365 LINE SMOOTH",
"361 358 OFFCURVE",
"361 346 OFFCURVE",
"368 338 CURVE SMOOTH",
"412 295 LINE SMOOTH"
);
},
{
closed = 1;
nodes = (
"228 263 OFFCURVE",
"172 377 OFFCURVE",
"172 506 CURVE SMOOTH",
"172 636 OFFCURVE",
"228 754 OFFCURVE",
"318 833 CURVE",
"326 833 LINE",
"335 824 LINE",
"347 814 OFFCURVE",
"359 812 OFFCURVE",
"368 823 CURVE",
"415 854 OFFCURVE",
"487 882 OFFCURVE",
"576 828 CURVE",
"581 824 OFFCURVE",
"583 820 OFFCURVE",
"583 815 CURVE SMOOTH",
"583 551 LINE SMOOTH",
"583 541 OFFCURVE",
"575 533 OFFCURVE",
"565 533 CURVE SMOOTH",
"281 533 LINE SMOOTH",
"271 533 OFFCURVE",
"263 524 OFFCURVE",
"263 515 CURVE SMOOTH",
"263 499 LINE SMOOTH",
"263 490 OFFCURVE",
"271 481 OFFCURVE",
"281 481 CURVE SMOOTH",
"565 481 LINE SMOOTH",
"575 481 OFFCURVE",
"583 473 OFFCURVE",
"583 463 CURVE SMOOTH",
"583 197 LINE SMOOTH",
"583 192 OFFCURVE",
"581 187 OFFCURVE",
"576 184 CURVE",
"487 130 OFFCURVE",
"415 161 OFFCURVE",
"368 193 CURVE",
"359 204 OFFCURVE",
"347 203 OFFCURVE",
"335 191 CURVE",
"326 181 LINE",
"324 180 OFFCURVE",
"322 180 OFFCURVE",
"318 181 CURVE"
);
},
{
closed = 1;
nodes = (
"419 589 OFFCURVE",
"431 589 OFFCURVE",
"438 596 CURVE SMOOTH",
"482 640 LINE SMOOTH",
"491 648 OFFCURVE",
"491 658 OFFCURVE",
"482 666 CURVE SMOOTH",
"438 709 LINE SMOOTH",
"431 716 OFFCURVE",
"419 716 OFFCURVE",
"412 709 CURVE SMOOTH",
"368 666 LINE SMOOTH",
"360 658 OFFCURVE",
"361 647 OFFCURVE",
"368 640 CURVE SMOOTH",
"412 596 LINE SMOOTH"
);
},
{
closed = 1;
nodes = (
"786 288 OFFCURVE",
"798 288 OFFCURVE",
"805 295 CURVE SMOOTH",
"850 338 LINE SMOOTH",
"858 347 OFFCURVE",
"858 356 OFFCURVE",
"850 365 CURVE SMOOTH",
"805 408 LINE SMOOTH",
"798 415 OFFCURVE",
"786 415 OFFCURVE",
"779 408 CURVE SMOOTH",
"736 365 LINE SMOOTH",
"728 358 OFFCURVE",
"728 346 OFFCURVE",
"736 338 CURVE SMOOTH",
"779 295 LINE SMOOTH"
);
},
{
closed = 1;
nodes = (
"881 191 LINE",
"869 203 OFFCURVE",
"857 204 OFFCURVE",
"847 193 CURVE",
"802 161 OFFCURVE",
"730 130 OFFCURVE",
"641 182 CURVE SMOOTH",
"635 186 OFFCURVE",
"632 191 OFFCURVE",
"632 196 CURVE SMOOTH",
"632 463 LINE SMOOTH",
"632 473 OFFCURVE",
"641 481 OFFCURVE",
"650 481 CURVE SMOOTH",
"935 481 LINE SMOOTH",
"944 481 OFFCURVE",
"953 490 OFFCURVE",
"953 499 CURVE SMOOTH",
"953 515 LINE SMOOTH",
"953 524 OFFCURVE",
"944 533 OFFCURVE",
"935 533 CURVE SMOOTH",
"650 533 LINE SMOOTH",
"641 533 OFFCURVE",
"632 541 OFFCURVE",
"632 551 CURVE SMOOTH",
"632 816 LINE SMOOTH",
"632 821 OFFCURVE",
"635 826 OFFCURVE",
"641 829 CURVE SMOOTH",
"730 882 OFFCURVE",
"802 854 OFFCURVE",
"847 823 CURVE",
"857 812 OFFCURVE",
"869 814 OFFCURVE",
"881 824 CURVE",
"889 833 LINE",
"898 833 LINE",
"988 754 OFFCURVE",
"1044 636 OFFCURVE",
"1044 506 CURVE SMOOTH",
"1044 377 OFFCURVE",
"988 263 OFFCURVE",
"898 181 CURVE",
"894 180 OFFCURVE",
"892 180 OFFCURVE",
"889 181 CURVE"
);
},
{
closed = 1;
nodes = (
"786 589 OFFCURVE",
"798 589 OFFCURVE",
"805 596 CURVE SMOOTH",
"850 640 LINE SMOOTH",
"858 648 OFFCURVE",
"858 658 OFFCURVE",
"850 666 CURVE SMOOTH",
"805 709 LINE SMOOTH",
"798 716 OFFCURVE",
"786 716 OFFCURVE",
"779 709 CURVE SMOOTH",
"736 666 LINE SMOOTH",
"728 659 OFFCURVE",
"728 647 OFFCURVE",
"736 640 CURVE SMOOTH",
"779 596 LINE SMOOTH"
);
},
{
closed = 1;
nodes = (
"582 859 OFFCURVE",
"563 878 OFFCURVE",
"563 904 CURVE SMOOTH",
"563 928 OFFCURVE",
"582 950 OFFCURVE",
"607 950 CURVE SMOOTH",
"632 950 OFFCURVE",
"653 928 OFFCURVE",
"653 904 CURVE SMOOTH",
"653 878 OFFCURVE",
"632 859 OFFCURVE",
"607 859 CURVE SMOOTH"
);
}
);
width = 1216;
}
);
unicode = 06DE;
userData = {
com.typemytype.robofont.layerData = {
background = {
anchors = (
);
components = (
);
contours = (
{
points = (
{
segmentType = line;
smooth = 0;
x = 333;
y = 251;
},
{
segmentType = line;
smooth = 0;
x = 387;
y = 304;
},
{
segmentType = line;
smooth = 0;
x = 333;
y = 357;
},
{
segmentType = line;
smooth = 0;
x = 280;
y = 304;
}
);
},
{
points = (
{
segmentType = line;
smooth = 0;
x = 333;
y = 481;
},
{
segmentType = line;
smooth = 0;
x = 387;
y = 534;
},
{
segmentType = line;
smooth = 0;
x = 333;
y = 587;
},
{
segmentType = line;
smooth = 0;
x = 280;
y = 534;
}
);
},
{
points = (
{
segmentType = line;
smooth = 0;
x = 454;
y = 403;
},
{
segmentType = line;
smooth = 0;
x = 454;
y = 166;
},
{
segmentType = line;
smooth = 0;
x = 491;
y = 166;
},
{
segmentType = line;
smooth = 0;
x = 491;
y = 403;
},
{
segmentType = line;
smooth = 0;
x = 736;
y = 403;
},
{
segmentType = line;
smooth = 0;
x = 736;
y = 442;
},
{
segmentType = line;
smooth = 0;
x = 491;
y = 442;
},
{
segmentType = line;
smooth = 0;
x = 491;
y = 677;
},
{
segmentType = line;
smooth = 0;
x = 454;
y = 677;
},
{
segmentType = line;
smooth = 0;
x = 454;
y = 442;
},
{
segmentType = line;
smooth = 0;
x = 209;
y = 442;
},
{
segmentType = line;
smooth = 0;
x = 209;
y = 403;
}
);
},
{
points = (
{
segmentType = line;
smooth = 0;
x = 613;
y = 251;
},
{
segmentType = line;
smooth = 0;
x = 667;
y = 304;
},
{
segmentType = line;
smooth = 0;
x = 613;
y = 357;
},
{
segmentType = line;
smooth = 0;
x = 560;
y = 304;
}
);
},
{
points = (
{
segmentType = line;
smooth = 0;
x = 613;
y = 481;
},
{
segmentType = line;
smooth = 0;
x = 667;
y = 534;
},
{
segmentType = line;
smooth = 0;
x = 613;
y = 587;
},
{
segmentType = line;
smooth = 0;
x = 560;
y = 534;
}
);
},
{
points = (
{
segmentType = line;
smooth = 1;
x = 493;
y = "-11";
},
{
smooth = 0;
x = 497;
y = "-11";
},
{
smooth = 0;
x = 499;
y = "-9";
},
{
segmentType = curve;
smooth = 1;
x = 499;
y = "-6";
},
{
segmentType = line;
smooth = 1;
x = 499;
y = 46;
},
{
smooth = 0;
x = 499;
y = 49;
},
{
smooth = 0;
x = 500;
y = 50;
},
{
segmentType = curve;
smooth = 1;
x = 503;
y = 50;
},
{
smooth = 0;
x = 695;
y = 67;
},
{
smooth = 0;
x = 845;
y = 226;
},
{
segmentType = curve;
smooth = 1;
x = 845;
y = 422;
},
{
smooth = 0;
x = 845;
y = 618;
},
{
smooth = 0;
x = 695;
y = 776;
},
{
segmentType = curve;
smooth = 1;
x = 503;
y = 793;
},
{
smooth = 0;
x = 500;
y = 793;
},
{
smooth = 0;
x = 499;
y = 794;
},
{
segmentType = curve;
smooth = 1;
x = 499;
y = 797;
},
{
segmentType = line;
smooth = 1;
x = 499;
y = 849;
},
{
smooth = 0;
x = 499;
y = 852;
},
{
smooth = 0;
x = 497;
y = 854;
},
{
segmentType = curve;
smooth = 1;
x = 493;
y = 854;
},
{
segmentType = line;
smooth = 1;
x = 451;
y = 854;
},
{
smooth = 0;
x = 448;
y = 854;
},
{
smooth = 0;
x = 446;
y = 852;
},
{
segmentType = curve;
smooth = 1;
x = 446;
y = 849;
},
{
segmentType = line;
smooth = 1;
x = 446;
y = 797;
},
{
smooth = 0;
x = 446;
y = 795;
},
{
smooth = 0;
x = 445;
y = 793;
},
{
segmentType = curve;
smooth = 1;
x = 441;
y = 793;
},
{
smooth = 0;
x = 250;
y = 776;
},
{
smooth = 0;
x = 100;
y = 618;
},
{
segmentType = curve;
smooth = 1;
x = 100;
y = 422;
},
{
smooth = 0;
x = 100;
y = 226;
},
{
smooth = 0;
x = 250;
y = 67;
},
{
segmentType = curve;
smooth = 1;
x = 441;
y = 50;
},
{
smooth = 0;
x = 445;
y = 50;
},
{
smooth = 0;
x = 446;
y = 48;
},
{
segmentType = curve;
smooth = 1;
x = 446;
y = 46;
},
{
segmentType = line;
smooth = 1;
x = 446;
y = "-6";
},
{
smooth = 0;
x = 446;
y = "-9";
},
{
smooth = 0;
x = 448;
y = "-11";
},
{
segmentType = curve;
smooth = 1;
x = 451;
y = "-11";
}
);
},
{
points = (
{
smooth = 0;
x = 454;
y = 82;
},
{
smooth = 0;
x = 439;
y = 97;
},
{
segmentType = curve;
smooth = 1;
x = 439;
y = 115;
},
{
smooth = 0;
x = 439;
y = 136;
},
{
smooth = 0;
x = 454;
y = 152;
},
{
segmentType = curve;
smooth = 1;
x = 472;
y = 152;
},
{
smooth = 0;
x = 491;
y = 152;
},
{
smooth = 0;
x = 507;
y = 136;
},
{
segmentType = curve;
smooth = 1;
x = 507;
y = 115;
},
{
smooth = 0;
x = 507;
y = 97;
},
{
smooth = 0;
x = 491;
y = 82;
},
{
segmentType = curve;
smooth = 1;
x = 472;
y = 82;
}
);
},
{
points = (
{
segmentType = line;
smooth = 1;
x = 681;
y = 181;
},
{
smooth = 0;
x = 672;
y = 190;
},
{
smooth = 0;
x = 663;
y = 191;
},
{
segmentType = curve;
smooth = 1;
x = 655;
y = 183;
},
{
smooth = 0;
x = 617;
y = 155;
},
{
smooth = 0;
x = 554;
y = 130;
},
{
segmentType = curve;
smooth = 1;
x = 475;
y = 189;
},
{
smooth = 0;
x = 473;
y = 191;
},
{
smooth = 0;
x = 471;
y = 191;
},
{
segmentType = curve;
smooth = 1;
x = 468;
y = 189;
},
{
smooth = 0;
x = 391;
y = 130;
},
{
smooth = 0;
x = 328;
y = 155;
},
{
segmentType = curve;
smooth = 1;
x = 290;
y = 183;
},
{
smooth = 0;
x = 282;
y = 191;
},
{
smooth = 0;
x = 273;
y = 190;
},
{
segmentType = curve;
smooth = 1;
x = 264;
y = 181;
},
{
segmentType = line;
smooth = 1;
x = 258;
y = 174;
},
{
smooth = 0;
x = 256;
y = 173;
},
{
smooth = 0;
x = 254;
y = 173;
},
{
segmentType = curve;
smooth = 1;
x = 251;
y = 174;
},
{
smooth = 0;
x = 182;
y = 236;
},
{
smooth = 0;
x = 139;
y = 323;
},
{
segmentType = curve;
smooth = 1;
x = 139;
y = 422;
},
{
smooth = 0;
x = 139;
y = 521;
},
{
smooth = 0;
x = 182;
y = 611;
},
{
segmentType = curve;
smooth = 1;
x = 251;
y = 671;
},
{
smooth = 0;
x = 254;
y = 671;
},
{
smooth = 0;
x = 256;
y = 671;
},
{
segmentType = curve;
smooth = 1;
x = 258;
y = 671;
},
{
segmentType = line;
smooth = 1;
x = 264;
y = 665;
},
{
smooth = 0;
x = 273;
y = 657;
},
{
smooth = 0;
x = 282;
y = 656;
},
{
segmentType = curve;
smooth = 1;
x = 290;
y = 664;
},
{
smooth = 0;
x = 328;
y = 691;
},
{
smooth = 0;
x = 391;
y = 713;
},
{
segmentType = curve;
smooth = 1;
x = 468;
y = 654;
},
{
smooth = 0;
x = 471;
y = 652;
},
{
smooth = 0;
x = 473;
y = 652;
},
{
segmentType = curve;
smooth = 1;
x = 475;
y = 654;
},
{
smooth = 0;
x = 554;
y = 713;
},
{
smooth = 0;
x = 617;
y = 691;
},
{
segmentType = curve;
smooth = 1;
x = 655;
y = 664;
},
{
smooth = 0;
x = 663;
y = 656;
},
{
smooth = 0;
x = 672;
y = 657;
},
{
segmentType = curve;
smooth = 1;
x = 681;
y = 665;
},
{
segmentType = line;
smooth = 1;
x = 687;
y = 671;
},
{
smooth = 0;
x = 689;
y = 671;
},
{
smooth = 0;
x = 691;
y = 671;
},
{
segmentType = curve;
smooth = 1;
x = 694;
y = 671;
},
{
smooth = 0;
x = 763;
y = 611;
},
{
smooth = 0;
x = 806;
y = 521;
},
{
segmentType = curve;
smooth = 1;
x = 806;
y = 422;
},
{
smooth = 0;
x = 806;
y = 323;
},
{
smooth = 0;
x = 763;
y = 236;
},
{
segmentType = curve;
smooth = 1;
x = 694;
y = 174;
},
{
smooth = 0;
x = 691;
y = 173;
},
{
smooth = 0;
x = 689;
y = 173;
},
{
segmentType = curve;
smooth = 1;
x = 687;
y = 174;
}
);
},
{
points = (
{
smooth = 0;
x = 453;
y = 691;
},
{
smooth = 0;
x = 438;
y = 706;
},
{
segmentType = curve;
smooth = 1;
x = 438;
y = 725;
},
{
smooth = 0;
x = 438;
y = 744;
},
{
smooth = 0;
x = 453;
y = 761;
},
{
segmentType = curve;
smooth = 1;
x = 472;
y = 761;
},
{
smooth = 0;
x = 491;
y = 761;
},
{
smooth = 0;
x = 507;
y = 744;
},
{
segmentType = curve;
smooth = 1;
x = 507;
y = 725;
},
{
smooth = 0;
x = 507;
y = 706;
},
{
smooth = 0;
x = 491;
y = 691;
},
{
segmentType = curve;
smooth = 1;
x = 472;
y = 691;
}
);
}
);
lib = {
};
name = "asteriskArt-ar";
unicodes = (
);
width = 945;
};
};
};
},
{
glyphname = "fullstop-ar";
lastChange = "2016-02-11 17:42:53 +0000";
layers = (
{
layerId = "93A312F7-B931-4485-B08E-C367313EB5E7";
name = Regular;
paths = (
{
closed = 1;
nodes = (
"637 334 LINE SMOOTH",
"646 334 OFFCURVE",
"653 340 OFFCURVE",
"654 347 CURVE",
"680 466 LINE",
"683 479 OFFCURVE",
"674 490 OFFCURVE",
"661 490 CURVE SMOOTH",
"163 490 LINE SMOOTH",
"155 490 OFFCURVE",
"148 484 OFFCURVE",
"146 476 CURVE",
"120 358 LINE",
"118 344 OFFCURVE",
"126 334 OFFCURVE",
"139 334 CURVE SMOOTH"
);
}
);
width = 800;
}
);
unicode = 06D4;
},
{
glyphname = "comma-ar";
lastChange = "2016-02-11 17:42:53 +0000";
layers = (
{
layerId = "93A312F7-B931-4485-B08E-C367313EB5E7";
name = Regular;
paths = (
{
closed = 1;
nodes = (
"278 -35 OFFCURVE",
"286 -30 OFFCURVE",
"292 -22 CURVE",
"383 127 LINE",
"389 138 OFFCURVE",
"386 148 OFFCURVE",
"374 151 CURVE SMOOTH",
"263 188 OFFCURVE",
"211 240 OFFCURVE",
"308 425 CURVE SMOOTH",
"383 565 LINE SMOOTH",
"389 576 OFFCURVE",
"384 584 OFFCURVE",
"373 589 CURVE SMOOTH",
"322 611 LINE",
"312 616 OFFCURVE",
"302 612 OFFCURVE",
"298 602 CURVE SMOOTH",
"228 468 LINE",
"133 317 OFFCURVE",
"26 61 OFFCURVE",
"268 -30 CURVE"
);
}
);
width = 506;
}
);
unicode = 060C;
},
{
glyphname = "question-ar";
lastChange = "2016-02-11 17:42:53 +0000";
layers = (
{
components = (
{
name = period;
transform = "{0.876, 0, 0, 0.876, 274, -22}";
}
);
layerId = "93A312F7-B931-4485-B08E-C367313EB5E7";
name = Regular;
paths = (
{
closed = 1;
nodes = (
"575 451 LINE",
"586 456 OFFCURVE",
"590 462 OFFCURVE",
"592 474 CURVE SMOOTH",
"593 488 OFFCURVE",
"593 529 OFFCURVE",
"594 542 CURVE",
"602 817 OFFCURVE",
"589 778 OFFCURVE",
"220 1098 CURVE SMOOTH",
"211 1105 OFFCURVE",
"209 1116 OFFCURVE",
"215 1126 CURVE",
"301 1328 OFFCURVE",
"545 1334 OFFCURVE",
"695 1242 CURVE",
"708 1235 OFFCURVE",
"718 1244 OFFCURVE",
"718 1259 CURVE SMOOTH",
"718 1369 LINE SMOOTH",
"718 1380 OFFCURVE",
"713 1386 OFFCURVE",
"704 1393 CURVE",
"472 1571 OFFCURVE",
"131 1429 OFFCURVE",
"120 1092 CURVE SMOOTH",
"115 916 OFFCURVE",
"235 874 OFFCURVE",
"364 751 CURVE SMOOTH",
"443 677 OFFCURVE",
"472 644 OFFCURVE",
"476 541 CURVE",
"475 440 LINE SMOOTH",
"475 425 OFFCURVE",
"485 419 OFFCURVE",
"497 425 CURVE"
);
}
);
width = 838;
}
);
unicode = 061F;
},
{
glyphname = "asterisk-ar";
lastChange = "2016-02-11 17:42:54 +0000";
layers = (
{
layerId = "93A312F7-B931-4485-B08E-C367313EB5E7";
name = Regular;
paths = (
{
closed = 1;
nodes = (
"443 366 LINE",
"623 229 LINE",
"646 250 LINE",
"564 456 LINE",
"756 580 LINE",
"748 610 LINE",
"520 599 LINE",
"452 821 LINE",
"424 821 LINE",
"368 599 LINE",
"130 606 LINE",
"120 580 LINE",
"323 455 LINE",
"245 238 LINE",
"266 221 LINE"
);
}
);
width = 876;
}
);
unicode = 066D;
},
{
glyphname = "endofayah-ar";
lastChange = "2016-02-11 17:42:53 +0000";
layers = (
{
layerId = "93A312F7-B931-4485-B08E-C367313EB5E7";
name = Regular;
paths = (
{
closed = 1;
nodes = (
"1679 -1027 LINE SMOOTH",
"1690 -1027 OFFCURVE",
"1697 -1020 OFFCURVE",
"1697 -1009 CURVE SMOOTH",
"1697 -810 LINE SMOOTH",
"1697 -799 OFFCURVE",
"1703 -793 OFFCURVE",
"1714 -792 CURVE SMOOTH",
"2441 -732 OFFCURVE",
"3013 -122 OFFCURVE",
"3013 619 CURVE SMOOTH",
"3013 1361 OFFCURVE",
"2441 1969 OFFCURVE",
"1714 2029 CURVE SMOOTH",
"1703 2030 OFFCURVE",
"1697 2036 OFFCURVE",
"1697 2047 CURVE SMOOTH",
"1697 2246 LINE SMOOTH",
"1697 2257 OFFCURVE",
"1690 2264 OFFCURVE",
"1679 2264 CURVE SMOOTH",
"1513 2264 LINE SMOOTH",
"1502 2264 OFFCURVE",
"1495 2257 OFFCURVE",
"1495 2246 CURVE SMOOTH",
"1495 2048 LINE SMOOTH",
"1495 2038 OFFCURVE",
"1489 2032 OFFCURVE",
"1478 2030 CURVE SMOOTH",
"751 1970 OFFCURVE",
"180 1361 OFFCURVE",
"180 619 CURVE SMOOTH",
"180 -122 OFFCURVE",
"751 -733 OFFCURVE",
"1478 -793 CURVE SMOOTH",
"1489 -794 OFFCURVE",
"1495 -800 OFFCURVE",
"1495 -811 CURVE SMOOTH",
"1495 -1009 LINE SMOOTH",
"1495 -1020 OFFCURVE",
"1502 -1027 OFFCURVE",
"1513 -1027 CURVE SMOOTH"
);
},
{
closed = 1;
nodes = (
"1524 -672 OFFCURVE",
"1468 -617 OFFCURVE",
"1468 -545 CURVE SMOOTH",
"1468 -473 OFFCURVE",
"1524 -412 OFFCURVE",
"1596 -412 CURVE SMOOTH",
"1668 -412 OFFCURVE",
"1728 -473 OFFCURVE",
"1728 -545 CURVE SMOOTH",
"1728 -617 OFFCURVE",
"1668 -672 OFFCURVE",
"1596 -672 CURVE SMOOTH"
);
},
{
closed = 1;
nodes = (
"490 -86 OFFCURVE",
"330 242 OFFCURVE",
"330 619 CURVE SMOOTH",
"330 996 OFFCURVE",
"490 1337 OFFCURVE",
"757 1566 CURVE SMOOTH",
"766 1573 OFFCURVE",
"774 1576 OFFCURVE",
"784 1566 CURVE SMOOTH",
"809 1541 LINE SMOOTH",
"841 1508 OFFCURVE",
"872 1506 OFFCURVE",
"908 1535 CURVE SMOOTH",
"1052 1650 OFFCURVE",
"1285 1733 OFFCURVE",
"1583 1500 CURVE",
"1591 1494 OFFCURVE",
"1601 1493 OFFCURVE",
"1609 1500 CURVE",
"1907 1733 OFFCURVE",
"2141 1650 OFFCURVE",
"2285 1535 CURVE SMOOTH",
"2321 1506 OFFCURVE",
"2352 1508 OFFCURVE",
"2384 1541 CURVE SMOOTH",
"2410 1566 LINE SMOOTH",
"2419 1576 OFFCURVE",
"2428 1573 OFFCURVE",
"2436 1566 CURVE SMOOTH",
"2704 1337 OFFCURVE",
"2863 996 OFFCURVE",
"2863 619 CURVE SMOOTH",
"2863 242 OFFCURVE",
"2704 -86 OFFCURVE",
"2436 -316 CURVE SMOOTH",
"2428 -323 OFFCURVE",
"2419 -325 OFFCURVE",
"2410 -316 CURVE SMOOTH",
"2384 -290 LINE SMOOTH",
"2352 -258 OFFCURVE",
"2321 -256 OFFCURVE",
"2285 -284 CURVE SMOOTH",
"2141 -400 OFFCURVE",
"1907 -496 OFFCURVE",
"1609 -263 CURVE",
"1601 -256 OFFCURVE",
"1591 -256 OFFCURVE",
"1583 -263 CURVE",
"1285 -496 OFFCURVE",
"1052 -400 OFFCURVE",
"908 -284 CURVE SMOOTH",
"872 -256 OFFCURVE",
"841 -258 OFFCURVE",
"809 -290 CURVE SMOOTH",
"784 -316 LINE SMOOTH",
"774 -325 OFFCURVE",
"766 -323 OFFCURVE",
"757 -316 CURVE SMOOTH"
);
},
{
closed = 1;
nodes = (
"1523 1649 OFFCURVE",
"1466 1704 OFFCURVE",
"1466 1776 CURVE SMOOTH",
"1466 1848 OFFCURVE",
"1523 1909 OFFCURVE",
"1595 1909 CURVE SMOOTH",
"1667 1909 OFFCURVE",
"1727 1848 OFFCURVE",
"1727 1776 CURVE SMOOTH",
"1727 1704 OFFCURVE",
"1667 1649 OFFCURVE",
"1595 1649 CURVE SMOOTH"
);
}
);
width = 3157;
}
);
unicode = 06DD;
},
{
glyphname = "parenleft-ar";
lastChange = "2016-02-11 17:42:53 +0000";
layers = (
{
layerId = "93A312F7-B931-4485-B08E-C367313EB5E7";
name = Regular;
paths = (
{
closed = 1;
nodes = (
"1027 -503 OFFCURVE",
"1034 -499 OFFCURVE",
"1039 -492 CURVE SMOOTH",
"1085 -422 LINE SMOOTH",
"1091 -413 OFFCURVE",
"1087 -404 OFFCURVE",
"1076 -401 CURVE SMOOTH",
"914 -347 OFFCURVE",
"772 -252 OFFCURVE",
"660 -128 CURVE",
"653 -121 OFFCURVE",
"653 -113 OFFCURVE",
"660 -106 CURVE",
"673 -90 LINE SMOOTH",
"700 -60 OFFCURVE",
"701 -30 OFFCURVE",
"676 2 CURVE SMOOTH",
"593 115 OFFCURVE",
"516 284 OFFCURVE",
"703 516 CURVE",
"710 526 OFFCURVE",
"710 533 OFFCURVE",
"703 540 CURVE",
"524 767 OFFCURVE",
"599 930 OFFCURVE",
"679 1039 CURVE SMOOTH",
"703 1073 OFFCURVE",
"701 1104 OFFCURVE",
"670 1132 CURVE",
"656 1142 LINE SMOOTH",
"648 1150 OFFCURVE",
"648 1158 OFFCURVE",
"655 1165 CURVE",
"766 1290 OFFCURVE",
"910 1386 OFFCURVE",
"1072 1441 CURVE",
"1084 1445 OFFCURVE",
"1087 1454 OFFCURVE",
"1079 1463 CURVE",
"1024 1535 LINE SMOOTH",
"1018 1543 OFFCURVE",
"1010 1544 OFFCURVE",
"1001 1542 CURVE",
"616 1397 OFFCURVE",
"335 1042 OFFCURVE",
"300 618 CURVE SMOOTH",
"299 607 OFFCURVE",
"293 602 OFFCURVE",
"283 602 CURVE SMOOTH",
"136 602 LINE SMOOTH",
"126 602 OFFCURVE",
"120 595 OFFCURVE",
"120 586 CURVE SMOOTH",
"120 463 LINE SMOOTH",
"120 454 OFFCURVE",
"126 448 OFFCURVE",
"136 448 CURVE SMOOTH",
"282 448 LINE SMOOTH",
"292 448 OFFCURVE",
"298 442 OFFCURVE",
"299 432 CURVE",
"335 0 OFFCURVE",
"625 -360 OFFCURVE",
"1018 -499 CURVE SMOOTH"
);
},
{
closed = 1;
nodes = (
"437 434 OFFCURVE",
"391 475 OFFCURVE",
"391 532 CURVE SMOOTH",
"391 588 OFFCURVE",
"437 632 OFFCURVE",
"493 632 CURVE SMOOTH",
"548 632 OFFCURVE",
"590 588 OFFCURVE",
"590 532 CURVE SMOOTH",
"590 475 OFFCURVE",
"548 434 OFFCURVE",
"493 434 CURVE SMOOTH"
);
}
);
width = 1207;
}
);
unicode = FD3E;
},
{
glyphname = "parenright-ar";
lastChange = "2016-02-11 17:42:53 +0000";
layers = (
{
layerId = "93A312F7-B931-4485-B08E-C367313EB5E7";
name = Regular;
paths = (
{
closed = 1;
nodes = (
"583 -360 OFFCURVE",
"872 0 OFFCURVE",
"908 432 CURVE",
"910 442 OFFCURVE",
"916 448 OFFCURVE",
"925 448 CURVE SMOOTH",
"1072 448 LINE SMOOTH",
"1081 448 OFFCURVE",
"1088 454 OFFCURVE",
"1088 463 CURVE SMOOTH",
"1088 586 LINE SMOOTH",
"1088 595 OFFCURVE",
"1081 602 OFFCURVE",
"1072 602 CURVE SMOOTH",
"924 602 LINE SMOOTH",
"914 602 OFFCURVE",
"908 607 OFFCURVE",
"907 617 CURVE",
"871 1042 OFFCURVE",
"592 1398 OFFCURVE",
"206 1542 CURVE",
"198 1544 OFFCURVE",
"190 1543 OFFCURVE",
"185 1535 CURVE",
"128 1463 LINE",
"121 1454 OFFCURVE",
"124 1445 OFFCURVE",
"134 1441 CURVE SMOOTH",
"298 1387 OFFCURVE",
"442 1290 OFFCURVE",
"552 1165 CURVE",
"559 1158 OFFCURVE",
"559 1150 OFFCURVE",
"551 1142 CURVE SMOOTH",
"538 1132 LINE",
"506 1104 OFFCURVE",
"504 1073 OFFCURVE",
"528 1039 CURVE SMOOTH",
"610 930 OFFCURVE",
"683 768 OFFCURVE",
"504 540 CURVE",
"497 533 OFFCURVE",
"497 526 OFFCURVE",
"504 516 CURVE",
"691 284 OFFCURVE",
"614 114 OFFCURVE",
"532 2 CURVE SMOOTH",
"508 -30 OFFCURVE",
"508 -60 OFFCURVE",
"534 -90 CURVE SMOOTH",
"547 -106 LINE",
"554 -113 OFFCURVE",
"554 -121 OFFCURVE",
"547 -130 CURVE SMOOTH",
"436 -252 OFFCURVE",
"293 -347 OFFCURVE",
"131 -401 CURVE SMOOTH",
"120 -404 OFFCURVE",
"116 -413 OFFCURVE",
"122 -422 CURVE SMOOTH",
"168 -492 LINE SMOOTH",
"173 -499 OFFCURVE",
"180 -503 OFFCURVE",
"190 -499 CURVE SMOOTH"
);
},
{
closed = 1;
nodes = (
"659 434 OFFCURVE",
"617 475 OFFCURVE",
"617 532 CURVE SMOOTH",
"617 588 OFFCURVE",
"659 632 OFFCURVE",
"714 632 CURVE SMOOTH",
"770 632 OFFCURVE",
"816 588 OFFCURVE",
"816 532 CURVE SMOOTH",
"816 475 OFFCURVE",
"770 434 OFFCURVE",
"714 434 CURVE SMOOTH"
);
}
);
width = 1208;
}
);
unicode = FD3F;
},
{
glyphname = "afghani-ar";
lastChange = "2016-02-11 17:42:53 +0000";
layers = (
{
layerId = "93A312F7-B931-4485-B08E-C367313EB5E7";
name = Regular;
paths = (
{
closed = 1;
nodes = (
"504 -5 OFFCURVE",
"648 -4 OFFCURVE",
"823 36 CURVE SMOOTH",
"1153 112 OFFCURVE",
"1177 304 OFFCURVE",
"1163 542 CURVE SMOOTH",
"1145 850 OFFCURVE",
"992 1178 OFFCURVE",
"794 1178 CURVE SMOOTH",
"553 1178 OFFCURVE",
"436 882 OFFCURVE",
"436 635 CURVE SMOOTH",
"436 316 OFFCURVE",
"828 350 OFFCURVE",
"1016 442 CURVE SMOOTH",
"1033 450 OFFCURVE",
"1050 440 OFFCURVE",
"1050 421 CURVE SMOOTH",
"1049 296 LINE SMOOTH",
"1049 290 OFFCURVE",
"1045 284 OFFCURVE",
"1039 281 CURVE",
"880 194 OFFCURVE",
"620 173 OFFCURVE",
"272 187 CURVE",
"149 187 OFFCURVE",
"149 0 OFFCURVE",
"272 0 CURVE SMOOTH"
);
},
{
closed = 1;
nodes = (
"748 -646 LINE",
"750 -644 OFFCURVE",
"751 -641 OFFCURVE",
"751 -638 CURVE",
"749 -209 LINE",
"749 -204 OFFCURVE",
"745 -202 OFFCURVE",
"742 -204 CURVE",
"637 -264 LINE",
"634 -266 OFFCURVE",
"632 -269 OFFCURVE",
"632 -271 CURVE",
"660 -702 LINE",
"660 -707 OFFCURVE",
"662 -709 OFFCURVE",
"667 -706 CURVE SMOOTH"
);
},
{
closed = 1;
nodes = (
"559 598 OFFCURVE",
"541 613 OFFCURVE",
"541 619 CURVE SMOOTH",
"544 821 OFFCURVE",
"619 979 OFFCURVE",
"752 979 CURVE SMOOTH",
"871 979 OFFCURVE",
"991 790 OFFCURVE",
"1027 596 CURVE",
"1030 588 OFFCURVE",
"770 523 OFFCURVE",
"594 586 CURVE SMOOTH"
);
},
{
closed = 1;
nodes = (
"806 1478 OFFCURVE",
"810 1478 OFFCURVE",
"812 1481 CURVE",
"932 1628 LINE",
"940 1638 OFFCURVE",
"942 1657 OFFCURVE",
"932 1666 CURVE SMOOTH",
"792 1781 LINE",
"788 1783 OFFCURVE",
"785 1786 OFFCURVE",
"781 1781 CURVE SMOOTH",
"649 1616 LINE",
"644 1612 OFFCURVE",
"644 1608 OFFCURVE",
"649 1604 CURVE SMOOTH",
"804 1481 LINE"
);
}
);
width = 1310;
}
);
unicode = 060B;
},
{
glyphname = rial;
lastChange = "2016-02-11 17:42:53 +0000";
layers = (
{
layerId = "93A312F7-B931-4485-B08E-C367313EB5E7";
name = Regular;
paths = (
{
closed = 1;
nodes = (
"869 -126 OFFCURVE",
"976 20 OFFCURVE",
"1034 182 CURVE",
"1421 182 LINE",
"1421 278 LINE",
"1062 278 LINE",
"1078 350 OFFCURVE",
"1080 403 OFFCURVE",
"1072 487 CURVE",
"1421 487 LINE",
"1421 583 LINE",
"1057 583 LINE",
"1044 706 OFFCURVE",
"1015 830 OFFCURVE",
"961 1013 CURVE SMOOTH",
"958 1026 OFFCURVE",
"947 1027 OFFCURVE",
"937 1018 CURVE SMOOTH",
"829 908 LINE",
"823 901 OFFCURVE",
"821 894 OFFCURVE",
"823 884 CURVE SMOOTH",
"908 583 LINE",
"181 583 LINE",
"181 487 LINE",
"936 487 LINE",
"952 410 OFFCURVE",
"946 341 OFFCURVE",
"932 278 CURVE",
"181 278 LINE",
"181 182 LINE",
"890 182 LINE",
"752 -37 OFFCURVE",
"562 -128 OFFCURVE",
"227 -55 CURVE SMOOTH",
"216 -53 OFFCURVE",
"209 -60 OFFCURVE",
"205 -71 CURVE SMOOTH",
"181 -140 LINE",
"179 -150 OFFCURVE",
"184 -157 OFFCURVE",
"194 -161 CURVE SMOOTH",
"442 -244 OFFCURVE",
"614 -269 OFFCURVE",
"761 -187 CURVE SMOOTH"
);
}
);
width = 1565;
}
);
unicode = FDFC;
},
{
glyphname = asciitilde;
lastChange = "2016-02-11 17:42:53 +0000";
layers = (
{
layerId = "93A312F7-B931-4485-B08E-C367313EB5E7";
name = Regular;
paths = (
{
closed = 1;
nodes = (
"299 529 OFFCURVE",
"440 563 OFFCURVE",
"584 476 CURVE SMOOTH",
"744 382 OFFCURVE",
"898 382 OFFCURVE",
"1032 480 CURVE",
"974 566 LINE",
"853 499 OFFCURVE",
"738 498 OFFCURVE",
"570 590 CURVE SMOOTH",
"444 661 OFFCURVE",
"252 642 OFFCURVE",
"120 534 CURVE",
"172 446 LINE"
);
}
);
width = 1152;
}
);
unicode = 007E;
},
{
glyphname = divide;
lastChange = "2016-02-11 17:42:54 +0000";
layers = (
{
layerId = "93A312F7-B931-4485-B08E-C367313EB5E7";
name = Regular;
paths = (
{
closed = 1;
nodes = (
"955 427 LINE",
"955 560 LINE",
"120 560 LINE",
"120 427 LINE"
);
},
{
closed = 1;
nodes = (
"594 30 OFFCURVE",
"632 68 OFFCURVE",
"632 115 CURVE SMOOTH",
"632 162 OFFCURVE",
"594 200 OFFCURVE",
"547 200 CURVE SMOOTH",
"500 200 OFFCURVE",
"462 162 OFFCURVE",
"462 115 CURVE SMOOTH",
"462 68 OFFCURVE",
"500 30 OFFCURVE",
"547 30 CURVE SMOOTH"
);
},
{
closed = 1;
nodes = (
"594 841 OFFCURVE",
"632 880 OFFCURVE",
"632 926 CURVE SMOOTH",
"632 973 OFFCURVE",
"594 1012 OFFCURVE",
"547 1012 CURVE SMOOTH",
"500 1012 OFFCURVE",
"462 973 OFFCURVE",
"462 926 CURVE SMOOTH",
"462 880 OFFCURVE",
"500 841 OFFCURVE",
"547 841 CURVE SMOOTH"
);
}
);
width = 1075;
}
);
unicode = 00F7;
},
{
glyphname = equal;
lastChange = "2016-02-11 17:42:54 +0000";
layers = (
{
layerId = "93A312F7-B931-4485-B08E-C367313EB5E7";
name = Regular;
paths = (
{
closed = 1;
nodes = (
"955 635 LINE",
"955 768 LINE",
"120 768 LINE",
"120 635 LINE"
);
},
{
closed = 1;
nodes = (
"955 275 LINE",
"955 408 LINE",
"120 408 LINE",
"120 275 LINE"
);
}
);
width = 1075;
}
);
unicode = 003D;
},
{
glyphname = greater;
lastChange = "2016-02-11 17:42:54 +0000";
layers = (
{
layerId = "93A312F7-B931-4485-B08E-C367313EB5E7";
name = Regular;
paths = (
{
closed = 1;
nodes = (
"1075 455 LINE",
"1075 588 LINE",
"120 1068 LINE",
"120 935 LINE",
"943 522 LINE",
"120 108 LINE",
"120 -25 LINE"
);
}
);
width = 1195;
}
);
unicode = 003E;
userData = {
com.typemytype.robofont.guides = (
{
angle = 0;
isGlobal = 0;
x = "-192";
y = 1070;
},
{
angle = 0;
isGlobal = 0;
x = "-196";
y = 0;
}
);
};
},
{
glyphname = less;
lastChange = "2016-02-11 17:42:54 +0000";
layers = (
{
layerId = "93A312F7-B931-4485-B08E-C367313EB5E7";
name = Regular;
paths = (
{
closed = 1;
nodes = (
"1075 108 LINE",
"252 522 LINE",
"1075 935 LINE",
"1075 1068 LINE",
"120 588 LINE",
"120 455 LINE",
"1075 -25 LINE"
);
}
);
width = 1195;
}
);
unicode = 003C;
},
{
glyphname = minus;
lastChange = "2016-02-11 17:42:53 +0000";
layers = (
{
layerId = "93A312F7-B931-4485-B08E-C367313EB5E7";
name = Regular;
paths = (
{
closed = 1;
nodes = (
"1193 437 LINE",
"1193 606 LINE",
"120 606 LINE",
"120 437 LINE"
);
}
);
width = 1313;
}
);
unicode = 2212;
},
{
glyphname = multiply;
lastChange = "2016-02-11 17:42:54 +0000";
layers = (
{
layerId = "93A312F7-B931-4485-B08E-C367313EB5E7";
name = Regular;
paths = (
{
closed = 1;
nodes = (
"646 434 LINE",
"1060 -31 LINE",
"1168 52 LINE",
"734 535 LINE",
"1136 986 LINE",
"1036 1073 LINE",
"644 636 LINE",
"254 1073 LINE",
"154 986 LINE",
"556 535 LINE",
"120 49 LINE",
"230 -31 LINE"
);
}
);
width = 1288;
}
);
unicode = 00D7;
},
{
glyphname = plus;
lastChange = "2016-02-11 17:42:53 +0000";
layers = (
{
layerId = "93A312F7-B931-4485-B08E-C367313EB5E7";
name = Regular;
paths = (
{
closed = 1;
nodes = (
"608 130 LINE",
"602 466 LINE",
"955 466 LINE",
"955 599 LINE",
"605 599 LINE",
"604 916 LINE",
"466 914 LINE",
"472 599 LINE",
"120 599 LINE",
"120 466 LINE",
"472 466 LINE",
"478 127 LINE"
);
}
);
width = 1075;
}
);
unicode = 002B;
},
{
glyphname = dottedCircle;
lastChange = "2016-02-11 17:42:54 +0000";
layers = (
{
layerId = "93A312F7-B931-4485-B08E-C367313EB5E7";
name = Regular;
paths = (
{
closed = 1;
nodes = (
"738 665 OFFCURVE",
"768 665 OFFCURVE",
"792 706 CURVE SMOOTH",
"816 746 OFFCURVE",
"800 773 OFFCURVE",
"772 790 CURVE SMOOTH",
"744 805 OFFCURVE",
"710 805 OFFCURVE",
"688 766 CURVE SMOOTH",
"664 726 OFFCURVE",
"679 698 OFFCURVE",
"709 682 CURVE SMOOTH"
);
},
{
closed = 1;
nodes = (
"367 22 OFFCURVE",
"397 23 OFFCURVE",
"420 62 CURVE SMOOTH",
"443 103 OFFCURVE",
"428 130 OFFCURVE",
"400 146 CURVE SMOOTH",
"373 162 OFFCURVE",
"340 162 OFFCURVE",
"317 122 CURVE SMOOTH",
"293 82 OFFCURVE",
"308 55 OFFCURVE",
"337 38 CURVE SMOOTH"
);
},
{
closed = 1;
nodes = (
"302 200 OFFCURVE",
"304 230 OFFCURVE",
"287 259 CURVE SMOOTH",
"271 287 OFFCURVE",
"242 304 OFFCURVE",
"203 281 CURVE SMOOTH",
"162 257 OFFCURVE",
"162 227 OFFCURVE",
"179 197 CURVE SMOOTH",
"196 168 OFFCURVE",
"222 154 OFFCURVE",
"263 176 CURVE"
);
},
{
closed = 1;
nodes = (
"600 -19 OFFCURVE",
"616 7 OFFCURVE",
"616 41 CURVE SMOOTH",
"616 72 OFFCURVE",
"599 101 OFFCURVE",
"553 101 CURVE SMOOTH",
"506 101 OFFCURVE",
"491 74 OFFCURVE",
"491 41 CURVE SMOOTH",
"491 7 OFFCURVE",
"506 -19 OFFCURVE",
"553 -19 CURVE SMOOTH"
);
},
{
closed = 1;
nodes = (
"229 354 OFFCURVE",
"245 380 OFFCURVE",
"245 414 CURVE SMOOTH",
"245 445 OFFCURVE",
"228 474 OFFCURVE",
"182 474 CURVE SMOOTH",
"136 474 OFFCURVE",
"120 448 OFFCURVE",
"120 414 CURVE SMOOTH",
"120 380 OFFCURVE",
"136 354 OFFCURVE",
"182 354 CURVE SMOOTH"
);
},
{
closed = 1;
nodes = (
"227 530 OFFCURVE",
"259 530 OFFCURVE",
"281 571 CURVE",
"305 611 OFFCURVE",
"289 638 OFFCURVE",
"260 654 CURVE",
"233 671 OFFCURVE",
"200 670 OFFCURVE",
"178 630 CURVE SMOOTH",
"155 590 OFFCURVE",
"169 563 OFFCURVE",
"198 546 CURVE SMOOTH"
);
},
{
closed = 1;
nodes = (
"811 62 OFFCURVE",
"811 92 OFFCURVE",
"794 121 CURVE SMOOTH",
"779 149 OFFCURVE",
"750 166 OFFCURVE",
"710 143 CURVE SMOOTH",
"670 119 OFFCURVE",
"670 89 OFFCURVE",
"686 59 CURVE SMOOTH",
"703 30 OFFCURVE",
"730 16 OFFCURVE",
"770 38 CURVE SMOOTH"
);
},
{
closed = 1;
nodes = (
"875 156 OFFCURVE",
"905 156 OFFCURVE",
"929 197 CURVE SMOOTH",
"953 238 OFFCURVE",
"937 264 OFFCURVE",
"908 281 CURVE SMOOTH",
"881 296 OFFCURVE",
"848 296 OFFCURVE",
"826 257 CURVE SMOOTH",
"802 216 OFFCURVE",
"817 190 OFFCURVE",
"846 173 CURVE SMOOTH"
);
},
{
closed = 1;
nodes = (
"437 709 OFFCURVE",
"437 740 OFFCURVE",
"420 769 CURVE SMOOTH",
"404 797 OFFCURVE",
"376 812 OFFCURVE",
"336 790 CURVE SMOOTH",
"296 767 OFFCURVE",
"295 736 OFFCURVE",
"312 707 CURVE SMOOTH",
"329 678 OFFCURVE",
"356 662 OFFCURVE",
"396 686 CURVE"
);
},
{
closed = 1;
nodes = (
"972 354 OFFCURVE",
"988 380 OFFCURVE",
"988 414 CURVE SMOOTH",
"988 445 OFFCURVE",
"971 474 OFFCURVE",
"925 474 CURVE SMOOTH",
"878 474 OFFCURVE",
"863 448 OFFCURVE",
"863 414 CURVE SMOOTH",
"863 380 OFFCURVE",
"878 354 OFFCURVE",
"925 354 CURVE SMOOTH"
);
},
{
closed = 1;
nodes = (
"600 728 OFFCURVE",
"616 755 OFFCURVE",
"616 788 CURVE SMOOTH",
"616 820 OFFCURVE",
"599 848 OFFCURVE",
"553 848 CURVE SMOOTH",
"506 848 OFFCURVE",
"491 822 OFFCURVE",
"491 788 CURVE SMOOTH",
"491 755 OFFCURVE",
"506 728 OFFCURVE",
"553 728 CURVE SMOOTH"
);
},
{
closed = 1;
nodes = (
"947 571 OFFCURVE",
"947 602 OFFCURVE",
"930 631 CURVE SMOOTH",
"914 658 OFFCURVE",
"886 674 OFFCURVE",
"846 652 CURVE SMOOTH",
"805 629 OFFCURVE",
"805 598 OFFCURVE",
"822 569 CURVE SMOOTH",
"839 540 OFFCURVE",
"865 524 OFFCURVE",
"906 548 CURVE SMOOTH"
);
}
);
width = 1108;
}
);
unicode = 25CC;
},
{
glyphname = whiteStar.circled;
lastChange = "2016-02-11 17:42:54 +0000";
layers = (
{
layerId = "93A312F7-B931-4485-B08E-C367313EB5E7";
name = Regular;
paths = (
{
closed = 1;
nodes = (
"728 124 OFFCURVE",
"904 295 OFFCURVE",
"904 505 CURVE SMOOTH",
"904 715 OFFCURVE",
"728 889 OFFCURVE",
"511 889 CURVE SMOOTH",
"294 889 OFFCURVE",
"120 715 OFFCURVE",
"120 505 CURVE SMOOTH",
"120 295 OFFCURVE",
"294 124 OFFCURVE",
"511 124 CURVE SMOOTH"
);
},
{
closed = 1;
nodes = (
"322 239 LINE",
"400 456 LINE",
"197 581 LINE",
"206 607 LINE",
"445 600 LINE",
"500 822 LINE",
"529 822 LINE",
"596 600 LINE",
"824 611 LINE",
"833 581 LINE",
"641 457 LINE",
"722 251 LINE",
"700 230 LINE",
"520 367 LINE",
"343 222 LINE"
);
}
);
width = 1024;
}
);
unicode = 272A;
},
{
glyphname = bar;
lastChange = "2016-02-11 17:42:54 +0000";
layers = (
{
layerId = "93A312F7-B931-4485-B08E-C367313EB5E7";
name = Regular;
paths = (
{
closed = 1;
nodes = (
"275 -566 LINE",
"275 1609 LINE",
"144 1609 LINE",
"144 -566 LINE"
);
}
);
width = 419;
}
);
unicode = 007C;
},
{
glyphname = at;
lastChange = "2016-02-11 17:42:54 +0000";
layers = (
{
layerId = "93A312F7-B931-4485-B08E-C367313EB5E7";
name = Regular;
paths = (
{
closed = 1;
nodes = (
"942 79 OFFCURVE",
"1038 96 OFFCURVE",
"1124 136 CURVE",
"1092 223 LINE",
"1021 193 OFFCURVE",
"936 175 OFFCURVE",
"832 175 CURVE SMOOTH",
"497 175 OFFCURVE",
"275 343 OFFCURVE",
"275 671 CURVE SMOOTH",
"275 985 OFFCURVE",
"496 1225 OFFCURVE",
"812 1225 CURVE SMOOTH",
"901 1225 OFFCURVE",
"982 1207 OFFCURVE",
"1054 1169 CURVE SMOOTH",
"1200 1096 OFFCURVE",
"1274 962 OFFCURVE",
"1274 818 CURVE SMOOTH",
"1274 696 OFFCURVE",
"1212 569 OFFCURVE",
"1115 500 CURVE SMOOTH",
"1078 475 OFFCURVE",
"1049 462 OFFCURVE",
"1025 462 CURVE SMOOTH",
"1000 462 OFFCURVE",
"980 482 OFFCURVE",
"980 504 CURVE SMOOTH",
"980 511 OFFCURVE",
"986 545 OFFCURVE",
"1000 605 CURVE SMOOTH",
"1092 1037 LINE",
"980 1055 LINE",
"955 938 LINE",
"906 1018 OFFCURVE",
"835 1056 OFFCURVE",
"760 1056 CURVE SMOOTH",
"712 1056 OFFCURVE",
"661 1038 OFFCURVE",
"608 1004 CURVE SMOOTH",
"367 847 OFFCURVE",
"361 395 OFFCURVE",
"632 358 CURVE SMOOTH",
"709 346 OFFCURVE",
"796 377 OFFCURVE",
"870 462 CURVE",
"874 420 OFFCURVE",
"913 354 OFFCURVE",
"982 354 CURVE SMOOTH",
"1168 354 OFFCURVE",
"1369 566 OFFCURVE",
"1369 817 CURVE SMOOTH",
"1369 992 OFFCURVE",
"1277 1168 OFFCURVE",
"1105 1255 CURVE SMOOTH",
"1021 1298 OFFCURVE",
"925 1320 OFFCURVE",
"818 1320 CURVE SMOOTH",
"680 1320 OFFCURVE",
"565 1289 OFFCURVE",
"468 1226 CURVE SMOOTH",
"275 1103 OFFCURVE",
"180 871 OFFCURVE",
"180 660 CURVE SMOOTH",
"180 286 OFFCURVE",
"440 79 OFFCURVE",
"833 79 CURVE SMOOTH"
);
},
{
closed = 1;
nodes = (
"589 862 OFFCURVE",
"674 961 OFFCURVE",
"768 961 CURVE SMOOTH",
"851 961 OFFCURVE",
"930 890 OFFCURVE",
"930 776 CURVE SMOOTH",
"930 352 OFFCURVE",
"430 332 OFFCURVE",
"553 749 CURVE SMOOTH"
);
}
);
width = 1513;
}
);
unicode = 0040;
},
{
glyphname = degree;
lastChange = "2016-02-11 17:42:53 +0000";
layers = (
{
layerId = "93A312F7-B931-4485-B08E-C367313EB5E7";
name = Regular;
paths = (
{
closed = 1;
nodes = (
"527 1116 OFFCURVE",
"660 1250 OFFCURVE",
"660 1417 CURVE SMOOTH",
"660 1583 OFFCURVE",
"527 1717 OFFCURVE",
"360 1717 CURVE SMOOTH",
"193 1717 OFFCURVE",
"60 1583 OFFCURVE",
"60 1417 CURVE SMOOTH",
"60 1250 OFFCURVE",
"193 1116 OFFCURVE",
"360 1116 CURVE SMOOTH"
);
},
{
closed = 1;
nodes = (
"244 1206 OFFCURVE",
"149 1301 OFFCURVE",
"149 1417 CURVE SMOOTH",
"149 1532 OFFCURVE",
"244 1627 OFFCURVE",
"360 1627 CURVE SMOOTH",
"478 1627 OFFCURVE",
"571 1532 OFFCURVE",
"571 1417 CURVE SMOOTH",
"571 1301 OFFCURVE",
"478 1206 OFFCURVE",
"360 1206 CURVE SMOOTH"
);
}
);
width = 720;
}
);
unicode = 00B0;
},
{
glyphname = asciicircum;
lastChange = "2016-02-11 17:42:53 +0000";
layers = (
{
layerId = "93A312F7-B931-4485-B08E-C367313EB5E7";
name = Regular;
paths = (
{
closed = 1;
nodes = (
"274 659 LINE",
"700 1661 LINE",
"1127 659 LINE",
"1279 659 LINE",
"790 1823 LINE",
"610 1823 LINE",
"120 659 LINE"
);
}
);
width = 1399;
}
);
unicode = 005E;
},
{
glyphname = lowringmod;
lastChange = "2016-02-11 17:42:53 +0000";
layers = (
{
layerId = "93A312F7-B931-4485-B08E-C367313EB5E7";
name = Regular;
paths = (
{
closed = 1;
nodes = (
"510 -502 OFFCURVE",
"632 -379 OFFCURVE",
"632 -227 CURVE SMOOTH",
"632 -77 OFFCURVE",
"510 47 OFFCURVE",
"358 47 CURVE SMOOTH",
"206 47 OFFCURVE",
"84 -77 OFFCURVE",
"84 -227 CURVE SMOOTH",
"84 -379 OFFCURVE",
"206 -502 OFFCURVE",
"358 -502 CURVE SMOOTH"
);
},
{
closed = 1;
nodes = (
"252 -419 OFFCURVE",
"167 -332 OFFCURVE",
"167 -226 CURVE SMOOTH",
"167 -121 OFFCURVE",
"252 -35 OFFCURVE",
"358 -35 CURVE SMOOTH",
"464 -35 OFFCURVE",
"550 -121 OFFCURVE",
"550 -226 CURVE SMOOTH",
"550 -332 OFFCURVE",
"464 -419 OFFCURVE",
"358 -419 CURVE SMOOTH"
);
}
);
width = 716;
}
);
unicode = 02F3;
},
{
glyphname = "sajdah-ar";
lastChange = "2016-02-11 17:42:53 +0000";
layers = (
{
layerId = "93A312F7-B931-4485-B08E-C367313EB5E7";
name = Regular;
paths = (
{
closed = 1;
nodes = (
"766 698 LINE SMOOTH",
"811 698 OFFCURVE",
"844 725 OFFCURVE",
"844 784 CURVE SMOOTH",
"844 1006 OFFCURVE",
"800 1002 OFFCURVE",
"494 1232 CURVE SMOOTH",
"486 1238 OFFCURVE",
"476 1238 OFFCURVE",
"468 1232 CURVE SMOOTH",
"162 1002 OFFCURVE",
"120 1006 OFFCURVE",
"120 784 CURVE SMOOTH",
"120 725 OFFCURVE",
"160 698 OFFCURVE",
"205 698 CURVE SMOOTH"
);
},
{
closed = 1;
nodes = (
"743 0 LINE SMOOTH",
"754 0 OFFCURVE",
"761 7 OFFCURVE",
"761 18 CURVE SMOOTH",
"761 334 LINE SMOOTH",
"761 344 OFFCURVE",
"754 352 OFFCURVE",
"743 352 CURVE SMOOTH",
"221 352 LINE SMOOTH",
"210 352 OFFCURVE",
"203 344 OFFCURVE",
"203 334 CURVE SMOOTH",
"203 18 LINE SMOOTH",
"203 7 OFFCURVE",
"210 0 OFFCURVE",
"221 0 CURVE SMOOTH"
);
},
{
closed = 1;
nodes = (
"743 424 LINE SMOOTH",
"754 424 OFFCURVE",
"761 431 OFFCURVE",
"761 442 CURVE SMOOTH",
"761 608 LINE SMOOTH",
"761 619 OFFCURVE",
"754 626 OFFCURVE",
"743 626 CURVE SMOOTH",
"221 626 LINE SMOOTH",
"210 626 OFFCURVE",
"203 619 OFFCURVE",
"203 608 CURVE SMOOTH",
"203 442 LINE SMOOTH",
"203 431 OFFCURVE",
"210 424 OFFCURVE",
"221 424 CURVE SMOOTH"
);
}
);
width = 964;
}
);
unicode = 06E9;
userData = {
com.typemytype.robofont.guides = (
{
angle = 90;
isGlobal = 0;
x = 323;
y = 1030;
}
);
};
},
{
glyphname = "percent-ar";
lastChange = "2016-02-11 17:42:54 +0000";
layers = (
{
components = (
{
name = period;
transform = "{0.803, 0, 0, 0.803, 550, 112}";
},
{
name = period;
transform = "{0.803, 0, 0, 0.803, 24, 946}";
}
);
layerId = "93A312F7-B931-4485-B08E-C367313EB5E7";
name = Regular;
paths = (
{
closed = 1;
nodes = (
"887 1196 LINE",
"883 1268 OFFCURVE",
"863 1322 OFFCURVE",
"827 1366 CURVE",
"140 72 LINE",
"161 23 OFFCURVE",
"191 -18 OFFCURVE",
"228 -48 CURVE"
);
}
);
width = 1069;
}
);
unicode = 066A;
},
{
glyphname = caron;
lastChange = "2016-02-11 17:42:54 +0000";
layers = (
{
layerId = "93A312F7-B931-4485-B08E-C367313EB5E7";
name = Regular;
paths = (
{
closed = 1;
nodes = (
"402 1109 LINE",
"571 1558 LINE",
"506 1613 LINE",
"367 1246 LINE",
"318 1361 OFFCURVE",
"284 1435 OFFCURVE",
"257 1483 CURVE SMOOTH",
"214 1560 OFFCURVE",
"162 1590 OFFCURVE",
"84 1522 CURVE",
"188 1392 OFFCURVE",
"248 1230 OFFCURVE",
"306 1080 CURVE"
);
}
);
width = 655;
}
);
unicode = 02C7;
},
{
glyphname = "tahabove-ar";
lastChange = "2016-02-11 17:42:53 +0000";
layers = (
{
anchors = (
{
name = _top;
position = "{242, 1828}";
},
{
name = top;
position = "{242, 2417}";
}
);
layerId = "93A312F7-B931-4485-B08E-C367313EB5E7";
name = Regular;
paths = (
{
closed = 1;
nodes = (
"180 1828 OFFCURVE",
"371 1830 OFFCURVE",
"463 1919 CURVE SMOOTH",
"533 1987 OFFCURVE",
"450 2117 OFFCURVE",
"353 2117 CURVE SMOOTH",
"296 2118 OFFCURVE",
"236 2077 OFFCURVE",
"178 2018 CURVE SMOOTH",
"170 2011 OFFCURVE",
"163 2016 OFFCURVE",
"164 2024 CURVE",
"169 2051 OFFCURVE",
"170 2080 OFFCURVE",
"169 2117 CURVE SMOOTH",
"163 2288 LINE",
"163 2294 OFFCURVE",
"156 2298 OFFCURVE",
"151 2294 CURVE SMOOTH",
"110 2266 LINE",
"109 2264 OFFCURVE",
"108 2263 OFFCURVE",
"108 2262 CURVE",
"116 2117 LINE SMOOTH",
"125 1998 OFFCURVE",
"124 1958 OFFCURVE",
"72 1904 CURVE",
"72 1904 OFFCURVE",
"70 1903 OFFCURVE",
"68 1903 CURVE",
"7 1908 LINE",
"2 1908 OFFCURVE",
"-1 1904 OFFCURVE",
"0 1900 CURVE SMOOTH",
"16 1841 OFFCURVE",
"18 1841 OFFCURVE",
"67 1836 CURVE SMOOTH"
);
},
{
closed = 1;
nodes = (
"122 1901 OFFCURVE",
"119 1909 OFFCURVE",
"125 1915 CURVE SMOOTH",
"232 2024 OFFCURVE",
"270 2052 OFFCURVE",
"324 2052 CURVE SMOOTH",
"398 2052 OFFCURVE",
"439 1988 OFFCURVE",
"448 1962 CURVE SMOOTH",
"449 1958 OFFCURVE",
"448 1956 OFFCURVE",
"445 1955 CURVE SMOOTH",
"354 1909 OFFCURVE",
"240 1896 OFFCURVE",
"130 1900 CURVE"
);
}
);
width = 0;
}
);
unicode = 0615;
userData = {
com.typemytype.robofont.guides = (
{
angle = 0;
isGlobal = 0;
x = 376;
y = 1523;
}
);
};
},
{
glyphname = "alefLamYehabove-ar";
lastChange = "2016-02-11 17:42:53 +0000";
layers = (
{
anchors = (
{
name = _top;
position = "{455, 1099}";
},
{
name = top;
position = "{455, 2258}";
}
);
layerId = "93A312F7-B931-4485-B08E-C367313EB5E7";
name = Regular;
paths = (
{
closed = 1;
nodes = (
"511 1110 OFFCURVE",
"653 1117 OFFCURVE",
"853 1129 CURVE SMOOTH",
"872 1130 OFFCURVE",
"883 1135 OFFCURVE",
"886 1146 CURVE",
"895 1180 LINE SMOOTH",
"899 1192 OFFCURVE",
"892 1200 OFFCURVE",
"878 1200 CURVE",
"736 1188 OFFCURVE",
"575 1178 OFFCURVE",
"416 1175 CURVE SMOOTH",
"286 1172 OFFCURVE",
"148 1166 OFFCURVE",
"38 1196 CURVE",
"72 1330 OFFCURVE",
"233 1364 OFFCURVE",
"359 1396 CURVE",
"367 1397 OFFCURVE",
"373 1400 OFFCURVE",
"378 1408 CURVE SMOOTH",
"401 1442 OFFCURVE",
"430 1504 OFFCURVE",
"424 1598 CURVE SMOOTH",
"403 2008 LINE",
"469 1927 OFFCURVE",
"514 1885 OFFCURVE",
"503 1747 CURVE SMOOTH",
"466 1282 LINE SMOOTH",
"464 1271 OFFCURVE",
"470 1260 OFFCURVE",
"481 1262 CURVE SMOOTH",
"500 1267 LINE SMOOTH",
"511 1270 OFFCURVE",
"515 1273 OFFCURVE",
"516 1284 CURVE SMOOTH",
"557 1745 LINE SMOOTH",
"572 1915 OFFCURVE",
"530 1966 OFFCURVE",
"458 2062 CURVE SMOOTH",
"451 2071 OFFCURVE",
"442 2072 OFFCURVE",
"433 2065 CURVE",
"352 2004 LINE",
"344 1998 OFFCURVE",
"341 1992 OFFCURVE",
"342 1981 CURVE",
"377 1466 LINE",
"258 1436 OFFCURVE",
"137 1410 OFFCURVE",
"61 1322 CURVE SMOOTH",
"37 1295 OFFCURVE",
"2 1240 OFFCURVE",
"0 1193 CURVE SMOOTH",
"-4 1132 OFFCURVE",
"40 1114 OFFCURVE",
"101 1106 CURVE SMOOTH",
"187 1096 OFFCURVE",
"311 1102 OFFCURVE",
"407 1105 CURVE SMOOTH"
);
}
);
width = 0;
}
);
unicode = 0616;
},
{
glyphname = "dotcenter-ar";
lastChange = "2016-02-11 17:42:53 +0000";
layers = (
{
anchors = (
{
name = _center;
position = "{148, 666}";
}
);
layerId = "93A312F7-B931-4485-B08E-C367313EB5E7";
name = Regular;
paths = (
{
closed = 1;
nodes = (
"161 512 OFFCURVE",
"164 512 OFFCURVE",
"167 515 CURVE",
"287 662 LINE",
"294 672 OFFCURVE",
"296 691 OFFCURVE",
"287 700 CURVE SMOOTH",
"146 815 LINE",
"143 817 OFFCURVE",
"139 820 OFFCURVE",
"136 815 CURVE SMOOTH",
"4 650 LINE",
"-1 646 OFFCURVE",
"-1 642 OFFCURVE",
"4 638 CURVE SMOOTH",
"158 515 LINE"
);
}
);
width = 0;
}
);
},
